<svg xmlns="http://www.w3.org/2000/svg" width="167" height="257" viewBox="0 0 167 257">
  <g fill="none" fill-rule="evenodd">
    <path fill="#BFA072" d="M26.3527203,123 C29.7751793,123 29.7053332,125.506131 29.7053332,125.506131 L29.7053332,128.56918 L29.7053332,129.683016 L29.7053332,144.719802 C29.7053332,145.332412 30.0791495,146.168902 30.5362224,146.578794 L37.807481,156.832768 C38.2645539,157.24266 39.8995114,158.824864 40.3219406,159.269285 L44.9317833,162.819637 C45.3542126,163.264057 46.0264114,161.636186 46.1694563,162.232088 L49.9271765,177.886496 C50.0702213,178.482398 49.9959051,179.433057 49.7623397,180 L47.2065312,176.464128 C46.9729658,177.03107 43.7695442,178.601579 43.3722596,178.134325 L34.3397617,174.80674 C33.9424771,174.339485 33.5429574,173.461226 33.4529956,172.855299 L31.9320269,162.678736 C31.8415063,162.07281 31.5129503,161.144427 31.2022748,160.615912 L23.5655815,147.629698 C23.2543472,147.101183 23.0001074,146.167789 23.0001074,145.555179 L23.0001074,129.683016 L23.0001074,128.56918 L23.0001074,125.227672 C23.0001074,125.227672 22.9302613,123 26.3527203,123 Z"/>
    <path fill="#C9A978" d="M22.3897283,120 C25.8499651,120 25.779348,122.536957 25.779348,122.536957 L25.779348,125.637682 L25.779348,126.765218 L25.779348,141.986959 C25.779348,142.607104 26.1572906,143.453884 26.6194088,143.868817 L33.970929,154.248917 C34.4330471,154.66385 36.0860517,156.265516 36.5131438,156.715403 L41.1738708,160.309425 C41.6009629,160.759312 42.2805817,159.111417 42.4252055,159.714649 L46.2244042,175.561609 C46.369028,176.164841 46.2938914,177.127193 46.0577479,177.701109 L48,180.973783 C47.7638565,181.547699 39.0717417,172.431568 40.2790112,179.75999 L30.4638024,172.444535 C30.0621325,171.971533 29.6582028,171.082471 29.567248,170.469091 L28.0294906,160.167355 C27.9379708,159.553975 27.6057881,158.614174 27.2916833,158.079158 L19.5706946,144.933211 C19.2571548,144.397632 19.0001086,143.452756 19.0001086,142.832611 L19.0001086,126.765218 L19.0001086,125.637682 L19.0001086,122.255073 C19.0001086,122.255073 18.9294915,120 22.3897283,120 Z"/>
    <path fill="#D4B17E" d="M16.3526737,116 C19.7750851,116 19.70524,118.55178 19.70524,118.55178 L19.70524,121.670623 L19.70524,122.804748 L19.70524,138.11543 C19.70524,138.739199 20.0790511,139.590927 20.5361177,140.008284 L27.8072752,150.449036 C28.2643417,150.866394 29.8992765,152.477418 30.3216999,152.929934 L34.9314785,156.544956 C35.3539019,156.997472 36.0260914,155.339948 36.1691343,155.946705 L39.9268023,171.88626 C40.0698451,172.493017 39.9955299,173.460992 39.7619678,174.038261 L40,181.212167 C39.7664379,181.789436 36.5630608,183.388552 36.1657817,182.912787 L24.3396041,168.750405 C23.942325,168.27464 23.5428109,167.380383 23.4528503,166.763419 L21.9319028,156.401489 C21.8413835,155.784525 21.512832,154.839232 21.2021608,154.30109 L13.5655736,141.078331 C13.2543437,140.540189 13.0001074,139.589792 13.0001074,138.966024 L13.0001074,122.804748 L13.0001074,121.670623 L13.0001074,118.268249 C13.0001074,118.268249 12.9302623,116 16.3526737,116 Z"/>
    <path fill="#BFA072" d="M140.647711,123 C137.22519,123 137.295037,125.506131 137.295037,125.506131 L137.295037,128.56918 L137.295037,129.683016 L137.295037,144.719802 C137.295037,145.332412 136.921214,146.168902 136.464133,146.578794 L129.192742,156.832768 C128.73566,157.24266 127.100673,158.824864 126.678236,159.269285 L122.068309,162.819637 C121.645872,163.264057 120.973661,161.636186 120.830614,162.232088 L117.072825,177.886496 C116.929777,178.482398 117.004095,179.433057 117.237665,180 L119.79352,176.464128 C120.027089,177.03107 123.23057,178.601579 123.627861,178.134325 L132.660524,174.80674 C133.057816,174.339485 133.457343,173.461226 133.547306,172.855299 L135.068303,162.678736 C135.158825,162.07281 135.487387,161.144427 135.798068,160.615912 L143.434901,147.629698 C143.745582,147.101183 143.999827,146.167232 143.999827,145.554622 L143.999827,129.683016 L143.999827,128.56918 L143.999827,125.227672 C144.000385,125.227672 144.070233,123 140.647711,123 Z"/>
    <path fill="#C9A978" d="M144.609826,120 C141.14965,120 141.220266,122.536957 141.220266,122.536957 L141.220266,125.637682 L141.220266,126.765218 L141.220266,141.986959 C141.220266,142.607104 140.84233,143.453884 140.38022,143.868817 L133.028827,154.248917 C132.566717,154.66385 130.913741,156.265516 130.486657,156.715403 L125.82601,160.309425 C125.398926,160.759312 124.719319,159.111417 124.574698,159.714649 L120.775565,175.561609 C120.630944,176.164841 120.706079,177.127193 120.942218,177.701109 L119,180.973783 C119.236139,181.547699 127.928103,172.431568 126.720855,179.75999 L136.535893,172.444535 C136.937556,171.971533 137.341478,171.082471 137.432432,170.469091 L138.970162,160.167355 C139.06168,159.553975 139.393857,158.614174 139.707957,158.079158 L147.428811,144.933211 C147.74291,144.398195 147.999952,143.452756 147.999952,142.832611 L147.999952,126.765218 L147.999952,125.637682 L147.999952,122.255073 C147.999387,122.255073 148.070003,120 144.609826,120 Z"/>
    <path fill="#D4B17E" d="M150.647758,116 C147.225284,116 147.295131,118.55178 147.295131,118.55178 L147.295131,121.670623 L147.295131,122.804748 L147.295131,138.11543 C147.295131,138.739199 146.921313,139.590927 146.464238,140.008284 L139.192947,150.449036 C138.735873,150.866394 137.100908,152.477418 136.678477,152.929934 L132.068614,156.544956 C131.646183,156.997472 130.973981,155.339948 130.830936,155.946705 L127.073199,171.88626 C126.930154,172.493017 127.00447,173.460992 127.238037,174.038261 L127,181.212167 C127.233566,181.789436 130.437002,183.388552 130.834288,182.912787 L142.660682,168.750405 C143.057968,168.27464 143.45749,167.380383 143.547452,166.763419 L145.068427,156.401489 C145.158948,155.784525 145.487506,154.839232 145.798182,154.30109 L153.434909,141.078331 C153.745586,140.540189 153.999827,139.589225 153.999827,138.965457 L153.999827,122.804748 L153.999827,121.670623 L153.999827,118.268249 C154.000385,118.268249 154.070232,116 150.647758,116 Z"/>
    <path fill="#F59D00" d="M53.0146358,88 C31.5172366,88 15.5063307,75.334092 6.71245765,51.3712249 C0.309461502,33.9248057 0.0106018844,16.7577523 0.000355268965,16.0357255 C-0.0138761414,14.9706081 0.399973272,13.9436118 1.14854546,13.1851708 C1.8976869,12.4267298 2.9189329,12 3.98515017,12 L40.9868171,12 C43.1875624,12 44.971612,13.7831614 44.971612,15.982811 C44.971612,18.1824607 43.1875624,19.9656221 40.9868171,19.9656221 L8.19309358,19.9656221 C8.65476053,25.8761136 10.0545621,37.4222828 14.2573822,48.798329 C21.9150194,69.5254466 34.9549761,80.0343779 53.0152051,80.0343779 C55.2159504,80.0343779 57,81.8175393 57,84.017189 C57,86.2168386 55.2159504,88 53.0146358,88 Z"/>
    <path fill="#E87E04" d="M113.984874,88 C111.784085,88 110,86.2168386 110,84.017189 C110,81.8175393 111.784085,80.0343779 113.984874,80.0343779 C132.096698,80.0343779 145.157978,69.4679803 152.806091,48.6287751 C156.972562,37.2749188 158.355883,25.8368545 158.811297,19.9656221 L126.012934,19.9656221 C123.812144,19.9656221 122.028059,18.1824607 122.028059,15.982811 C122.028059,13.7831614 123.812144,12 126.012934,12 L163.01534,12 C164.081578,12 165.102844,12.4267298 165.851432,13.1851708 C166.600019,13.9436118 167.013876,14.9706081 166.999645,16.0357255 C166.989967,16.7583212 166.690532,33.9248057 160.287408,51.3712249 C151.493929,75.334092 135.482134,88 113.984874,88 Z"/>
    <path fill="#F4CC20" d="M84,0 L34,0 C34,0 34,98.6280193 75.954023,98.6280193 L75.954023,115.371246 L84,116 L84,0 Z"/>
    <path fill="#F59D00" d="M84,0 L134,0 C134,0 134,98.6280193 92.045977,98.6280193 L92.045977,115.371246 L84,116 L84,0 Z"/>
    <path fill="#33495F" d="M142,171.516484 C142,173.982418 139.962927,176 137.473171,176 L30.5268293,176 C28.0370732,176 26,173.982418 26,171.516484 L26,129.483516 C26,127.017582 28.0370732,125 30.5268293,125 L137.473171,125 C139.962927,125 142,127.017582 142,129.483516 L142,171.516484 Z"/>
    <path fill="#ECF0F1" d="M128,161.727273 C128,162.977273 126.979618,164 125.732484,164 L41.2675159,164 C40.0203822,164 39,162.977273 39,161.727273 L39,141.272727 C39,140.022727 40.0203822,139 41.2675159,139 L125.732484,139 C126.979618,139 128,140.022727 128,141.272727 L128,161.727273 Z"/>
    <path fill="#2B3E51" d="M137.495146,125 L84,125 L84,176 L137.495146,176 C139.972816,176 142,173.982418 142,171.516484 L142,129.483516 C142,127.017582 139.972816,125 137.495146,125 Z"/>
    <path fill="#F4CC20" d="M83,124.811394 L83,119 L54.7105263,119 C54.7105263,119 40,122.000264 40,125 L83,124.811394 Z"/>
    <polygon fill="#F59D00" points="62 119 84 119 84 114 62 114"/>
    <path fill="#F59D00" d="M84,124.811394 L84,119 L112.289474,119 C112.289474,119 127,122.000264 127,125 L84,124.811394 Z"/>
    <polygon fill="#E87E04" points="84 119 106 119 106 114 84 114"/>
    <path fill="#BDC3C7" d="M125.772152,139 L84,139 L84,164 L125.772152,164 C126.997468,164 128,162.977273 128,161.727273 L128,141.272727 C128,140.022727 126.997468,139 125.772152,139 Z"/>
    <polygon fill="#ECF0F1" points="109 208 143 208 143 200 109 200"/>
    <polygon fill="#BDC3C7" points="109 208 126 208 126 200 109 200"/>
    <path fill="#33495F" d="M106,257 C119.7514,254.815725 132.849271,250.642849 145,244.780868 L145,208 L106,208 L106,257 Z"/>
    <path fill="#2B3E51" d="M106,257 C112.835429,255.941407 119.513143,254.414722 126,252.456035 L126,208 L106,208 L106,257 Z"/>
    <path fill="#F4CC20" d="M106.218107 85C105.697766 85 105.175205 84.8163854 104.753606 84.4424386 103.8333 83.6256895 103.743433 82.2110734 104.552792 81.2818043 111.864204 72.8915128 115.687995 60.0653612 117.608489 50.7827475 117.859229 49.5724586 119.033604 48.7943358 120.234051 49.0479254 121.433944 49.3009553 122.203362 50.4871728 121.952621 51.6974617 119.923399 61.5068478 115.835555 75.1156006 107.885642 84.239231 107.446292 84.7430515 106.833309 85 106.218107 85zM121.350304 41C121.269313 41 121.187149 40.9960277 121.104984 40.9880832 119.81559 40.8581338 118.878915 39.7430654 119.012726 38.4957777 119.236917 36.4103445 119.307931 35.1613544 119.308518 35.1488702 119.378944 33.8976103 120.485817 32.917031 121.778733 33.0055556 123.073409 33.0725164 124.065838 34.1416201 123.996585 35.3934475 123.993651 35.4479242 123.919703 36.7547957 123.682013 38.9650711 123.557005 40.1312114 122.53758 41 121.350304 41z"/>
    <path fill="#ECF0F1" d="M139,147 C139,148.104564 138.104564,149 137,149 C135.895436,149 135,148.104564 135,147 C135,145.895436 135.895436,145 137,145 C138.104564,145 139,145.895436 139,147 Z"/>
    <path fill="#E5BF88" d="M154.645061,118 C151.220337,118 151.290229,120.531268 151.290229,120.531268 L151.290229,123.625039 L151.290229,124.750047 L151.290229,139.937652 C151.290229,140.556407 150.916165,141.401288 150.45879,141.81529 L143.182719,152.172112 C142.725343,152.586115 141.276056,155.707449 140.852788,156.156327 L138.895244,156.997271 L139.443759,147.712019 C139.443759,147.712019 140.740401,143.749741 136.886259,143.749741 C133.032675,143.749741 133.209363,147.225453 133.209363,147.225453 L131.053884,158.159966 C131.053884,158.159966 114.713057,159.624727 121.303065,175.93734 L106,175.93734 L114.387079,184.374898 L114.387079,199 L135.075209,199 L135.075209,184.374898 L146.781335,170.326363 C147.178883,169.854423 147.514366,168.967354 147.604946,168.35535 L149.095051,158.076716 C149.185631,157.464712 149.49819,156.527018 149.809071,155.993201 L157.442431,142.876735 C157.753312,142.342919 157.999893,141.3996 157.999893,140.780846 L157.999893,124.750047 L157.999893,123.625039 L157.999893,120.250016 C157.999893,120.250016 158.069785,118 154.645061,118 Z"/>
    <polygon fill="#BFA072" points="122 176 106 176 111.12 181"/>
    <path fill="#ECF0F1" d="M139,147 C139,148.104564 138.104564,149 137,149 C135.895436,149 135,148.104564 135,147 C135,145.895436 135.895436,145 137,145 C138.104564,145 139,145.895436 139,147 Z"/>
    <polygon fill="#BDC3C7" points="24 208 58 208 58 200 24 200"/>
    <polygon fill="#ECF0F1" points="42 208 59 208 59 200 42 200"/>
    <path fill="#2B3E51" d="M22,244.97403 C34.1590857,250.763537 47.2541714,254.877827 61,257 L61,208 L22,208 L22,244.97403 Z"/>
    <path fill="#33495F" d="M42,252.538963 C48.4891429,254.466364 55.1651429,255.971003 62,257 L62,208 L42,208 L42,252.538963 Z"/>
    <path fill="#ECF0F1" d="M32,147 C32,148.104564 31.1045637,149 30,149 C28.8954363,149 28,148.104564 28,147 C28,145.895436 28.8954363,145 30,145 C31.1045637,145 32,145.895436 32,147 Z"/>
    <path fill="#E5BF88" d="M11.3549393,118 C14.7796634,118 14.709771,120.531268 14.709771,120.531268 L14.709771,123.625039 L14.709771,124.750047 L14.709771,139.937652 C14.709771,140.556407 15.0838348,141.401288 15.5412102,141.81529 L22.8172812,152.172112 C23.2746566,152.586115 24.7239439,155.707449 25.1472118,156.156327 L27.1047562,156.997271 L26.5562412,147.712019 C26.5562412,147.712019 25.2595987,143.749741 29.1137413,143.749741 C32.9673247,143.749741 32.7906369,147.225453 32.7906369,147.225453 L34.9461163,158.159966 C34.9461163,158.159966 51.2869427,159.624727 44.6969349,175.93734 L60,175.93734 L51.6129206,184.374898 L51.6129206,199 L30.9247913,199 L30.9247913,184.374898 L19.2186649,170.326363 C18.8211174,169.854423 18.4856342,168.967354 18.3950537,168.35535 L16.9049493,158.076716 C16.8143688,157.464712 16.5018103,156.527018 16.1909293,155.993201 L8.5575687,142.876735 C8.24668762,142.342919 8.00010749,141.400163 8.00010749,140.781408 L8.00010749,124.750047 L8.00010749,123.625039 L8.00010749,120.250016 C8.00010749,120.250016 7.93021516,118 11.3549393,118 Z"/>
    <polygon fill="#BFA072" points="45 176 61 176 55.88 181"/>
    <path fill="#ECF0F1" d="M32,147 C32,148.104564 31.1045637,149 30,149 C28.8954363,149 28,148.104564 28,147 C28,145.895436 28.8954363,145 30,145 C31.1045637,145 32,145.895436 32,147 Z"/>
  </g>
</svg>
