<svg xmlns="http://www.w3.org/2000/svg" width="1440" height="683" viewBox="0 0 1440 683" xmlns:xlink="http://www.w3.org/1999/xlink">
  <defs>
    <linearGradient id="b" x1=".645%" y1="0%" y2="100%">
      <stop stop-color="#3B92FF" offset="0%"/>
      <stop stop-color="#50AECD" offset="56.728%"/>
      <stop stop-color="#1CBEA6" offset="100%"/>
    </linearGradient>
    <rect id="a" width="1440" height="683"/>
  </defs>
  <g fill="none" fill-rule="evenodd">
    <mask id="c" fill="white">
      <use xlink:href="#a"/>
    </mask>
    <use fill="url(#b)" xlink:href="#a"/>
    <g transform="translate(1258 422)" opacity=".521" mask="url(#c)">
      <path fill="#82C6AC" d="M177.148287 162C177.148287 162 191.929791 168.352857 186.989646 179.999999 186.989646 179.999999 175.578508 180.04973 177.148287 162M165.777773 173C165.777773 173 178.075006 183.051887 170.576825 193 170.576825 193 159.870729 190.028929 165.777773 173"/>
      <path fill="#82C6AC" d="M192 186.576595C192 186.576595 178.545372 178.977939 173 189.878918 173 189.878918 179.770451 198.75184 192 186.576595M153.691346 179C153.691346 179 163.573974 191.666253 153.405016 199 153.405016 199 143.305515 193.387706 153.691346 179"/>
      <path fill="#82C6AC" d="M172 200.610823C172 200.610823 160.993285 189.422315 153 198.644418 153 198.644418 157.286674 209.251174 172 200.610823M136.494246 184C136.494246 184 142.243772 199.299678 131.272927 204 131.272927 204 123.582243 195.730755 136.494246 184"/>
      <path fill="#82C6AC" d="M150 209.136307C150 209.136307 141.572333 196.593826 131 202.654092 131 202.654092 132.6805 212.998866 150 209.136307M122.884384 184C122.884384 184 124.808467 200.52575 112.958198 202 112.958198 202 107.44098 191.771218 122.884384 184"/>
      <path fill="#82C6AC" d="M127 212C127 212 122.848401 195.724906 112.019744 199.595023 112.019744 199.595023 110.826143 211.587972 127 212M107 179C107 179 104.767478 193.531702 92.1999462 191.867194 92.1999462 191.867194 89.1355615 181.805122 107 179M105 208C105 208 104.593172 192.562373 92.446825 193.00953 92.446825 193.00953 88.3445247 203.223185 105 208M32 100.306381C32 100.306381 19.9649207 90.4242889 13 100.599782 13 100.599782 18.3333563 110.693066 32 100.306381"/>
      <path fill="#82C6AC" d="M9.39102776 81C9.39102776 81 20.5798339 92.582445 11.3518509 101 11.3518509 101 .749037848 96.4797176 9.39102776 81M28 115.507441C28 115.507441 13.4665855 109.753928 9 120.727585 9 120.727585 16.8621159 128.416537 28 115.507441"/>
      <path fill="#82C6AC" d="M2.86482713 103C2.86482713 103 15.4075449 111.867633 9.34469991 123 9.34469991 123-1.00065101 121.228239 2.86482713 103M29 131.116406C29 131.116406 12.4718344 129.186611 11 141.04183 11 141.04183 21.2392874 146.558774 29 131.116406"/>
      <path fill="#82C6AC" d="M0 125C0 125 16.2793532 129.153129 12.4034569 139.980433 12.4034569 139.980433.407756653 141.16994 0 125M31 146C31 146 16.4670948 148.228848 18.1330124 160.799722 18.1330124 160.799722 28.2010042 163.866344 31 146M2 149C2 149 17.437589 149.409416 16.9904718 161.553169 16.9904718 161.553169 6.77638896 165.655495 2 149M41.8519452 162C41.8519452 162 27.0701247 168.352857 32.0103757 179.999999 32.0103757 179.999999 43.4203671 180.04973 41.8519452 162"/>
      <path fill="#82C6AC" d="M13 171.577396C13 171.577396 28.2912754 167.626016 31 180.396864 31 180.396864 22.0204483 187.567724 13 171.577396M51.2218669 173C51.2218669 173 38.9246158 183.051887 46.423631 193 46.423631 193 57.1295684 190.028929 51.2218669 173"/>
      <path fill="#82C6AC" d="M26 186.576595C26 186.576595 39.454628 178.977939 45 189.878918 45 189.878918 38.2295494 198.75184 26 186.576595M65.3086539 179C65.3086539 179 55.4260262 191.666253 65.5949836 199 65.5949836 199 75.6944848 193.387706 65.3086539 179"/>
      <path fill="#82C6AC" d="M46 200.610823C46 200.610823 57.0067151 189.422315 65 198.644418 65 198.644418 60.7133264 209.251174 46 200.610823M80.5057536 184C80.5057536 184 74.7562279 199.299678 85.727073 204 85.727073 204 93.4177569 195.730755 80.5057536 184"/>
      <path fill="#82C6AC" d="M66 209.136307C66 209.136307 74.4268894 196.593826 85 202.654092 85 202.654092 83.3207742 212.998866 66 209.136307M94.1158286 184C94.1158286 184 92.1902287 200.527076 104.041615 202 104.041615 202 109.559353 191.771841 94.1158286 184"/>
      <path fill="#82C6AC" d="M90 212C90 212 94.1525317 195.724906 104.980315 199.595023 104.980315 199.595023 106.172551 211.587972 90 212M110 179C110 179 112.232491 193.531702 124.799849 191.867194 124.799849 191.867194 127.865614 181.805122 110 179M114 208C114 208 114.406828 192.562373 126.553175 193.00953 126.553175 193.00953 130.655475 203.223185 114 208M32 76C32 76 16.316913 79.5748129 19.4020416 90.9467105 19.4020416 90.9467105 30.7281715 92.7065376 32 76"/>
      <path fill="#F3B736" d="M42,0 C43.2249559,17.271955 55.624369,171 109,171 C162.375631,171 174.776419,17.271955 176,0 L42,0"/>
      <path fill="#F9CE58" d="M171.630853 39C174.420343 19.7527099 175.654923 4.67146521 176 0L42 0C42.3450774 4.67146521 43.5796569 19.7527099 46.3705216 39L171.630853 39M55 83C64.7531639 125.506164 81.600919 168 110 168 138.400462 168 155.248217 125.506164 165 83L55 83M163.181267 74C165.097576 65.0553898 166.687908 56.2436137 168 48L46 48C47.3120919 56.2436137 48.9037877 65.0553898 50.8187327 74L163.181267 74"/>
      <path fill="#F9CE58" d="M121.583375 162L95.4166252 162C94.3328119 175.75 90.631065 195 79 206L138 206C126.367537 195 122.66579 175.75 121.583375 162M137.597412 208.060056L107.999306 208.26676 78.4025879 208C78.4025879 208 63.0843672 226.413408 52 232L164 232C152.915633 226.413408 137.597412 208.060056 137.597412 208.060056"/>
      <path fill="#4EBAB7" d="M154 212.546286C154 215.005857 151.833524 217 149.161397 217L70.8386032 217C68.1664762 217 66 215.005857 66 212.546286L66 212.453714C66 209.994143 68.1664762 208 70.8386032 208L149.161397 208C151.833524 208 154 209.994143 154 212.453714L154 212.546286M173 235.809375C173 238.383375 169.120978 241 165.244717 241L52.6619783 241C48.7870978 241 46 238.383375 46 235.809375L46 235.137C46 232.564375 48.7870978 230 52.6619783 230L165.244717 230C169.120978 230 173 232.564375 173 235.137L173 235.809375"/>
      <path fill="#F9CE58" d="M59.1994667 15.3404964C59.0664329 15.2704838 54.892498 13.013609 49.0334684 10.718296 46.0997963 9.57201228 42.7448506 8.4133734 39.215298 7.52380232 35.6815882 6.63834962 31.9802003 6.00411838 28.2594117 6 26.2888488 6.00137279 24.3071997 6.18120892 22.3421799 6.64795918 20.8704936 6.99802188 19.4085078 7.51419275 18.0074957 8.24726522 15.9080564 9.34000994 13.95828 10.9599079 12.4810507 13.0396921 10.994121 15.1167308 9.9922103 17.5959984 9.46977555 20.3264874 9.14966301 21.9944332 9 23.6623789 9 25.3124784 9 28.4781434 9.54460705 31.5614407 10.437042 34.5253048 12.0071178 39.7172151 14.6179058 44.5782817 17.5820648 49.2087189 22.0331535 56.1399602 27.3337183 62.6003329 31.5215109 68.3454795 33.6140215 71.2091296 35.4224495 73.8860796 36.7001281 76.2308133 37.9888929 78.5700558 38.6956348 80.5660995 38.8522267 81.8977106 38.9284439 82.4976219 38.9658597 83.1140068 38.9658597 83.7537292 38.9686312 85.7552642 38.5875449 87.9846831 37.927919 90.374719 36.9481807 93.9645776 35.3476179 97.8550783 33.8939467 101.881486 33.1691897 103.899494 32.4832343 105.958686 31.9607995 108.085146 31.4411363 110.211605 31.078065 112.413568 31.0766792 114.715745 31.0739077 116.935554 31.4300502 119.26656 32.347429 121.522062 33.2564932 123.777564 34.7240221 125.906769 36.6557835 127.725722 38.6540618 129.620179 40.9572091 130.987483 43.3227161 131.824888 45.6896088 132.669156 48.0994604 133 50.4067651 133 53.7381527 132.995882 56.8783043 132.331449 59.7454595 131.415795 64.0427279 130.032017 67.7565876 128.06343 70.4699225 126.435295 73.1791001 124.804415 74.8752808 123.503005 75 123.406909L68.1931048 114.739082 68.2028051 114.751438 68.1931048 114.739082 68.2028051 114.751438 68.1931048 114.739082C68.0406702 114.858516 65.449283 116.796902 61.9072585 118.615855 60.1417893 119.526018 58.1407395 120.403234 56.1383039 121.027856 54.1358683 121.656596 52.1417473 122.021759 50.4067651 122.017641 49.1595734 122.017641 48.0551158 121.84055 47.0753774 121.490488 46.0914817 121.136307 45.2101329 120.624254 44.3107691 119.779985 43.4155626 118.926107 42.9513301 118.193034 42.6339891 117.427015 42.3263485 116.660995 42.1642136 115.809863 42.1628278 114.715745 42.155899 113.219399 42.50927 111.287876 43.1702816 109.074931 44.1486342 105.747276 45.7852269 101.848539 47.2555273 97.6230759 48.7105843 93.3893765 50.0395364 88.7754129 50.0520083 83.7537292 50.0520083 82.6884404 49.9896487 81.6080508 49.8496861 80.5166789 49.5157159 77.9399429 48.6662397 75.5348063 47.5645537 73.1900726 45.6244777 69.0963983 42.8695698 65.1207843 39.8638377 61.0367196 35.3517753 54.9387647 30.2369034 48.625281 26.3803095 42.4367217 24.4513196 39.349306 22.8438281 36.3071926 21.7532282 33.4202049 20.658471 30.5290989 20.0847628 27.8192018 20.0861486 25.3124784 20.0861486 24.3144565 20.1748378 23.3425177 20.3605308 22.3815613 20.6085834 21.0938797 20.9841267 20.2276461 21.3776849 19.6085157 21.6770109 19.1417654 21.9901946 18.8013123 22.3574233 18.5006702 22.9048019 18.0572574 23.6101581 17.6893484 24.5982111 17.4120438 25.5793353 17.1388577 26.826527 16.9809863 28.2594117 16.982359 30.6651059 16.9768679 33.562748 17.4285174 36.4825624 18.167081 40.8699057 19.2694353 45.3029794 20.9936657 48.5761648 22.4364731 50.2141432 23.1571904 51.5680391 23.8065224 52.4978899 24.2691543 52.9635081 24.4997838 53.3238079 24.6851111 53.5607744 24.8086627L53.8226846 24.9459421 53.8808869 24.9761436 53.8905873 24.9816348 54.6638461 23.5745201 53.8878157 24.980262 53.8905873 24.9816348 54.6638461 23.5745201 53.8878157 24.980262 59.1994667 15.3404964M168.110798 24.980262L167.962521 24.7084486 168.110798 24.980262 167.962521 24.7084486 168.110798 24.980262C168.220274 24.919859 172.105969 22.8441932 177.284586 20.8371671 179.870431 19.833654 182.779159 18.8493601 185.654629 18.1327612 188.527327 17.4134166 191.37231 16.9782407 193.740588 16.982359 195.012724 16.9809863 196.142125 17.1045378 197.065047 17.3255578 197.757931 17.4916659 198.334411 17.7071947 198.808344 17.9556706 199.520629 18.3359348 200.011191 18.7518916 200.471266 19.3847501 200.923027 20.0217269 201.358158 20.9318899 201.639469 22.3815613 201.823776 23.3425177 201.913851 24.3144565 201.913851 25.3124784 201.913851 27.2247816 201.584038 29.2482813 200.939656 31.3870957 199.819955 35.1279618 197.712201 39.1941802 195.05984 43.3208016 191.088227 49.5258345 185.947026 55.8242174 181.495937 61.9098171 179.270393 64.9615401 177.211141 67.9665881 175.549604 71.005956 173.899154 74.0494422 172.596531 77.1354851 172.150314 80.5166789 172.010351 81.6080508 171.947992 82.6884404 171.947992 83.7537292 171.950763 87.0992304 172.554958 90.2717593 173.375333 93.2617066 174.61421 97.7438819 176.342264 101.874622 177.662901 105.566067 178.325299 107.406985 178.887921 109.131215 179.266236 110.679728 179.648708 112.228241 179.839944 113.592799 179.838558 114.717118 179.835786 115.809863 179.673652 116.660995 179.366011 117.428388 179.04867 118.193034 178.584437 118.926107 177.690617 119.779985 176.791253 120.624254 175.908518 121.136307 174.926008 121.490488 173.944884 121.84055 172.840427 122.017641 171.593235 122.017641 169.802822 122.021759 167.735255 121.631886 165.667688 120.96608 162.564953 119.976295 159.499633 118.386598 157.285174 117.049496 156.175174 116.380945 155.274424 115.779661 154.666072 115.35684 154.362588 115.146803 154.132551 114.979322 153.985659 114.872244L153.829068 114.755556 153.801352 114.734964 152.972663 115.801626 153.806895 114.739082 153.801352 114.734964 152.972663 115.801626 153.806895 114.739082 147 123.406909C147.17045 123.534579 150.119365 125.806555 154.562139 128.143052 156.786298 129.309927 159.387385 130.494649 162.25454 131.415795 165.121696 132.331449 168.261847 132.995882 171.593235 133 173.90054 133 176.310391 132.669156 178.677284 131.824888 181.042791 130.987483 183.345938 129.620179 185.344217 127.725722 187.275978 125.906769 188.743507 123.777564 189.652571 121.522062 190.56995 119.26656 190.926092 116.935554 190.924707 114.717118 190.917778 111.644803 190.284481 108.757815 189.466878 105.980651 188.226615 101.821083 186.534592 97.8427231 185.230583 94.0593004 183.912718 90.2827417 183.021668 86.7519133 183.03414 83.7537292 183.03414 83.1153796 183.071556 82.4976219 183.147773 81.8977106 183.273878 80.8832152 183.699309 79.4829644 184.479497 77.8383561 185.832007 74.9513685 188.223844 71.3834746 191.08407 67.5218026 195.373024 61.7025251 200.680517 55.1968501 205.04846 48.2134426 207.231045 44.7155612 209.183593 41.083146 210.627564 37.2763858 212.065992 33.4737439 212.997228 29.4706741 213 25.3124784 213 23.6637517 212.850337 21.9944332 212.530224 20.3264874 212.064606 17.8980132 211.22483 15.6727127 209.995654 13.7453087 209.078275 12.3025013 207.944716 11.03953 206.673966 10.0099338 204.767149 8.45867563 202.587335 7.44418021 200.392277 6.83740488 198.190291 6.22788395 195.956432 6.00137279 193.740588 6 190.0198 6.00411838 186.318412 6.63834962 182.784702 7.52380232 177.493838 8.85953174 172.579902 10.7937997 168.924245 12.3985969 165.27413 14.0047669 162.897537 15.2883302 162.799148 15.3418692L168.110798 24.980262"/>
      <path fill="#EAEDDB" d="M75 61.5006601C75 63.986651 72.9853308 66 70.4993399 66 68.0146692 66 66 63.986651 66 61.5006601 66 59.0146692 68.0146692 57 70.4993399 57 72.9853308 57 75 59.0146692 75 61.5006601M92 61.5006601C92 63.986651 89.9853308 66 87.4993399 66 85.0146692 66 83 63.986651 83 61.5006601 83 59.0146692 85.0146692 57 87.4993399 57 89.9853308 57 92 59.0146692 92 61.5006601M114 61.5006601C114 63.986651 111.984306 66 109.49868 66 107.015694 66 105 63.986651 105 61.5006601 105 59.0146692 107.015694 57 109.49868 57 111.984306 57 114 59.0146692 114 61.5006601M134 61.5006601C134 63.986651 131.985331 66 129.49934 66 127.014669 66 125 63.986651 125 61.5006601 125 59.0146692 127.014669 57 129.49934 57 131.985331 57 134 59.0146692 134 61.5006601M154 61.5006601C154 63.986651 151.985331 66 149.49934 66 147.014669 66 145 63.986651 145 61.5006601 145 59.0146692 147.014669 57 149.49934 57 151.985331 57 154 59.0146692 154 61.5006601"/>
      <polygon fill="#EB8E57" points="11 300 211 300 211 241 11 241"/>
      <polygon fill="#F3B58A" points="24 284 192 284 192 256 24 256"/>
      <path fill="#82C6AC" d="M177.148287 162C177.148287 162 191.929791 168.352857 186.989646 179.999999 186.989646 179.999999 175.578508 180.04973 177.148287 162M165.777773 173C165.777773 173 178.075006 183.051887 170.576825 193 170.576825 193 159.870729 190.028929 165.777773 173"/>
      <path fill="#82C6AC" d="M192 186.576595C192 186.576595 178.545372 178.977939 173 189.878918 173 189.878918 179.770451 198.75184 192 186.576595M153.691346 179C153.691346 179 163.573974 191.666253 153.405016 199 153.405016 199 143.305515 193.387706 153.691346 179"/>
      <path fill="#82C6AC" d="M172 200.610823C172 200.610823 160.993285 189.422315 153 198.644418 153 198.644418 157.286674 209.251174 172 200.610823M136.494246 184C136.494246 184 142.243772 199.299678 131.272927 204 131.272927 204 123.582243 195.730755 136.494246 184"/>
      <path fill="#82C6AC" d="M150 209.136307C150 209.136307 141.572333 196.593826 131 202.654092 131 202.654092 132.6805 212.998866 150 209.136307M122.884384 184C122.884384 184 124.808467 200.52575 112.958198 202 112.958198 202 107.44098 191.771218 122.884384 184"/>
      <path fill="#82C6AC" d="M127 212C127 212 122.848401 195.724906 112.019744 199.595023 112.019744 199.595023 110.826143 211.587972 127 212M107 179C107 179 104.767478 193.531702 92.1999462 191.867194 92.1999462 191.867194 89.1355615 181.805122 107 179M105 208C105 208 104.593172 192.562373 92.446825 193.00953 92.446825 193.00953 88.3445247 203.223185 105 208M32 100.306381C32 100.306381 19.9649207 90.4242889 13 100.599782 13 100.599782 18.3333563 110.693066 32 100.306381"/>
      <path fill="#82C6AC" d="M9.39102776 81C9.39102776 81 20.5798339 92.582445 11.3518509 101 11.3518509 101 .749037848 96.4797176 9.39102776 81M28 115.507441C28 115.507441 13.4665855 109.753928 9 120.727585 9 120.727585 16.8621159 128.416537 28 115.507441"/>
      <path fill="#82C6AC" d="M2.86482713 103C2.86482713 103 15.4075449 111.867633 9.34469991 123 9.34469991 123-1.00065101 121.228239 2.86482713 103M29 131.116406C29 131.116406 12.4718344 129.186611 11 141.04183 11 141.04183 21.2392874 146.558774 29 131.116406"/>
      <path fill="#82C6AC" d="M0 125C0 125 16.2793532 129.153129 12.4034569 139.980433 12.4034569 139.980433.407756653 141.16994 0 125M31 146C31 146 16.4670948 148.228848 18.1330124 160.799722 18.1330124 160.799722 28.2010042 163.866344 31 146M2 149C2 149 17.437589 149.409416 16.9904718 161.553169 16.9904718 161.553169 6.77638896 165.655495 2 149M41.8519452 162C41.8519452 162 27.0701247 168.352857 32.0103757 179.999999 32.0103757 179.999999 43.4203671 180.04973 41.8519452 162"/>
      <path fill="#82C6AC" d="M13 171.577396C13 171.577396 28.2912754 167.626016 31 180.396864 31 180.396864 22.0204483 187.567724 13 171.577396M51.2218669 173C51.2218669 173 38.9246158 183.051887 46.423631 193 46.423631 193 57.1295684 190.028929 51.2218669 173"/>
      <path fill="#82C6AC" d="M26 186.576595C26 186.576595 39.454628 178.977939 45 189.878918 45 189.878918 38.2295494 198.75184 26 186.576595M65.3086539 179C65.3086539 179 55.4260262 191.666253 65.5949836 199 65.5949836 199 75.6944848 193.387706 65.3086539 179"/>
      <path fill="#82C6AC" d="M46 200.610823C46 200.610823 57.0067151 189.422315 65 198.644418 65 198.644418 60.7133264 209.251174 46 200.610823M80.5057536 184C80.5057536 184 74.7562279 199.299678 85.727073 204 85.727073 204 93.4177569 195.730755 80.5057536 184"/>
      <path fill="#82C6AC" d="M66 209.136307C66 209.136307 74.4268894 196.593826 85 202.654092 85 202.654092 83.3207742 212.998866 66 209.136307M94.1158286 184C94.1158286 184 92.1902287 200.527076 104.041615 202 104.041615 202 109.559353 191.771841 94.1158286 184"/>
      <path fill="#82C6AC" d="M90 212C90 212 94.1525317 195.724906 104.980315 199.595023 104.980315 199.595023 106.172551 211.587972 90 212M110 179C110 179 112.232491 193.531702 124.799849 191.867194 124.799849 191.867194 127.865614 181.805122 110 179M114 208C114 208 114.406828 192.562373 126.553175 193.00953 126.553175 193.00953 130.655475 203.223185 114 208M32 76C32 76 16.316913 79.5748129 19.4020416 90.9467105 19.4020416 90.9467105 30.7281715 92.7065376 32 76"/>
      <path fill="#F3B736" d="M42,0 C43.2249559,17.271955 55.624369,171 109,171 C162.375631,171 174.776419,17.271955 176,0 L42,0"/>
      <path fill="#F9CE58" d="M171.630853 39C174.420343 19.7527099 175.654923 4.67146521 176 0L42 0C42.3450774 4.67146521 43.5796569 19.7527099 46.3705216 39L171.630853 39M55 83C64.7531639 125.506164 81.600919 168 110 168 138.400462 168 155.248217 125.506164 165 83L55 83M163.181267 74C165.097576 65.0553898 166.687908 56.2436137 168 48L46 48C47.3120919 56.2436137 48.9037877 65.0553898 50.8187327 74L163.181267 74"/>
      <path fill="#F9CE58" d="M121.583375 162L95.4166252 162C94.3328119 175.75 90.631065 195 79 206L138 206C126.367537 195 122.66579 175.75 121.583375 162M137.597412 208.060056L107.999306 208.26676 78.4025879 208C78.4025879 208 63.0843672 226.413408 52 232L164 232C152.915633 226.413408 137.597412 208.060056 137.597412 208.060056"/>
      <path fill="#4EBAB7" d="M154 212.546286C154 215.005857 151.833524 217 149.161397 217L70.8386032 217C68.1664762 217 66 215.005857 66 212.546286L66 212.453714C66 209.994143 68.1664762 208 70.8386032 208L149.161397 208C151.833524 208 154 209.994143 154 212.453714L154 212.546286M173 235.809375C173 238.383375 169.120978 241 165.244717 241L52.6619783 241C48.7870978 241 46 238.383375 46 235.809375L46 235.137C46 232.564375 48.7870978 230 52.6619783 230L165.244717 230C169.120978 230 173 232.564375 173 235.137L173 235.809375"/>
      <path fill="#F9CE58" d="M59.1994667 15.3404964C59.0664329 15.2704838 54.892498 13.013609 49.0334684 10.718296 46.0997963 9.57201228 42.7448506 8.4133734 39.215298 7.52380232 35.6815882 6.63834962 31.9802003 6.00411838 28.2594117 6 26.2888488 6.00137279 24.3071997 6.18120892 22.3421799 6.64795918 20.8704936 6.99802188 19.4085078 7.51419275 18.0074957 8.24726522 15.9080564 9.34000994 13.95828 10.9599079 12.4810507 13.0396921 10.994121 15.1167308 9.9922103 17.5959984 9.46977555 20.3264874 9.14966301 21.9944332 9 23.6623789 9 25.3124784 9 28.4781434 9.54460705 31.5614407 10.437042 34.5253048 12.0071178 39.7172151 14.6179058 44.5782817 17.5820648 49.2087189 22.0331535 56.1399602 27.3337183 62.6003329 31.5215109 68.3454795 33.6140215 71.2091296 35.4224495 73.8860796 36.7001281 76.2308133 37.9888929 78.5700558 38.6956348 80.5660995 38.8522267 81.8977106 38.9284439 82.4976219 38.9658597 83.1140068 38.9658597 83.7537292 38.9686312 85.7552642 38.5875449 87.9846831 37.927919 90.374719 36.9481807 93.9645776 35.3476179 97.8550783 33.8939467 101.881486 33.1691897 103.899494 32.4832343 105.958686 31.9607995 108.085146 31.4411363 110.211605 31.078065 112.413568 31.0766792 114.715745 31.0739077 116.935554 31.4300502 119.26656 32.347429 121.522062 33.2564932 123.777564 34.7240221 125.906769 36.6557835 127.725722 38.6540618 129.620179 40.9572091 130.987483 43.3227161 131.824888 45.6896088 132.669156 48.0994604 133 50.4067651 133 53.7381527 132.995882 56.8783043 132.331449 59.7454595 131.415795 64.0427279 130.032017 67.7565876 128.06343 70.4699225 126.435295 73.1791001 124.804415 74.8752808 123.503005 75 123.406909L68.1931048 114.739082 68.2028051 114.751438 68.1931048 114.739082 68.2028051 114.751438 68.1931048 114.739082C68.0406702 114.858516 65.449283 116.796902 61.9072585 118.615855 60.1417893 119.526018 58.1407395 120.403234 56.1383039 121.027856 54.1358683 121.656596 52.1417473 122.021759 50.4067651 122.017641 49.1595734 122.017641 48.0551158 121.84055 47.0753774 121.490488 46.0914817 121.136307 45.2101329 120.624254 44.3107691 119.779985 43.4155626 118.926107 42.9513301 118.193034 42.6339891 117.427015 42.3263485 116.660995 42.1642136 115.809863 42.1628278 114.715745 42.155899 113.219399 42.50927 111.287876 43.1702816 109.074931 44.1486342 105.747276 45.7852269 101.848539 47.2555273 97.6230759 48.7105843 93.3893765 50.0395364 88.7754129 50.0520083 83.7537292 50.0520083 82.6884404 49.9896487 81.6080508 49.8496861 80.5166789 49.5157159 77.9399429 48.6662397 75.5348063 47.5645537 73.1900726 45.6244777 69.0963983 42.8695698 65.1207843 39.8638377 61.0367196 35.3517753 54.9387647 30.2369034 48.625281 26.3803095 42.4367217 24.4513196 39.349306 22.8438281 36.3071926 21.7532282 33.4202049 20.658471 30.5290989 20.0847628 27.8192018 20.0861486 25.3124784 20.0861486 24.3144565 20.1748378 23.3425177 20.3605308 22.3815613 20.6085834 21.0938797 20.9841267 20.2276461 21.3776849 19.6085157 21.6770109 19.1417654 21.9901946 18.8013123 22.3574233 18.5006702 22.9048019 18.0572574 23.6101581 17.6893484 24.5982111 17.4120438 25.5793353 17.1388577 26.826527 16.9809863 28.2594117 16.982359 30.6651059 16.9768679 33.562748 17.4285174 36.4825624 18.167081 40.8699057 19.2694353 45.3029794 20.9936657 48.5761648 22.4364731 50.2141432 23.1571904 51.5680391 23.8065224 52.4978899 24.2691543 52.9635081 24.4997838 53.3238079 24.6851111 53.5607744 24.8086627L53.8226846 24.9459421 53.8808869 24.9761436 53.8905873 24.9816348 54.6638461 23.5745201 53.8878157 24.980262 53.8905873 24.9816348 54.6638461 23.5745201 53.8878157 24.980262 59.1994667 15.3404964M168.110798 24.980262L167.962521 24.7084486 168.110798 24.980262 167.962521 24.7084486 168.110798 24.980262C168.220274 24.919859 172.105969 22.8441932 177.284586 20.8371671 179.870431 19.833654 182.779159 18.8493601 185.654629 18.1327612 188.527327 17.4134166 191.37231 16.9782407 193.740588 16.982359 195.012724 16.9809863 196.142125 17.1045378 197.065047 17.3255578 197.757931 17.4916659 198.334411 17.7071947 198.808344 17.9556706 199.520629 18.3359348 200.011191 18.7518916 200.471266 19.3847501 200.923027 20.0217269 201.358158 20.9318899 201.639469 22.3815613 201.823776 23.3425177 201.913851 24.3144565 201.913851 25.3124784 201.913851 27.2247816 201.584038 29.2482813 200.939656 31.3870957 199.819955 35.1279618 197.712201 39.1941802 195.05984 43.3208016 191.088227 49.5258345 185.947026 55.8242174 181.495937 61.9098171 179.270393 64.9615401 177.211141 67.9665881 175.549604 71.005956 173.899154 74.0494422 172.596531 77.1354851 172.150314 80.5166789 172.010351 81.6080508 171.947992 82.6884404 171.947992 83.7537292 171.950763 87.0992304 172.554958 90.2717593 173.375333 93.2617066 174.61421 97.7438819 176.342264 101.874622 177.662901 105.566067 178.325299 107.406985 178.887921 109.131215 179.266236 110.679728 179.648708 112.228241 179.839944 113.592799 179.838558 114.717118 179.835786 115.809863 179.673652 116.660995 179.366011 117.428388 179.04867 118.193034 178.584437 118.926107 177.690617 119.779985 176.791253 120.624254 175.908518 121.136307 174.926008 121.490488 173.944884 121.84055 172.840427 122.017641 171.593235 122.017641 169.802822 122.021759 167.735255 121.631886 165.667688 120.96608 162.564953 119.976295 159.499633 118.386598 157.285174 117.049496 156.175174 116.380945 155.274424 115.779661 154.666072 115.35684 154.362588 115.146803 154.132551 114.979322 153.985659 114.872244L153.829068 114.755556 153.801352 114.734964 152.972663 115.801626 153.806895 114.739082 153.801352 114.734964 152.972663 115.801626 153.806895 114.739082 147 123.406909C147.17045 123.534579 150.119365 125.806555 154.562139 128.143052 156.786298 129.309927 159.387385 130.494649 162.25454 131.415795 165.121696 132.331449 168.261847 132.995882 171.593235 133 173.90054 133 176.310391 132.669156 178.677284 131.824888 181.042791 130.987483 183.345938 129.620179 185.344217 127.725722 187.275978 125.906769 188.743507 123.777564 189.652571 121.522062 190.56995 119.26656 190.926092 116.935554 190.924707 114.717118 190.917778 111.644803 190.284481 108.757815 189.466878 105.980651 188.226615 101.821083 186.534592 97.8427231 185.230583 94.0593004 183.912718 90.2827417 183.021668 86.7519133 183.03414 83.7537292 183.03414 83.1153796 183.071556 82.4976219 183.147773 81.8977106 183.273878 80.8832152 183.699309 79.4829644 184.479497 77.8383561 185.832007 74.9513685 188.223844 71.3834746 191.08407 67.5218026 195.373024 61.7025251 200.680517 55.1968501 205.04846 48.2134426 207.231045 44.7155612 209.183593 41.083146 210.627564 37.2763858 212.065992 33.4737439 212.997228 29.4706741 213 25.3124784 213 23.6637517 212.850337 21.9944332 212.530224 20.3264874 212.064606 17.8980132 211.22483 15.6727127 209.995654 13.7453087 209.078275 12.3025013 207.944716 11.03953 206.673966 10.0099338 204.767149 8.45867563 202.587335 7.44418021 200.392277 6.83740488 198.190291 6.22788395 195.956432 6.00137279 193.740588 6 190.0198 6.00411838 186.318412 6.63834962 182.784702 7.52380232 177.493838 8.85953174 172.579902 10.7937997 168.924245 12.3985969 165.27413 14.0047669 162.897537 15.2883302 162.799148 15.3418692L168.110798 24.980262"/>
      <path fill="#EAEDDB" d="M75 61.5006601C75 63.986651 72.9853308 66 70.4993399 66 68.0146692 66 66 63.986651 66 61.5006601 66 59.0146692 68.0146692 57 70.4993399 57 72.9853308 57 75 59.0146692 75 61.5006601M92 61.5006601C92 63.986651 89.9853308 66 87.4993399 66 85.0146692 66 83 63.986651 83 61.5006601 83 59.0146692 85.0146692 57 87.4993399 57 89.9853308 57 92 59.0146692 92 61.5006601M114 61.5006601C114 63.986651 111.984306 66 109.49868 66 107.015694 66 105 63.986651 105 61.5006601 105 59.0146692 107.015694 57 109.49868 57 111.984306 57 114 59.0146692 114 61.5006601M134 61.5006601C134 63.986651 131.985331 66 129.49934 66 127.014669 66 125 63.986651 125 61.5006601 125 59.0146692 127.014669 57 129.49934 57 131.985331 57 134 59.0146692 134 61.5006601M154 61.5006601C154 63.986651 151.985331 66 149.49934 66 147.014669 66 145 63.986651 145 61.5006601 145 59.0146692 147.014669 57 149.49934 57 151.985331 57 154 59.0146692 154 61.5006601"/>
      <polygon fill="#EB8E57" points="11 300 211 300 211 241 11 241"/>
      <polygon fill="#F3B58A" points="24 284 192 284 192 256 24 256"/>
      <path fill="#FFFFFF" d="M188,180 L187.995397,180 L188,180 M187.953975,179.998542 L187.94477,179.998542 L187.953975,179.998542 M187.940167,179.998542 L187.935565,179.998542 L187.940167,179.998542 M187.459972,179.963542 C187.45537,179.963542 187.452301,179.962084 187.449233,179.962084 C187.452301,179.962084 187.45537,179.963542 187.459972,179.963542 M187.384798,179.954792 L187.383264,179.954792 L187.384798,179.954792 M187.288145,179.943126 C187.283543,179.943126 187.27894,179.943126 187.275872,179.941667 C187.27894,179.943126 187.283543,179.943126 187.288145,179.943126 M184.923989,179.365632 C184.922455,179.364174 184.919386,179.364174 184.917852,179.362716 C184.919386,179.364174 184.922455,179.364174 184.923989,179.365632 M177.25007,168.614923 L177.25007,168.606174 L177.25007,168.614923 M177.245467,168.575549 C177.245467,168.574091 177.245467,168.574091 177.243933,168.572632 C177.245467,168.574091 177.245467,168.574091 177.245467,168.575549 M177.228591,168.457425 C177.228591,168.454509 177.228591,168.45305 177.227057,168.451592 C177.228591,168.45305 177.228591,168.454509 177.228591,168.457425 M177.220921,168.402009 C177.217852,168.383051 177.216318,168.365551 177.21325,168.346593 C177.216318,168.365551 177.217852,168.383051 177.220921,168.402009 M177.21325,168.339302 C177.211715,168.333468 177.211715,168.327635 177.210181,168.32326 C177.211715,168.327635 177.211715,168.333468 177.21325,168.339302 M177.197908,168.21972 C177.196374,168.216803 177.196374,168.212428 177.196374,168.209511 C177.196374,168.212428 177.196374,168.216803 177.197908,168.21972 M177.177964,168.057847 L177.177964,168.05493 L177.177964,168.057847 M177.084379,167.105566 C177.081311,167.077858 177.079777,167.05015 177.076709,167.020984 C177.079777,167.05015 177.081311,167.077858 177.084379,167.105566 M177.076709,167.020984 C177.072106,166.952443 177.067503,166.883902 177.062901,166.815361 C177.067503,166.883902 177.072106,166.952443 177.076709,167.020984 M177.061367,166.797861 C177.059833,166.778903 177.058298,166.758487 177.056764,166.739528 C177.058298,166.758487 177.059833,166.778903 177.061367,166.797861 M177.056764,166.719112 C177.053696,166.669529 177.049093,166.618488 177.047559,166.567447 C177.049093,166.618488 177.053696,166.669529 177.056764,166.719112 M177.038354,166.414324 C177.038354,166.408491 177.038354,166.402657 177.03682,166.398282 C177.038354,166.402657 177.038354,166.408491 177.038354,166.414324 M177.033752,166.326825 C177.032218,166.302034 177.030683,166.274326 177.030683,166.249534 C177.030683,166.274326 177.032218,166.302034 177.033752,166.326825 M177.029149,166.237868 C177.029149,166.214535 177.027615,166.191201 177.026081,166.167868 C177.027615,166.191201 177.029149,166.214535 177.029149,166.237868 M177.009205,165.653083 C177.007671,165.62975 177.007671,165.607875 177.006137,165.583084 C177.007671,165.607875 177.007671,165.62975 177.009205,165.653083 M177.001534,165.238921 C177,165.218504 177,165.19663 177,165.176213 C177,165.19663 177,165.218504 177.001534,165.238921 M177,164.674552 L177,164.670177 L177,164.674552 M177.087448,162.440412 C177.088982,162.403954 177.09205,162.367496 177.095119,162.331038 C177.09205,162.367496 177.088982,162.403954 177.087448,162.440412 M177.095119,162.323746 C177.095119,162.32083 177.096653,162.317913 177.096653,162.316455 C177.096653,162.317913 177.095119,162.32083 177.095119,162.323746 M177.115063,162.071458 C177.116597,162.049583 177.118131,162.029166 177.119665,162.007292 C177.118131,162.029166 177.116597,162.049583 177.115063,162.071458 M177.119665,162.007292 C177.119665,162.004375 177.121199,162.001458 177.121199,162 C177.121199,162.001458 177.119665,162.004375 177.119665,162.007292"/>
      <path fill="#66BD9C" d="M186.98908 180L186.98908 180 186.971003 180 186.966832 180C186.957098 180 186.944584 180 186.929288 179.998579L186.920945 179.998579 186.916773 179.998579 186.912602 179.998579C186.901478 179.998579 186.888963 179.997158 186.876449 179.997158 186.788846 179.992895 186.655357 179.98437 186.481544 179.964477 186.477372 179.964477 186.474591 179.963057 186.47181 179.963057 186.462076 179.963057 186.453733 179.961636 186.444 179.960215 186.434266 179.958794 186.424533 179.957373 186.413409 179.955952L186.412018 179.955952C186.384208 179.95311 186.355007 179.948847 186.325806 179.944585 186.321635 179.944585 186.317463 179.944585 186.314682 179.943164 185.805755 179.874961 185.047927 179.721503 184.18303 179.381907 184.181639 179.380486 184.178858 179.380486 184.177468 179.379065 181.631443 178.377329 178.145433 175.758604 177.227696 168.90701L177.227696 168.898484C177.226306 168.889959 177.224915 168.877171 177.223525 168.868645 177.223525 168.867225 177.223525 168.867225 177.222134 168.865804 177.217963 168.82886 177.2124 168.790496 177.208229 168.753552 177.208229 168.75071 177.208229 168.74929 177.206838 168.747869 177.205448 168.732239 177.204057 168.715188 177.201276 168.699558 177.198495 168.681086 177.197105 168.664035 177.194324 168.645564L177.194324 168.638459C177.192933 168.632775 177.192933 168.627092 177.191543 168.622829 177.191543 168.614304 177.190152 168.607199 177.188762 168.598674 177.185981 168.571677 177.1832 168.547521 177.180419 168.521945 177.179028 168.519103 177.179028 168.514841 177.179028 168.511999 177.173466 168.463688 177.167904 168.413956 177.162342 168.364225L177.162342 168.361383C177.12897 168.061572 177.099769 167.751816 177.077521 167.436375 177.07474 167.409378 177.073349 167.382381 177.070568 167.353963 177.066397 167.28718 177.062225 167.220398 177.058054 167.153615 177.056663 167.147932 177.056663 167.142248 177.056663 167.136565 177.055273 167.118093 177.053882 167.0982 177.052492 167.079728L177.052492 167.059836C177.049711 167.011525 177.045539 166.961793 177.044149 166.912062 177.041368 166.86233 177.038587 166.81402 177.035806 166.762867 177.035806 166.757183 177.035806 166.7515 177.034415 166.747237 177.034415 166.723082 177.033025 166.700347 177.031634 166.677613 177.030244 166.653458 177.028853 166.62646 177.028853 166.602305 177.027463 166.598042 177.027463 166.595201 177.027463 166.590938 177.027463 166.568203 177.026072 166.545469 177.024682 166.522734 177.017729 166.35791 177.012167 166.190243 177.009386 166.021156 177.007995 165.998421 177.007995 165.977108 177.006605 165.952952 177.005214 165.842122 177.002433 165.729871 177.002433 165.617619 177.001043 165.597727 177.001043 165.576413 177.001043 165.55652 176.999652 165.394537 176.999652 165.231134 177.001043 165.06773L177.001043 165.063467C177.005214 164.371487 177.030244 163.648248 177.080302 162.890906 177.081692 162.855384 177.084474 162.819861 177.087255 162.784338L177.087255 162.777234C177.087255 162.774392 177.088645 162.77155 177.088645 162.770129 177.094207 162.690559 177.099769 162.612409 177.105331 162.531418 177.106722 162.510104 177.108112 162.490212 177.109503 162.468898 177.109503 162.466056 177.110893 162.463214 177.110893 162.461793 177.122017 162.308336 177.134532 162.154878 177.148437 162 177.148437 162 187.990247 166.659141 187.999981 175.313862 188.002762 176.764604 187.699631 178.327597 186.99047 180 186.99047 180 186.99047 180 186.98908 180M170.577234 193C170.577234 193 163.993257 191.173289 164.000005 182.171938 164.001355 179.695572 164.502104 176.674746 165.777598 173 165.777598 173 173.005396 178.908025 172.999997 186.146634 172.998647 188.35006 172.327832 190.678584 170.577234 193M179.871324 193C175.381139 193 173 189.878509 173 189.878509 175.316102 185.325357 179.011247 184 182.531191 184 187.436815 184 192 186.576162 192 186.576162 187.024031 191.531063 182.950611 193 179.871324 193M153.40504 199C153.40504 199 149.004253 196.554958 149.000001 190.752464 148.998584 187.765764 150.162206 183.890083 153.691339 179 153.691339 179 157.998583 184.51995 158 190.38171 158 193.40011 156.860473 196.508097 153.40504 199"/>
      <path fill="#66BD9C" d="M161.695673,204 C155.166355,203.998591 153,198.644232 153,198.644232 C155.333403,195.952262 157.92198,195 160.419799,195 C166.480858,195 172,200.610737 172,200.610737 C167.740948,203.112537 164.356594,204 161.695673,204"/>
      <path fill="#FFFFFF" d="M110 300L211 300 211 299.723888 110 299.723888 110 300zM211 241.523801L167.379706 241.523801C168.44453 241.523801 169.510742 241.331605 170.496433 241L211 241 211 241.523801 211 241.523801zM147.429202 219L147.372045 219C147.247337 218.84127 147.122629 218.68254 147 218.525132L147.496752 218.525132C149.199013 218.525132 150.625877 217.019841 151 215 150.775526 217.255291 149.262406 219 147.429202 219M136 186C136.942633 184.983983 138.059984 183.932123 139.381643 182.849934 138.061393 183.932123 136.942633 184.983983 136 186M139.387279 182.866477L139.387279 182.865099C139.387279 182.865099 139.387279 182.865099 139.387279 182.866477M139.38587 182.86372L139.38587 182.862342 139.38587 182.86372M139.384461 182.858206C139.384461 182.856827 139.383052 182.856827 139.383052 182.855449 139.383052 182.856827 139.384461 182.856827 139.384461 182.858206M139.381643 182.852692L139.381643 182.852692 139.381643 182.851313C139.381643 182.851313 139.381643 182.851313 139.381643 182.852692M139.381643 182.851313C139.381643 182.851313 139.381643 182.851313 139.381643 182.849934L139.381643 182.851313M173.522142 39.6935837L173.522142 39.6908265C173.522142 39.6880693 173.522142 39.6880693 173.523551 39.6853121 173.58132 39.2758725 173.640499 38.8664329 173.698269 38.4611291 173.641908 38.8540257 173.585548 39.2469223 173.529187 39.6439546L173.522142 39.6908265 173.522142 39.6935837M177.925322.676884992L177.909823.581762661C177.925322.37635357 177.939412.184730324 177.953502 0L178 0C177.980274 0 177.953502.311560098 177.925322.676884992"/>
      <path fill="#66BD9C" d="M132.210907,204 C131.034687,202.218054 129.973446,200.321805 129.015289,198.342028 C128.86727,195.466882 129.756704,191.708089 133.32369,187.348476 C134.207837,186.268464 135.257184,185.150352 136.495519,184 L136.495519,184.001465 C136.495519,184.001465 136.495519,184.001465 136.495519,184.002931 C136.495519,184.004396 136.496841,184.004396 136.496841,184.005862 C136.496841,184.007327 136.498162,184.007327 136.498162,184.008792 C136.498162,184.010258 136.499484,184.011723 136.499484,184.013189 L136.499484,184.014654 C136.499484,184.014654 136.500805,184.014654 136.500805,184.01612 C136.500805,184.01612 136.500805,184.01612 136.500805,184.017585 C136.700366,184.572978 141.715821,198.830012 132.210907,204"/>
      <path fill="#66BD9C" d="M149,207 C148.476442,206.783546 147.904816,206.66476 147.304608,206.66476 L138.283302,206.66476 C138.180669,206.543335 138.127403,206.478663 138.127403,206.478663 L137.646717,206.481302 C136.322882,205.16674 135.109475,203.730752 134,202.201056 C135.597956,201.352398 137.13745,201 138.5912,201 C143.182401,201 146.925255,204.512099 149,207"/>
      <path fill="#EE9F37" d="M163.711639,92 C164.379098,89.3351839 165.018689,86.6564885 165.63041,83.980569 L110,83.980569 L110,75.2366412 L167.535246,75.2366412 C166.381475,80.8022207 165.110656,86.4149896 163.71582,91.9833449 L163.711639,92 M170.977049,56.9424011 C170.979836,56.925746 170.982623,56.9090909 170.98541,56.8924358 C170.982623,56.9090909 170.979836,56.925746 170.977049,56.9424011 M171.011885,56.7397641 C171.021639,56.6786954 171.031393,56.6190146 171.042541,56.5593338 C171.031393,56.6190146 171.021639,56.6786954 171.011885,56.7397641 M171.045328,56.5385149 C171.548361,53.5711312 172.019344,50.6523248 172.458279,47.7987509 L110,47.7987509 L110,39.9597502 L173.617623,39.9597502 L173.617623,39.962526 C173.256721,42.5065926 172.870738,45.1283831 172.458279,47.8001388 C172.017951,50.6551006 171.548361,53.5725191 171.045328,56.5385149 M173.619016,39.9541985 C173.681721,39.5072866 173.744426,39.0617627 173.805738,38.6204025 C173.800164,38.6537127 173.795984,38.6870229 173.791803,38.721721 C173.734672,39.129771 173.676148,39.5419847 173.619016,39.9541985 M174.115082,36.3622484 C174.117869,36.3414296 174.120656,36.3192228 174.123443,36.297016 C174.122049,36.3136711 174.119262,36.3303262 174.116475,36.3469813 C174.116475,36.352533 174.116475,36.3580847 174.115082,36.3622484 M177.19041,9.56974323 C177.19877,9.47120056 177.208525,9.3740458 177.216885,9.27689105 C177.208525,9.3740458 177.19877,9.47120056 177.19041,9.56974323 M177.347869,7.85426787 C177.381311,7.49063151 177.413361,7.13671062 177.444016,6.79111728 C177.434262,6.89382373 177.425902,6.99791811 177.416148,7.10478834 C177.393852,7.34906315 177.371557,7.60027759 177.347869,7.85426787 M177.809098,2.47605829 C177.82582,2.26648161 177.841148,2.06384455 177.857869,1.86814712 C177.855082,1.89590562 177.853689,1.9222762 177.850902,1.94864677 C177.836967,2.12074948 177.823033,2.29562804 177.809098,2.47605829 M177.859262,1.83761277 C177.86623,1.75156142 177.873197,1.66551006 177.880164,1.58223456 C177.873197,1.66412214 177.86623,1.75156142 177.859262,1.83761277 M177.952623,0.635669674 C177.969344,0.41221374 177.986066,0.198473282 178,0 C177.986066,0.185981957 177.972131,0.378903539 177.956803,0.585704372 C177.95541,0.602359473 177.954016,0.619014573 177.952623,0.635669674"/>
      <path fill="#F6BB47" d="M173.617623 39L110 39 110 0 178 0C177.986066.193706367 177.969344.402313223 177.952623.620402209 177.930328.906220694 177.906639 1.20829426 177.880164 1.53610503L177.880164 1.54423257C177.873197 1.62550797 177.86623 1.70949255 177.859262 1.79347713 177.859262 1.80295926 177.857869 1.81379598 177.857869 1.82327811 177.841148 2.01427529 177.82582 2.21204543 177.809098 2.41658852 177.795164 2.59133062 177.779836 2.7701365 177.764508 2.95571533 177.751967 3.0952381 177.74082 3.24017922 177.728279 3.38512035 177.697623 3.74950505 177.66418 4.12879025 177.630738 4.5270397 177.614016 4.7166823 177.595902 4.90767948 177.57918 5.10544962 177.542951 5.51589038 177.505328 5.94258622 177.464918 6.38282797 177.457951 6.46545796 177.450984 6.54673335 177.444016 6.62800875 177.413361 6.96530166 177.381311 7.3107221 177.347869 7.66562467 177.322787 7.94331562 177.294918 8.22642492 177.268443 8.51495259 177.253115 8.66531208 177.240574 8.80889861 177.225246 8.96332187 177.222459 8.99312285 177.219672 9.02427842 177.216885 9.0540794 177.208525 9.1489007 177.19877 9.243722 177.19041 9.33989788 175.06959 10.1106596 173.128525 10.9017401 171.45082 11.6237366 167.780492 13.2086069 165.390738 14.4751485 165.291803 14.5279775L170.501885 23.8042096 170.632869 24.0385537C170.722049 23.9911431 172.787131 22.9088257 175.888934 21.5650724 175.883361 21.6111285 175.87918 21.6558299 175.873607 21.7005314 175.837377 22.0161509 175.799754 22.3358341 175.762131 22.6555173 175.684098 23.3097843 175.604672 23.9721788 175.523852 24.6440554 175.479262 25.0084401 175.434672 25.3741794 175.388689 25.7426279 175.307869 26.4104408 175.221475 27.0877358 175.136475 27.7718037 175.090492 28.1388976 175.044508 28.5005731 174.997131 28.8717307 174.90377 29.597791 174.807623 30.3373971 174.710082 31.081067 174.662705 31.4319058 174.618115 31.7773262 174.570738 32.1335834 174.455082 32.9991664 174.335246 33.8810045 174.212623 34.7682609 174.183361 34.9890591 174.154098 35.2044389 174.123443 35.4252371 174.120656 35.4469105 174.117869 35.4685839 174.115082 35.4889028 174.013361 36.2163176 173.910246 36.95186 173.805738 37.6928207 173.744426 38.1235803 173.681721 38.5584037 173.619016 38.9945816 173.617623 38.9972908 173.617623 38.9972908 173.617623 39M123.319139 166C123.204794 164.873505 123.108359 163.774859 123.025699 162.706847L110 162.706847 110 83 165 83C164.395211 85.6846511 163.762869 88.3720872 163.102973 91.0455987L163.043734 91.2837083C162.740651 92.5062828 162.432057 93.7274649 162.117952 94.9444696 162.066979 95.1380207 162.017383 95.3287869 161.96641 95.522338 161.678481 96.6279464 161.386419 97.7307699 161.087468 98.8308085 161.014453 99.102337 160.94006 99.372473 160.865666 99.6426091 160.587381 100.6591 160.304962 101.674199 160.017033 102.685121 159.92473 103.012348 159.829672 103.338182 159.735992 103.665408 159.461839 104.617847 159.183553 105.5675 158.899757 106.514369 158.793678 106.87223 158.684843 107.231483 158.576009 107.587951 158.300478 108.498616 158.020815 109.403711 157.737019 110.306021 157.618541 110.684769 157.498685 111.063516 157.377452 111.440871 157.099166 112.31394 156.816747 113.181438 156.531573 114.043367 156.436515 114.326036 156.344213 114.608704 156.249155 114.889979 156.105879 114.785545 155.990156 114.699213 155.903364 114.63516L155.747689 114.516802 155.725647 114.500092 155.720136 114.495915 154.910077 115.55975 148.95862 123.292046C149.066077 123.375593 150.301831 124.344741 152.33249 125.653648 152.274629 125.799856 152.216767 125.947456 152.158906 126.093663 151.840668 126.888755 151.518298 127.672706 151.191794 128.455265 151.04163 128.815911 150.894221 129.180734 150.74268 129.538594 150.398267 130.35318 150.046965 131.152449 149.692909 131.950325 149.555144 132.263627 149.418756 132.581106 149.279613 132.891623 148.882849 133.773047 148.47782 134.637761 148.068657 135.498297 147.966711 135.712735 147.868898 135.93135 147.766951 136.144396 146.736468 138.287382 145.671543 140.360746 144.572176 142.351955 144.448188 142.574748 144.320066 142.789186 144.196077 143.010586 143.773138 143.762511 143.348821 144.513044 142.914861 145.239905 142.719235 145.571309 142.51672 145.887396 142.318338 146.21323 141.949127 146.817555 141.581294 147.420488 141.203817 148.006711 140.975127 148.364571 140.739549 148.707115 140.506725 149.056621 140.154047 149.588538 139.801368 150.121848 139.440423 150.637056 139.188313 150.999094 138.930692 151.347208 138.674448 151.700891 138.325902 152.181287 137.977356 152.661684 137.624678 153.126764 137.35328 153.480447 137.079127 153.822991 136.803597 154.169712 136.455051 154.608335 136.106505 155.045565 135.752448 155.467479 135.467275 155.807237 135.177968 156.137249 134.888661 156.467261 134.535982 156.86968 134.180548 157.269314 133.823736 157.655024 133.526163 157.975288 133.225835 158.285805 132.924129 158.59493 132.564562 158.96393 132.203617 159.327361 131.837162 159.681044 131.529945 159.977637 131.218596 160.26866 130.907246 160.55272 130.538036 160.889694 130.167447 161.216921 129.792726 161.535793 129.475866 161.807321 129.156251 162.07328 128.83388 162.332276 128.455026 162.637224 128.072039 162.929639 127.687674 163.216485 127.362548 163.458772 127.034667 163.698274 126.705408 163.928029 126.314155 164.20095 125.918769 164.457161 125.522005 164.710588 125.188613 164.923633 124.856599 165.136679 124.519074 165.335799 124.12231 165.568339 123.721414 165.785562 123.319139 166M166.19191 74L110 74 110 65.6932571C110.200054 65.7182457 110.402829 65.7313976 110.609687 65.7313976 113.172278 65.7313976 115.250385 63.7257322 115.250385 61.2492286 115.250385 58.772725 113.172278 56.7657443 110.609687 56.7657443 110.402829 56.7657443 110.200054 56.7788963 110 56.8038849L110 48 171 48C170.571314 50.7040316 170.111327 53.4698771 169.620039 56.2817543 169.618678 56.2883302 169.618678 56.2949062 169.617317 56.3014821 169.60643 56.3580353 169.596903 56.4145885 169.587377 56.4724569 169.579212 56.5198037 169.569685 56.5684658 169.56152 56.6171278 169.558798 56.6329101 169.556076 56.6486924 169.553354 56.6644747 168.568057 62.2777075 167.458916 68.0711215 166.208241 73.923719L166.19191 74M150.159048 56.7657443C147.597818 56.7657443 145.521072 58.772725 145.521072 61.2492286 145.521072 63.7257322 147.597818 65.7313976 150.159048 65.7313976 152.721638 65.7313976 154.798385 63.7257322 154.798385 61.2492286 154.798385 58.772725 152.721638 56.7657443 150.159048 56.7657443M130.385048 56.7657443C127.823818 56.7657443 125.747072 58.772725 125.747072 61.2492286 125.747072 63.7257322 127.823818 65.7313976 130.385048 65.7313976 132.947638 65.7313976 135.024385 63.7257322 135.024385 61.2492286 135.024385 58.772725 132.947638 56.7657443 130.385048 56.7657443"/>
      <path fill="#F6BB47" d="M111.475084 206L110 206 110 162 122.576125 162C122.655931 163.054625 122.749038 164.1395 122.859437 165.251875 122.850126 165.257375 122.842145 165.2615 122.832835 165.267L122.822194 165.2725C123.754596 174.898875 125.967888 186.382875 130.971735 195.977625 130.970405 195.961125 130.970405 195.94325 130.969075 195.925375 131.9334 197.783 133.001473 199.56225 134.185264 201.23425 134.175954 201.23975 134.167973 201.243875 134.158662 201.248L134.237138 201.364875C134.247779 201.359375 134.25709 201.35525 134.266401 201.34975 135.402309 202.943375 136.644625 204.439375 138 205.808875L111.475084 206M165 232L110 232 110 217.998483 148.65555 217.998483C148.818415 218.165101 148.98404 218.333119 149.149665 218.501138L149.073753 218.501138C153.915531 223.380666 159.850435 228.828656 165 232M139.73111 208.197421L111.530653 208.197421 139.054807 208.0028 139.565485 208C139.565485 208 139.622073 208.068607 139.73111 208.197421"/>
      <path fill="#2FB4AD" d="M149.309371 217L110 217 110 208 149.309371 208C149.946933 208 150.554134 208.115714 151.110275 208.326571 151.198595 208.424286 151.285535 208.522 151.369715 208.617143 152.923598 209.351286 154 210.838857 154 212.574571L154 213.007857C154 213.199429 153.98758 213.387143 153.96136 213.573571 153.464559 215.536857 151.569816 217 149.309371 217M166.99108 241L110 241 110 230 164.947559 230C165.221959 230.166375 165.493601 230.325875 165.763864 230.4785L166.99108 230.4785C170.863015 230.4785 174 232.564375 174 235.137L174 235.809375C174 238.383375 170.863015 240.467875 166.99108 240.467875L170.086698 240.467875C169.107683 240.80475 168.048692 241 166.99108 241"/>
      <path fill="#F6BB47" d="M171.895507,133 C163.470861,133.001384 155.089504,128.529728 150.612558,125.691175 C150.546926,125.851717 150.484086,126.012259 150.419851,126.174186 C148.361517,124.87324 147.108921,123.909986 147,123.826947 L153.032566,116.141678 L153.853666,115.084314 L153.859251,115.088466 L153.881594,115.105074 L154.03939,115.222712 C154.127365,115.286376 154.244665,115.372183 154.389894,115.475982 C154.35219,115.5867 154.315883,115.696035 154.278179,115.806754 L154.220926,115.972832 C156.583681,117.615622 164.768142,122.931509 171.704197,122.931509 C174.156323,122.931509 176.453446,122.265812 178.279973,120.538599 C182.088031,116.93747 180.86895,112.254065 177.180985,102.425003 C174.693948,95.7984828 171.875957,88.2875962 172.85206,80.652151 C173.82537,73.0416175 179.77834,65.2068784 186.669709,56.1362407 C195.078995,45.0685126 204.609611,32.5240726 202.565242,21.8826119 C201.934057,18.6081034 200.430104,17.5202912 199.190077,16.9390175 C197.804821,16.2899285 196.064872,16.0075955 194.100099,16.0075955 C188.128976,16.0075955 180.077175,18.6136393 173.613113,21.4480406 C173.589374,21.6528704 173.565634,21.8632361 173.540499,22.0708338 C170.432051,23.443747 168.362546,24.549551 168.273175,24.5979905 L168.141911,24.358561 L162.920669,14.8810318 C163.019815,14.8270563 165.414688,13.5330304 169.092878,11.9137679 C170.774176,11.1761039 172.719399,10.3678567 174.844762,9.5803692 C174.828005,9.75613529 174.811248,9.93466936 174.793094,10.1132034 C180.553357,7.97079464 187.617883,6 194.11546,6 C197.490625,6 200.712183,6.53145024 203.520398,7.84623599 C206.866238,9.41290701 211.144892,12.7939824 212.530148,20.0017763 C215.416563,35.0152456 204.450419,49.4488251 194.773177,62.1842551 C191.276523,66.7873892 187.708651,71.4874023 185.400356,75.577078 C185.549774,75.6255175 185.713156,75.6794929 185.88771,75.7403882 C185.461799,76.4905081 185.08616,77.2074123 184.767775,77.8869489 C184.716107,77.9962838 184.665836,78.1042346 184.618357,78.2121854 C184.570879,77.9160126 184.528986,77.6129199 184.488489,77.3042913 C183.657615,78.9941369 183.092062,80.553888 182.917509,81.9157293 C182.254206,87.1001371 184.509436,93.108016 186.689259,98.919369 C186.844262,99.3304126 186.999266,99.746992 187.155666,100.164956 C187.296705,100.079148 187.447519,99.9905734 187.605315,99.9006144 C188.003297,100.966283 188.401279,102.047175 188.781107,103.140523 C188.554886,103.015965 188.325872,102.88587 188.095461,102.751623 C189.588242,106.999073 190.858991,111.546848 190.690023,115.970064 C190.857595,115.914705 191.044716,115.856577 191.249991,115.795682 C191.226251,116.476603 191.167602,117.165827 191.068455,117.85782 C190.910659,117.690358 190.752863,117.518743 190.59367,117.342977 C190.185913,121.042369 188.662411,124.618587 185.284453,127.812824 C181.258553,131.620167 176.572143,133 171.895507,133"/>
      <path fill="#DFE6D0" d="M110.464489 66C110.306895 66 110.152411 65.9867977 110 65.9617134L110 57.0382866C110.152411 57.0132023 110.306895 57 110.464489 57 112.416796 57 114 59.0146692 114 61.5006601 114 63.986651 112.416796 66 110.464489 66M129.49934 66C127.014669 66 125 63.986651 125 61.5006601 125 59.0146692 127.014669 57 129.49934 57 131.985331 57 134 59.0146692 134 61.5006601 134 63.986651 131.985331 66 129.49934 66M149.49934 66C147.014669 66 145 63.986651 145 61.5006601 145 59.0146692 147.014669 57 149.49934 57 151.985331 57 154 59.0146692 154 61.5006601 154 63.986651 151.985331 66 149.49934 66"/>
      <polyline fill="#E67746" points="211 300 110 300 110 284.907 196.004 284.907 196.004 256.093 110 256.093 110 241 211 241 211 300"/>
      <polyline fill="#EE9F73" points="195 284 110 284 110 272 175.791 272 175.791 269.333 110 269.333 110 256 195 256 195 284"/>
    </g>
  </g>
</svg>
