<svg xmlns="http://www.w3.org/2000/svg" width="64" height="64" viewBox="0 0 64 64">
  <defs>
    <linearGradient id="a" x1="50.041%" x2="50.041%" y1="96.372%" y2="2.205%">
      <stop stop-color="#FFD06B" offset="0%"/>
      <stop stop-color="#F39A6C" offset="24%"/>
      <stop stop-color="#A46E63" offset="52%"/>
      <stop stop-color="#725269" offset="73%"/>
      <stop stop-color="#1A2040" offset="100%"/>
    </linearGradient>
  </defs>
  <g fill="none" fill-rule="evenodd">
    <circle cx="32" cy="32" r="32" fill="url(#a)"/>
    <g transform="translate(10.338 10.338)">
      <path fill="#E87E04" d="M21.7230769,41.5474462 C21.0990769,41.5474462 20.5538462,41.0416012 20.5538462,40.4176012 L20.5538462,1.1616 C20.5538462,0.537723077 21.0990769,0.0317538462 21.7230769,0.0317538462 C22.3470769,0.0317538462 22.8923077,0.5376 22.8923077,1.1616 L22.8923077,40.4176012 C22.8923077,41.0416012 22.3470769,41.5474462 21.7230769,41.5474462 Z"/>
      <path fill="#E87E04" d="M12.5193846 43.4198166C12.3731692 43.4198166 12.2244923 43.391264 12.0811077 43.3307089 11.5060923 43.0883717 11.2364308 42.4258486 11.4786462 41.8509538L19.0478769 23.8882462C19.2902154 23.3129846 19.9526154 23.0432 20.5277538 23.2856615 21.1027692 23.528 21.3724308 24.1906462 21.1302154 24.7654154L13.5609846 42.7282449C13.3790769 43.1602462 12.9602462 43.4198166 12.5193846 43.4198166zM30.9020308 43.4198166C30.4610462 43.4198166 30.0423385 43.1602462 29.8604308 42.7283692L22.2909538 24.7655385C22.0487385 24.1906462 22.3184 23.528 22.8934154 23.2857846 23.4683077 23.0434462 24.1309538 23.3131077 24.3732923 23.8883692L31.9425231 41.8510745C32.1848615 42.4260898 31.9150769 43.0886117 31.3400615 43.3308295 31.1970462 43.3911397 31.0482462 43.4198166 30.9020308 43.4198166z"/>
      <path fill="#D55400" d="M21.7230769,39.0620308 C21.0990769,39.0620308 20.5538462,38.5561846 20.5538462,37.9321846 L20.5538462,8.54621538 C20.5538462,7.92233846 21.0990769,7.41636923 21.7230769,7.41636923 C22.3470769,7.41636923 22.8923077,7.92221538 22.8923077,8.54621538 L22.8923077,37.9321846 C22.8923077,38.5561846 22.3470769,39.0620308 21.7230769,39.0620308 Z"/>
      <path fill="#D55400" d="M14.3318154 39.1187692C14.1856 39.1187692 14.0369231 39.0902154 13.8935385 39.0296615 13.3185231 38.7874462 13.0488615 38.1248 13.2910769 37.5500308L19.0478769 23.8882462C19.2902154 23.3131077 19.9527385 23.0432 20.5277538 23.2856615 21.1027692 23.528 21.3724308 24.1906462 21.1302154 24.7654154L15.3732923 38.4272C15.1915077 38.8590769 14.7725538 39.1187692 14.3318154 39.1187692zM29.0896 39.1186462C28.6487385 39.1186462 28.2299077 38.8590769 28.048 38.4272L22.2909538 24.7655385C22.0487385 24.1906462 22.3184 23.528 22.8934154 23.2857846 23.4684308 23.0430769 24.1309538 23.3131077 24.3732923 23.8883692L30.1300923 37.5500308C30.3724308 38.1249231 30.1026462 38.7875692 29.5276308 39.0296615 29.3844923 39.0900923 29.2358154 39.1186462 29.0896 39.1186462z"/>
      <polygon fill="#ECF0F1" points="1.846 34.462 41.477 34.462 41.477 4.308 1.846 4.308"/>
      <path fill="#2C97DE" d="M43.3230769,4.61969231 C43.3230769,5.39901538 42.6913231,6.03076923 41.912,6.03076923 L1.41107692,6.03076923 C0.631753846,6.03076923 0,5.39901538 0,4.61969231 L0,4.61107692 C0,3.83175385 0.631753846,3.2 1.41107692,3.2 L41.912,3.2 C42.6913231,3.2 43.3230769,3.83175385 43.3230769,4.61107692 L43.3230769,4.61969231 Z"/>
      <polygon fill="#BDC3C7" points="26.446 16.677 16.977 25.046 7.381 18.646 1.846 20.624 1.846 34.462 41.477 34.462 41.477 17.887 35.908 21.108"/>
      <polygon fill="#95A5A6" points="26.462 15.569 16.985 23.938 7.385 17.538 1.846 19.516 1.846 21.485 7.381 19.508 16.977 25.908 26.446 17.538 35.908 21.969 41.477 18.748 41.477 16.779 35.908 20"/>
      <path fill="#9C56B8" d="M9.84615385,18.5230769 C9.84615385,19.8825477 8.74408615,20.9846154 7.38461538,20.9846154 C6.02514462,20.9846154 4.92307692,19.8825477 4.92307692,18.5230769 C4.92307692,17.1636062 6.02514462,16.0615385 7.38461538,16.0615385 C8.74408615,16.0615385 9.84615385,17.1636062 9.84615385,18.5230769 Z"/>
      <path fill="#E94B35" d="M19.4461538,24.9230769 C19.4461538,26.2825477 18.3440862,27.3846154 16.9846154,27.3846154 C15.6251446,27.3846154 14.5230769,26.2825477 14.5230769,24.9230769 C14.5230769,23.5636062 15.6251446,22.4615385 16.9846154,22.4615385 C18.3440862,22.4615385 19.4461538,23.5636062 19.4461538,24.9230769 Z"/>
      <path fill="#1ECA6B" d="M28.9230769,16.5538462 C28.9230769,17.9133169 27.8210092,19.0153846 26.4615385,19.0153846 C25.1020677,19.0153846 24,17.9133169 24,16.5538462 C24,15.1943754 25.1020677,14.0923077 26.4615385,14.0923077 C27.8210092,14.0923077 28.9230769,15.1943754 28.9230769,16.5538462 Z"/>
      <path fill="#F2C500" d="M38.4,20.9846154 C38.4,22.3440862 37.2979323,23.4461538 35.9384615,23.4461538 C34.5789908,23.4461538 33.4769231,22.3440862 33.4769231,20.9846154 C33.4769231,19.6251446 34.5789908,18.5230769 35.9384615,18.5230769 C37.2979323,18.5230769 38.4,19.6251446 38.4,20.9846154 Z"/>
      <path fill="#227FBB" d="M43.3230769,34.5273846 C43.3230769,35.3067077 42.6913231,35.9384615 41.912,35.9384615 L1.41107692,35.9384615 C0.631753846,35.9384615 0,35.3067077 0,34.5273846 L0,34.5187692 C0,33.7394462 0.631753846,33.1076923 1.41107692,33.1076923 L41.912,33.1076923 C42.6913231,33.1076923 43.3230769,33.7394462 43.3230769,34.5187692 L43.3230769,34.5273846 Z"/>
    </g>
  </g>
</svg>
