<svg xmlns="http://www.w3.org/2000/svg" width="64" height="64" viewBox="0 0 64 64">
  <defs>
    <linearGradient id="a" x1="50.041%" x2="50.041%" y1="96.372%" y2="2.205%">
      <stop stop-color="#FFD06B" offset="0%"/>
      <stop stop-color="#F39A6C" offset="24%"/>
      <stop stop-color="#A46E63" offset="52%"/>
      <stop stop-color="#725269" offset="73%"/>
      <stop stop-color="#1A2040" offset="100%"/>
    </linearGradient>
  </defs>
  <g fill="none" fill-rule="evenodd">
    <path fill="url(#a)" d="M32.000125,0 C49.673125,0 64,14.326875 64,32.000125 C64,49.673125 49.673125,64 32.000125,64 C14.327125,64 0,49.673125 0,32.000125 C0,14.326875 14.326875,0 32.000125,0 Z"/>
    <polygon fill="#FFFFFF" points="37.694 36.261 30.424 36.261 38.919 55.614 40.553 51.057 46.189 55.614 37.695 36.261"/>
    <polygon fill="#FFFFFF" points="27.702 36.261 34.973 36.261 26.478 55.614 24.844 51.057 19.208 55.614 27.702 36.261"/>
    <path fill="#FF5B61" d="M37.15925,9.74 L37.464125,9.849125 C38.03375,8.793875 39.201,8.13075 40.46875,8.264125 C42.144125,8.439375 43.359375,9.942 43.18325,11.616 C43.127,12.152 42.934625,12.641 42.6445,13.052125 C42.723,13.12575 42.801,13.199875 42.877625,13.274875 C43.827625,12.539875 45.166,12.407875 46.270875,13.046125 C47.7302375,13.8875 48.229375,15.75475 47.387375,17.213 C47.118625,17.67825 46.74575,18.045875 46.315,18.303625 C46.3568625,18.402875 46.398,18.502625 46.437875,18.602875 C47.60375,18.3195 48.8775,18.743375 49.626625,19.77475 C50.617375,21.137125 50.314,23.045875 48.95225,24.035625 C48.5165,24.352 48.025375,24.536125 47.525375,24.59625 L47.51625,24.91875 C48.69775,25.133125 49.6905,26.039125 49.955375,27.2865 C50.30625,28.934375 49.252875,30.554375 47.606375,30.90525 C47.0805,31.016625 46.558,30.9855 46.077875,30.83775 L45.937375,31.129125 C46.927875,31.80625 47.465625,33.036375 47.20025,34.282875 C46.85075,35.931 45.229625,36.98275 43.582875,36.63325 C43.055625,36.521125 42.589875,36.278875 42.210875,35.94725 C42.129875,36.01775 42.048,36.0875 41.96525,36.156125 C42.597,37.17775 42.588125,38.521875 41.8385,39.55375 C40.8485,40.917125 38.94,41.21875 37.577375,40.229 C37.14275,39.913125 36.816125,39.503875 36.6045,39.04825 C36.50175,39.079625 36.398375,39.11025 36.294125,39.13925 C36.45375,40.32825 35.8995,41.55075 34.795375,42.188 C33.336625,43.0305 31.4705,42.53 30.6285,41.0715 C30.35925,40.6057375 30.22775,40.098375 30.220375,39.595875 C30.112875,39.582625 30.0065,39.568 29.899875,39.552875 C29.56225,40.704875 28.55825,41.5965 27.290375,41.729625 C25.615,41.906 24.114,40.68975 23.937625,39.014875 C23.881375,38.479875 23.967375,37.962375 24.16475,37.499875 C24.073,37.4445 23.9815,37.38775 23.8905,37.330375 C23.114125,38.246 21.832875,38.65275 20.620125,38.258375 C19.018,37.738 18.141625,36.016625 18.661625,34.415 C18.828125,33.902625 19.1175,33.464375 19.4865,33.122375 C19.4245,33.0345 19.363875,32.94575 19.304,32.856375 C18.222,33.377 16.886375,33.228125 15.938875,32.374375 C14.6865,31.247375 14.585875,29.318125 15.712875,28.066375 C16.072875,27.66675 16.514875,27.3845 16.99,27.22225 C16.970125,27.11675 16.950625,27.01025 16.932625,26.90425 C15.732625,26.93925 14.57375,26.260125 14.055,25.095125 C13.369625,23.556375 14.062125,21.752875 15.600875,21.067625 C16.092,20.849125 16.610125,20.77075 17.110375,20.8155 L17.18675,20.50125 C16.076625,20.044875 15.295,18.953125 15.295,17.67875 C15.295,15.99425 16.660875,14.628375 18.34575,14.628375 C18.88425,14.628375 19.39025,14.768375 19.829625,15.013375 C19.894625,14.927625 19.9605,14.8425 20.02725,14.757875 C19.197625,13.8905 18.925875,12.57375 19.444875,11.407875 C20.12975,9.868875 21.934125,9.177125 23.472,9.862 C23.963125,10.080875 24.3685,10.41375 24.66975,10.815625 C24.764,10.7635 24.858875,10.71225 24.954125,10.662125 C24.550375,9.532125 24.838125,8.22025 25.786125,7.367 C27.037125,6.23975 28.967125,6.342 30.09325,7.593 C30.4535,7.993125 30.68825,8.462875 30.800125,8.953125 C30.907,8.944 31.0145,8.93575 31.122,8.928875 C31.211875,7.731375 32.008375,6.649375 33.222125,6.254625 C34.824,5.73375 36.545375,6.612125 37.065125,8.213125 C37.231625,8.724125 37.255,9.24725 37.15825,9.73975 L37.15925,9.74 Z"/>
    <path fill="#FFFFFF" d="M32.000125,10.343 C39.736625,10.343 46.008375,16.61475 46.008375,24.35125 C46.008375,32.088125 39.736625,38.35975 32.000125,38.35975 C24.26325,38.35975 17.991625,32.088 17.991625,24.35125 C17.991625,16.614625 24.26325,10.343 32.000125,10.343 Z"/>
    <path fill="#FBB429" d="M32.000125,11.89375 C38.880375,11.89375 44.4575,17.470875 44.4575,24.351125 C44.4575,31.231375 38.880375,36.808875 32.000125,36.808875 C25.119625,36.808875 19.542375,31.23175 19.542375,24.351125 C19.5425,17.471 25.119625,11.89375 32.000125,11.89375 Z"/>
    <polygon fill="#FFFFFF" points="32 15.024 34.077 21.811 40.838 21.797 35.361 25.979 37.462 32.757 32 28.554 26.538 32.757 28.64 25.979 23.163 21.797 29.924 21.811 32 15.024"/>
  </g>
</svg>
