<svg xmlns="http://www.w3.org/2000/svg" width="64" height="64" viewBox="0 0 64 64">
  <defs>
    <linearGradient id="a" x1="50.041%" x2="50.041%" y1="96.372%" y2="2.205%">
      <stop stop-color="#FFD06B" offset="0%"/>
      <stop stop-color="#F39A6C" offset="24%"/>
      <stop stop-color="#A46E63" offset="52%"/>
      <stop stop-color="#725269" offset="73%"/>
      <stop stop-color="#1A2040" offset="100%"/>
    </linearGradient>
  </defs>
  <g fill="none" fill-rule="evenodd">
    <circle cx="32" cy="32" r="32" fill="url(#a)"/>
    <g transform="translate(9.788 15.059)">
      <path fill="#E87E04" d="M27.795716,44.5854016 C27.8767136,44.9105273 28.219907,45.1764706 28.5584228,45.1764706 L34.2208687,45.1764706 C34.5593845,45.1764706 34.770126,44.9104043 34.6891284,44.5854016 L28.8287431,21.0484604 C28.7477455,20.723336 28.404552,20.4572697 28.0660362,20.4572697 L22.4035903,20.4572697 C22.0650745,20.4572697 21.8543331,20.723336 21.9353307,21.0483387 L27.795716,44.5854016 Z"/>
      <path fill="#E87E04" d="M17.5038513,44.5854016 C17.4228537,44.9104043 17.0796602,45.1764706 16.7411444,45.1764706 L11.0786985,45.1764706 C10.7401827,45.1764706 10.5294413,44.9104043 10.6104389,44.5854016 L16.4708242,21.0484604 C16.5518218,20.723336 16.8950152,20.4573915 17.233531,20.4573915 L22.8959769,20.4573915 C23.2344927,20.4573915 23.4452342,20.7234577 23.3642366,21.0484604 L17.5038513,44.5854016 Z"/>
      <polygon fill="#D55400" points="21.788 20.457 16.618 20.457 13.465 33.121 20.358 33.121 22.65 23.918"/>
      <polygon fill="#D55400" points="28.682 20.457 23.511 20.457 22.65 23.918 24.941 33.121 31.835 33.121"/>
      <path fill="#D55400" d="M14.525774 42.7412043C14.4995544 42.7412043 14.4728424 42.7384024 14.4461305 42.7325563 14.2469601 42.6893269 14.1209091 42.4944994 14.1647315 42.297474L15.395698 36.7569646C15.4395204 36.5598199 15.6359827 36.4347626 15.8356455 36.4785997 16.0348158 36.5218278 16.1608668 36.716659 16.1170444 36.9136819L14.8860779 42.45419C14.8481641 42.6247927 14.6954012 42.7412043 14.525774 42.7412043zM16.249004 43.958899C16.2187222 43.958899 16.1879481 43.9552459 16.157297 43.9473309 15.9597269 43.8974042 15.8404462 43.6984329 15.8909159 43.5029953L20.076202 27.3076544C20.1267947 27.1123361 20.3275653 26.9939762 20.5255047 27.044267 20.7230749 27.0941925 20.8423555 27.2931638 20.7918859 27.4886038L16.6065998 43.6839435C16.5638852 43.8490617 16.4137073 43.958899 16.249004 43.958899zM13.0484911 40.8741119C13.0210406 40.8741119 12.9930976 40.8710689 12.9651547 40.8646139 12.7664767 40.8193145 12.6425184 40.6231439 12.6883103 40.4264874L14.4116634 33.0390994C14.4575785 32.8426853 14.655641 32.7198199 14.8545652 32.7653617 15.0532431 32.8106599 15.1772015 33.0068305 15.1314095 33.2034882L13.4080564 40.5908774C13.3686655 40.7597704 13.2166411 40.8741119 13.0484911 40.8741119zM30.7737932 42.7412043C30.6041661 42.7412043 30.4514031 42.6247927 30.4134893 42.4541937L29.1825228 36.9136819C29.1388235 36.716659 29.2647514 36.5218278 29.4639218 36.4785997 29.662846 36.4347626 29.8600468 36.5598199 29.9038692 36.7569646L31.1348357 42.2974788C31.178535 42.494503 31.0526071 42.6893305 30.8534368 42.7325599 30.8267248 42.7384024 30.8000128 42.7412043 30.7737932 42.7412043zM29.0505632 43.958899C28.8858599 43.958899 28.735682 43.8490617 28.6929675 43.6839435L24.5076814 27.4886038C24.4572117 27.2931638 24.5764924 27.0941925 24.7740625 27.044267 24.9718788 26.9936109 25.1727726 27.1123361 25.2233653 27.3076544L29.4086514 43.5029953C29.459121 43.6984365 29.3398404 43.8974078 29.1422702 43.9473309 29.1116192 43.9552459 29.080845 43.958899 29.0505632 43.958899zM32.2510761 40.8741119C32.0829261 40.8741119 31.9309017 40.7598934 31.8915108 40.5908774L30.1681577 33.2034882C30.1222427 33.0069523 30.246201 32.8106599 30.4450021 32.7653617 30.6441725 32.7198199 30.8421119 32.8425635 30.8879038 33.0390994L32.6112569 40.4264874C32.657172 40.6230257 32.5332137 40.8193181 32.3344126 40.8646139 32.3064696 40.8710689 32.2785267 40.8741119 32.2510761 40.8741119z"/>
      <polygon fill="#33495F" points=".985 31.782 44.315 31.782 44.315 0 .985 0"/>
      <path fill="#2B3E51" d="M45.1764706.608847313C45.1764706.943713334 44.8995031 1.21769463 44.5609873 1.21769463L.615483251 1.21769463C.276967463 1.21769463 0 .943713334 0 .608847313L0 .608847313C0 .273981291.276967463 0 .615483251 0L44.5609873 0C44.8995031 0 45.1764706.273981291 45.1764706.608847313L45.1764706.608847313zM45.1764706 31.1729824C45.1764706 31.5078484 44.8995031 31.7818297 44.5609873 31.7818297L.615483251 31.7818297C.276967463 31.7818297 0 31.5078484 0 31.1729824L0 31.1729824C0 30.8381164.276967463 30.5641351.615483251 30.5641351L44.5609873 30.5641351C44.8995031 30.5641351 45.1764706 30.8381164 45.1764706 31.1729824L45.1764706 31.1729824z"/>
      <path fill="#ECF0F1" d="M8.37057221 8.97039099C8.37057221 9.77740593 7.70922314 10.4316245 6.89341241 10.4316245 6.07760167 10.4316245 5.4162526 9.77740593 5.4162526 8.97039099 5.4162526 8.16337606 6.07760167 7.50915744 6.89341241 7.50915744 7.70922314 7.50915744 8.37057221 8.16337606 8.37057221 8.97039099zM10.9556019 25.1657295C10.9556019 25.9727444 10.2942528 26.6269631 9.47844206 26.6269631 8.66263132 26.6269631 8.00128226 25.9727444 8.00128226 25.1657295 8.00128226 24.3587146 8.66263132 23.704496 9.47844206 23.704496 10.2942528 23.704496 10.9556019 24.3587146 10.9556019 25.1657295zM12.4327617 15.9112504C12.4327617 16.7182653 11.7714126 17.3724839 10.9556019 17.3724839 10.1397911 17.3724839 9.47844206 16.7182653 9.47844206 15.9112504 9.47844206 15.1042354 10.1397911 14.4500168 10.9556019 14.4500168 11.7714126 14.4500168 12.4327617 15.1042354 12.4327617 15.9112504zM6.56523674 23.9076074C6.49950313 23.9076074 6.43401571 23.8816705 6.38551563 23.8305274 3.18081744 20.4461887 2.89744895 17.2438954 3.22390127 15.1536008 3.57817343 12.8857663 4.6816118 11.4398757 4.72838852 11.379478 4.81123257 11.2725645 4.96571887 11.252716 5.07355153 11.3341798 5.1813842 11.4160089 5.20194134 11.5687078 5.11946658 11.6754996 5.10666453 11.6920603 4.03707774 13.1009329 3.70705562 15.2502857 3.26538607 18.1275763 4.28733323 20.9023371 6.74471165 23.4976096 6.83764962 23.5957558 6.83260266 23.7497942 6.73338676 23.8418519 6.68599455 23.8858107 6.6255541 23.9076074 6.56523674 23.9076074z"/>
      <path fill="#ECF0F1" d="M6.89341241 24.313465C6.87716365 24.313465 6.86091489 24.311882 6.84466613 24.3085943L4.50582978 23.8414866C4.37251611 23.8149409 4.28634845 23.6864741 4.31330662 23.5547195 4.34014169 23.422965 4.46951627 23.3371175 4.60332233 23.3642721L6.64721911 23.7723215 6.64721911 21.6749643C6.64721911 21.5405308 6.7575137 21.4314254 6.89341241 21.4314254 7.02931111 21.4314254 7.13960571 21.5405308 7.13960571 21.6749643L7.13960571 24.0699261C7.13960571 24.1429878 7.10649271 24.2121528 7.04937586 24.2584252 7.00493797 24.2943472 6.94979067 24.313465 6.89341241 24.313465zM22.8959769 12.5424982C22.8329514 12.5424982 22.7699259 12.5187531 22.7219183 12.4711413L20.2599853 10.035752C20.1638468 9.94065007 20.1638468 9.78648993 20.2599853 9.69138798 20.3560006 9.59628603 20.5120872 9.59628603 20.6081026 9.69138798L23.0700356 12.1267772C23.1661741 12.2218792 23.1661741 12.3760393 23.0700356 12.4711413 23.0220279 12.5187531 22.9590024 12.5424982 22.8959769 12.5424982z"/>
      <path fill="#ECF0F1" d="M20.4340439 12.5424982C20.3710184 12.5424982 20.3079929 12.5187531 20.2599853 12.4711413 20.1638468 12.3760393 20.1638468 12.2218792 20.2599853 12.1267772L22.7219183 9.69138798C22.8179336 9.59628603 22.9740202 9.59628603 23.0700356 9.69138798 23.1661741 9.78648993 23.1661741 9.94065007 23.0700356 10.035752L20.6081026 12.4711413C20.5600949 12.5187531 20.4970694 12.5424982 20.4340439 12.5424982zM30.2817759 20.9445911C30.2187504 20.9445911 30.155725 20.920846 30.1077173 20.8732342L27.6457843 18.4378449C27.5496458 18.342743 27.5496458 18.1885828 27.6457843 18.0934809 27.7417996 17.9983789 27.8978862 17.9983789 27.9939016 18.0934809L30.4558346 20.5288701C30.5519731 20.6239721 30.5519731 20.7781322 30.4558346 20.8732342 30.4078269 20.920846 30.3448014 20.9445911 30.2817759 20.9445911z"/>
      <path fill="#ECF0F1" d="M27.8198429 20.9445911C27.7568174 20.9445911 27.693792 20.920846 27.6457843 20.8732342 27.5496458 20.7781322 27.5496458 20.6239721 27.6457843 20.5288701L30.1077173 18.0934809C30.2037326 17.9983789 30.3598192 17.9983789 30.4558346 18.0934809 30.5519731 18.1885828 30.5519731 18.342743 30.4558346 18.4378449L27.9939016 20.8732342C27.9458939 20.920846 27.8828684 20.9445911 27.8198429 20.9445911zM37.5444783 14.2472707C37.4814528 14.2472707 37.4184273 14.2235256 37.3704196 14.1759137L34.9084866 11.7405245C34.8123481 11.6454225 34.8123481 11.4912624 34.9084866 11.3961605 35.004502 11.3010585 35.1605886 11.3010585 35.2566039 11.3961605L37.7185369 13.8315497C37.8146754 13.9266517 37.8146754 14.0808118 37.7185369 14.1759137 37.6705293 14.2235256 37.6075038 14.2472707 37.5444783 14.2472707z"/>
      <path fill="#ECF0F1" d="M35.0825453 14.2472707C35.0195198 14.2472707 34.9564943 14.2235256 34.9084866 14.1759137 34.8123481 14.0808118 34.8123481 13.9266517 34.9084866 13.8315497L37.3704196 11.3961605C37.466435 11.3010585 37.6225216 11.3010585 37.7185369 11.3961605 37.8146754 11.4912624 37.8146754 11.6454225 37.7185369 11.7405245L35.2566039 14.1759137C35.2085962 14.2235256 35.1455708 14.2472707 35.0825453 14.2472707zM37.5444783 25.5310379C37.5444783 26.3380528 36.8831292 26.9922714 36.0673185 26.9922714 35.2515077 26.9922714 34.5901587 26.3380528 34.5901587 25.5310379 34.5901587 24.724023 35.2515077 24.0698043 36.0673185 24.0698043 36.8831292 24.0698043 37.5444783 24.724023 37.5444783 25.5310379zM32.4410143 19.3614663C32.3323199 19.3614663 32.2329809 19.2896223 32.2034377 19.181004 32.1682321 19.0511977 32.2459061 18.9177384 32.3771271 18.8827906L32.3771271 18.8827906C32.4770816 18.8558795 34.8293355 18.1983244 35.2088424 15.8524357 35.2303844 15.719707 35.3563122 15.6285017 35.4908569 15.6505419 35.6251553 15.6717298 35.716493 15.7966653 35.6950742 15.9295158 35.264359 18.591518 32.6175349 19.3232307 32.5050245 19.3530642 32.4836057 19.3587874 32.4620638 19.3614663 32.4410143 19.3614663z"/>
      <path fill="#ECF0F1" d="M36.0673185 17.8394698C35.9662561 17.8394698 35.8714717 17.7772456 35.8355275 17.6777599L35.298703 16.1907113 33.6761661 16.6721877C33.5462991 16.7104233 33.4088001 16.6378487 33.3696554 16.5087731 33.3306338 16.379941 33.4044917 16.2441681 33.534728 16.2055671L35.3811778 15.6576046C35.5067363 15.6208302 35.6396807 15.686951 35.6837493 15.808964L36.2992326 17.5138583C36.3450245 17.6404985 36.2783061 17.7799245 36.1502856 17.8252228 36.122712 17.8348426 36.094769 17.8394698 36.0673185 17.8394698zM38.8163129 23.9480349C38.7708902 23.9480349 38.7250983 23.9356144 38.683984 23.9097993 38.569381 23.8373464 38.5357756 23.6868394 38.6090181 23.573472 38.621574 23.5539889 39.8737131 21.5924046 40.6025684 18.7029371 41.2719679 16.0490934 41.6241475 12.0428781 39.5010995 8.02789535 39.4380741 7.90868305 39.4846046 7.76158554 39.6051162 7.69923958 39.7256278 7.63713715 39.8744517 7.68304424 39.9373541 7.80225654 42.1352448 11.9587354 41.7697708 16.0973141 41.0761212 18.837127 40.3260933 21.7995345 39.0766623 23.7540561 39.0238538 23.8357634 38.976954 23.908338 38.8975567 23.9480349 38.8163129 23.9480349z"/>
      <path fill="#ECF0F1" d="M38.8165591 10.1072307C38.7924321 10.1072307 38.7678128 10.1036994 38.7435628 10.0961497 38.6136958 10.0563311 38.5410688 9.91982749 38.5814445 9.79136071L39.3200244 7.43694815C39.3413201 7.36912256 39.3913096 7.313961 39.4570309 7.28583225 39.5227645 7.2573382 39.5977427 7.25904297 39.6622331 7.28985064L42.1241661 8.46699604C42.2466472 8.52544538 42.2978677 8.67120342 42.238769 8.79224227 42.1795719 8.91328112 42.0322129 8.96405898 41.9099902 8.90560964L39.7055754 7.85157317 39.0516737 9.93577929C39.01893 10.0401357 38.9215605 10.1072307 38.8165591 10.1072307zM29.7893893 6.41323228C29.7893893 7.22024722 29.1280403 7.87446583 28.3122295 7.87446583 27.4964188 7.87446583 26.8350697 7.22024722 26.8350697 6.41323228 26.8350697 5.60621735 27.4964188 4.95199873 28.3122295 4.95199873 29.1280403 4.95199873 29.7893893 5.60621735 29.7893893 6.41323228zM19.8185607 22.1214929C19.8185607 22.9285079 19.1572116 23.5827265 18.3414009 23.5827265 17.5255901 23.5827265 16.8642411 22.9285079 16.8642411 22.1214929 16.8642411 21.314478 17.5255901 20.6602594 18.3414009 20.6602594 19.1572116 20.6602594 19.8185607 21.314478 19.8185607 22.1214929zM15.7563712 20.7008086C15.6902683 20.7008086 15.6245347 20.6746282 15.5760346 20.6229979L12.6780933 17.5382121C12.5855246 17.4397007 12.591187 17.2856623 12.6908953 17.1940916 12.7906036 17.102521 12.9463209 17.1082442 13.0387665 17.2067557L15.9367078 20.2915415C16.0292765 20.390053 16.023614 20.5440913 15.9239058 20.635662 15.8766366 20.6792554 15.8164424 20.7008086 15.7563712 20.7008086z"/>
      <path fill="#ECF0F1" d="M16.2487578,20.9445911 C16.2395256,20.9445911 16.2301702,20.944104 16.2208149,20.9430081 L13.8819785,20.6788901 C13.7469415,20.6635472 13.6499413,20.5428736 13.6653284,20.4092925 C13.6807155,20.2755897 13.8024581,20.17927 13.9378644,20.1948565 L15.919105,20.4186688 L15.3952056,18.4492913 C15.3606155,18.3192415 15.4391511,18.1860257 15.5706184,18.1518085 C15.7019625,18.1174695 15.8367533,18.1952802 15.8713435,18.3254517 L16.4868267,20.6390715 C16.507507,20.7168822 16.4880577,20.7995637 16.4348799,20.8603266 C16.387857,20.9142705 16.3197846,20.9445911 16.2487578,20.9445911 Z"/>
    </g>
  </g>
</svg>
