<svg xmlns="http://www.w3.org/2000/svg" width="64" height="64" viewBox="0 0 64 64">
  <defs>
    <linearGradient id="a" x1="50.041%" x2="50.041%" y1="96.372%" y2="2.205%">
      <stop stop-color="#FFD06B" offset="0%"/>
      <stop stop-color="#F39A6C" offset="24%"/>
      <stop stop-color="#A46E63" offset="52%"/>
      <stop stop-color="#725269" offset="73%"/>
      <stop stop-color="#1A2040" offset="100%"/>
    </linearGradient>
  </defs>
  <g fill="none" fill-rule="evenodd">
    <path fill="url(#a)" d="M32,0 C49.673125,0 64,14.326875 64,32 C64,49.673125 49.673125,64 32,64 C14.326875,64 0,49.673125 0,32 C0,14.326875 14.326875,0 32,0 Z"/>
    <path fill="#20D0C2" d="M32.674375,18.99525 C42.904375,18.99525 51.197375,27.287625 51.197375,37.517625 C51.197375,47.747 42.905,56.0406262 32.674375,56.0406262 C22.445,56.0406262 14.152,47.747625 14.152,37.517625 C14.152,27.287625 22.444875,18.99525 32.674375,18.99525 Z"/>
    <path fill="#15BDB1" d="M47.485625,26.394 C49.81575,29.4915 51.19675,33.343 51.19675,37.51775 C51.19675,47.747125 42.904375,56.0401225 32.67375,56.0401225 C22.444375,56.0401225 14.151375,47.747125 14.151375,37.51775 C14.151375,35.926 14.35225,34.382125 14.729875,32.90825 C14.580375,33.838375 14.50125,34.7915 14.50125,35.76375 C14.50125,45.606375 22.48075,53.5858688 32.323375,53.5858688 C42.1665,53.5858688 50.1455,45.606375 50.1455,35.76375 C50.1455,32.32625 49.1715,29.11675 47.485625,26.394625 L47.485625,26.394 Z"/>
    <path fill="#FFFFFF" d="M44.246625,23.05575 C47.691125,25.8155 50.128625,29.7795 50.919625,34.31 C50.863625,34.224 50.807,34.111375 50.74925,33.9445 C50.38725,34.062875 50.37575,34.072625 49.9485,34.143625 L49.93,34.169625 C49.76025,34.4115 49.938625,34.30875 49.640125,34.561625 C49.2845,34.86075 49.053,35.2688625 48.656375,35.5107375 C48.6085,35.9339875 48.691625,36.0286125 48.585375,36.5321125 C48.54375,36.7174875 48.336,37.2162375 48.092875,37.1781125 C48.016125,37.1637375 47.68925,36.3564875 47.6125,36.1331125 C47.482,35.7532375 47.333625,35.4726125 47.239,35.0361125 C47.18525,34.8028625 47.1495,34.3566125 47.096375,34.200125 C46.84175,34.2382375 46.853375,34.4004875 46.609625,34.2289875 C46.437625,34.1054875 46.515,34.0292375 46.419625,33.8438625 C46.218125,33.653875 46.010875,33.4639875 45.803,33.274 C45.6425,33.222 45.025875,33.3121125 44.764875,33.283875 C44.296125,33.240625 44.255125,33.2695 43.97625,32.894125 C43.48375,32.918375 43.525375,33.103125 43.045,32.6897375 C42.730375,32.4236125 42.789875,31.9963625 42.33375,32.2382375 C42.315875,32.628 42.50575,32.7139875 42.677875,32.894125 C42.802,33.032125 42.95675,33.127375 43.021375,33.3121125 C43.02775,33.3173625 43.0577375,33.492875 43.0635,33.5165 C43.508,33.5453625 43.614875,33.33175 43.857875,33.1509875 C44.09575,33.3738625 43.863625,33.4125 44.20775,33.5875 C44.48025,33.7255 44.427125,33.644625 44.605,33.8674875 C44.693875,34.1666125 43.994125,34.9788625 43.762625,35.1261125 C43.585375,35.2398625 43.490125,35.1734875 43.33025,35.30625 C43.0935,35.5059875 43.35975,35.477125 42.945125,35.629625 C42.500625,35.79125 42.06125,36.1331125 41.593,36.161375 C41.492,35.886 41.390875,35.606 41.291,35.3259875 C40.99425,34.3711125 41.006375,34.7417375 40.70325,34.248125 C40.56125,34.033875 40.620125,33.8965 40.525375,33.706625 C40.4595,33.564 40.359625,33.5022375 40.270125,33.32725 C40.133875,33.0565 39.974,32.633875 39.65925,32.676625 C39.594,32.89025 39.95025,33.611875 40.038625,33.788 C40.1275,33.9634875 40.269625,34.03975 40.31175,34.2915 C40.37125,34.637875 40.299625,34.595125 40.489625,34.82725 C40.887375,35.307 40.47175,35.222125 41.088875,35.6915 C41.551375,36.043125 41.433,36.147625 41.62875,36.617625 C41.93075,36.703125 42.8325,36.2995 42.986125,36.417875 C43.17025,36.74575 42.773125,37.26775 42.672,37.553 C42.34,38.507375 41.758625,38.4935 41.314125,39.224375 C41.071125,39.61875 40.9585,39.67125 40.733375,40.145875 C40.47825,40.68225 41.249,42.168875 40.787125,42.79075 C40.686125,42.933375 40.359875,43.01875 39.9505,43.45125 C39.5175,43.92125 39.962,43.840375 39.79575,44.623875 C39.665875,44.804625 39.505375,44.813875 39.345375,44.942625 C39.2865,45.127375 39.333875,45.274 39.23275,45.502625 C39.126,45.778 39.108625,45.63075 38.953875,45.85425 C38.84125,46.029125 38.8533875,46.10075 38.7228875,46.262375 C38.61025,46.409625 38.55025,46.45175 38.4440125,46.547625 C37.9278875,47.02275 36.81875,47.036625 36.7241375,46.97025 C36.462625,46.747375 36.6410125,46.69025 36.57575,46.37675 C36.5122625,46.101375 36.366125,45.870375 36.24375,45.658 L36.2310125,45.6355 C36.172125,45.5316375 36.1183875,45.43175 36.0883875,45.336375 C35.87475,44.6620125 35.9527625,44.149875 35.5791375,43.46575 C35.1103875,42.581875 35.8395125,42.1216375 35.810125,41.622875 C35.7980125,41.490125 35.750625,41.40925 35.7385125,41.30475 C35.6496375,40.754 35.5965125,40.260375 35.22875,39.827875 C34.825125,39.357875 34.878875,39.523625 35.00875,38.75 C35.175,37.862 34.795125,38.0895 34.261625,38.066375 C34.000125,37.25925 33.4902625,37.653 32.9805125,37.890875 C32.6601375,38.0375 32.54175,37.848125 32.17975,37.900125 C31.3732625,38.00925 32.00775,38.35625 30.928625,37.5011375 C30.47825,37.1448875 30.780875,37.3256375 30.5135,36.8793875 C30.424625,36.7177625 30.1515125,36.5041375 30.0267625,36.3425125 C29.618,35.829875 30.1041375,35.3125125 30.0325125,34.7236375 C29.9077625,33.63125 29.7300125,34.5810125 30.3407625,33.2612625 C30.6611375,32.5586375 31.1472625,32.5533875 31.2720125,32.2398875 C31.3787625,31.9605125 31.3072625,31.7601375 31.5092625,31.5043875 C31.6871375,31.2953875 31.9422625,31.3381375 32.04275,31.0101375 C32.18475,30.6065125 31.91225,30.5546375 31.6155,30.5447625 C31.491375,30.1221375 31.491375,30.2266375 31.586,29.8368875 C31.63975,29.6186375 31.5917625,29.5135125 31.63975,29.2953875 C31.758125,28.7497625 32.689375,29.2913875 32.956625,29.0678875 C33.0807625,28.8352625 33.098625,28.6077625 32.956625,28.3837625 C32.8076375,28.160875 32.6125125,28.189125 32.512125,27.9756375 C32.73725,27.8237625 32.5710125,27.9566375 32.767375,27.9132625 C32.998375,27.8612625 32.968875,27.7948875 33.241375,27.7428875 C33.4845,27.6950125 33.639125,27.4721375 33.875875,27.3202625 C34.21425,27.1020125 34.05375,26.9068875 34.463,26.8405125 C35.12175,26.7261375 34.694,26.7452625 34.7655,26.1321375 C34.865375,26.0946375 34.960625,26.0512625 35.055375,26.0091375 C35.26325,26.2798875 35.00225,26.1707625 35.251125,26.3508875 C35.316375,26.3133875 35.39375,26.2752625 35.46475,26.2377625 C35.429,25.9427625 35.29275,25.9998875 35.20375,25.6343875 C34.8775125,25.6863875 34.75925,25.9617625 34.49825,25.8623875 C34.243,25.7671375 34.2315,25.4016375 34.243,25.0980125 C34.337625,24.8700125 34.81225,24.7463875 34.995875,24.6892625 C35.292625,24.5893875 35.251125,24.3901375 35.5241375,24.1193875 C35.8797625,23.7631375 35.61875,24.1240125 35.7908875,23.6638875 C36.182375,23.6495125 35.9987625,23.6350125 36.2296375,23.5166375 L36.2411375,23.5120125 L36.2647625,23.5021375 C36.4016375,23.4403875 36.5793875,23.4258875 36.7572625,23.3647625 C37.4091375,23.1465125 37.6757625,23.2556375 38.1503875,23.4496375 C38.5181375,23.6020125 39.6272625,23.6066375 39.7103875,24.0726375 C39.4436375,24.3520125 39.1885125,24.1482625 38.8027625,24.1718875 C38.8737625,24.5321375 38.9037625,24.5321375 39.2300125,24.6320125 C39.2837625,24.4611375 39.2063875,24.5281375 39.2952625,24.4183875 C39.4020125,24.4420125 39.5088875,24.4611375 39.6151375,24.4801375 C39.7225125,24.1141375 39.8466375,24.1666375 40.2086375,24.1238875 C40.1491375,23.8716375 40.0838875,23.9431375 40.2201375,23.7440125 C40.5942625,23.7821375 40.2917625,23.7492625 40.4753875,24.0482625 C40.7363875,24.0147625 40.9915125,23.7248875 41.3530125,23.6873875 C41.5781375,23.6637625 41.5666375,23.7491375 41.8865125,23.7156375 C42.1475125,23.6873875 42.1358875,23.5921375 42.3968875,23.7012625 C42.4915125,23.5257625 42.3968875,23.5297625 42.6283875,23.4876375 C42.9835125,23.4258875 43.2923875,23.6441375 43.6363875,23.6920125 C43.3817625,23.3785125 43.1387625,23.4402625 43.4522625,22.9177625 C43.8495125,22.8368875 43.8852625,22.8941375 44.0572625,23.1931375 C44.1548875,23.1382625 44.1963875,23.0833875 44.2442625,23.0551375 L44.246625,23.05575 Z M14.584875,33.523 L14.584875,33.523 C15.419125,29.726375 17.417875,26.36625 20.1875,23.836875 C20.402875,23.911875 20.6875,23.86225 20.901125,23.853625 C20.977875,23.711 21.025875,23.5875 21.162125,23.5355 C21.215875,23.5165 21.281,23.511875 21.369375,23.5165 C21.380875,23.5875 21.399375,23.659125 21.41675,23.730125 C21.41675,23.735375 21.428875,23.782625 21.423125,23.773375 C21.428875,23.7635 21.434625,23.801625 21.4405,23.816125 C21.814,23.597875 21.5,23.59275 21.7015,23.199 C21.386875,23.13725 21.428375,23.17475 21.23275,22.975625 C21.42275,22.766625 21.789875,22.695625 22.0635,22.714625 C22.045,22.904625 21.95675,22.9 22.02775,23.061 C22.241375,22.92825 22.38975,22.572625 22.73325,22.639 C22.7985,22.686375 22.875875,22.729125 22.94625,22.77175 C22.768375,22.938 22.50175,22.94725 22.27075,23.0425 C22.16975,24.073125 22.597,23.20875 22.454375,23.916 C22.709,23.897 22.958375,23.71225 23.053125,23.52225 C22.9585,23.39875 22.822125,23.39875 22.744875,23.2515 C22.804875,23.0615 22.9325,22.91775 23.112625,22.832375 C23.2345,22.774 23.3805,22.7435 23.545625,22.7435 C25.43125,22.757875 24.53575,22.843375 25.117125,23.1095 C25.247,23.166125 25.4785,23.195 25.555875,23.30925 C25.67425,23.489375 25.561625,23.66025 25.751,23.802875 C25.91725,23.925875 25.941,23.79825 26.160375,24.073625 C26.113,24.230125 26.0005,24.39175 25.7695,24.396375 C25.449125,24.401 25.639,24.18275 25.294875,24.215625 C25.300625,24.538375 25.621125,24.6625 25.324375,24.837375 C25.063375,24.994375 25.229125,24.78075 25.034,24.889875 C25.02825,24.8945 25.00975,24.90425 25.004,24.908875 C24.9925,24.91875 24.980375,24.9325 24.9745,24.94175 C24.93875,24.979875 24.90925,25.013375 24.879875,25.04625 C24.40525,24.918125 24.49425,24.97525 24.209625,24.66175 C24.102875,24.542875 24.0855,24.5145 23.895,24.529 C23.776625,24.533 23.6225,24.585 23.509375,24.481125 C23.740875,24.19125 23.8535,24.471875 24.19175,24.300375 C24.25125,24.2715 24.62475,23.98225 24.68425,23.915875 C24.58325,23.688375 24.672125,23.87775 24.524375,23.7305 C24.191875,23.393375 24.0965,23.47875 23.64675,23.47875 C23.4355,23.721875 23.277875,24.0215 23.048,24.153625 C22.909375,24.233875 22.744375,24.25125 22.526125,24.15825 C22.627125,24.566375 22.8875,24.252875 22.91125,24.747125 C22.73925,24.713625 22.65025,24.62825 22.4725,24.69 C22.093125,24.832625 22.430875,24.818125 22.461,24.894375 C22.461,24.899 22.638875,24.918 22.461,24.9845 C22.26525,25.0555 22.431,24.946375 22.051625,24.723 C22.10475,24.628375 22.158375,24.529 22.2115,24.4285 C21.90325,24.52375 21.5175,24.675625 21.156125,24.851125 C20.74675,25.0555 20.361125,25.288125 20.129625,25.50175 C20.123875,25.858 20.189125,25.620625 20.22425,26.04325 C20.775625,26.076125 20.59775,26.241875 21.14975,26.3995 C21.256,26.428375 21.392875,26.456625 21.559125,26.485 C21.559125,26.751125 21.321875,26.950375 21.4875,27.22575 C21.873125,27.496 21.88525,26.968875 21.98,26.63225 C23.28475,26.35975 22.656125,25.97575 22.99325,25.258125 C23.044,25.15075 23.115625,25.036375 23.219625,24.912875 C23.320125,24.9175 23.728875,24.96025 23.818375,24.97925 C24.115125,25.03125 23.95525,25.10275 24.275,25.244875 C24.268625,25.50125 24.13875,25.83375 24.518125,25.772 C24.8085,25.72 24.743875,25.492 25.098875,25.434875 C25.25875,25.810125 25.21725,25.97175 25.288875,26.42275 C26.143375,26.75525 25.7635,27.026125 25.597125,27.6485 C25.703875,27.7005 25.8165,27.748375 25.929125,27.795125 C25.923375,27.975875 25.917,28.151375 25.91125,28.3275 C25.893375,28.3275 24.997875,28.132375 24.938375,28.113875 C25.07525,27.723625 25.324,27.7195 25.4845,27.320625 C25.164125,27.37725 25.18775,27.477125 24.95625,27.548125 C24.749,27.609875 24.589,27.567125 24.369125,27.596 C24.29175,27.852375 24.363375,27.372625 24.387,27.699875 C24.3985,27.824 24.458,27.705125 24.374875,27.837875 C24.07875,27.699875 24.17975,27.377125 23.62775,27.67625 C23.751875,27.733375 23.876625,27.785375 24.007125,27.837875 C23.98975,28.20275 23.95975,27.927375 23.883,28.169875 C23.693,28.791625 24.398625,28.407125 24.58275,28.37425 C24.535375,28.702125 24.333875,28.702125 24.04875,28.791625 C23.734625,28.886875 23.64,29.015 23.390625,29.07225 C23.390625,28.6825 23.33175,29.0105 23.50325,28.73975 C23.253875,28.763375 23.07025,28.877125 22.833,28.977625 L22.809375,28.986875 C22.5045,29.111 22.458375,29.1295 22.42375,29.518625 C22.16275,29.598875 21.86025,29.690125 21.676625,29.88 C21.493,30.0555 21.308875,30.231 21.1305,30.401875 C21.113125,30.41625 21.1005,30.430125 21.0895,30.44 C21.15475,30.929 21.0895,30.93825 20.79275,31.12875 C20.543375,31.289875 20.46075,31.28525 20.229875,31.489625 C19.488625,32.15475 19.84475,31.84525 19.88575,32.990125 C19.731625,32.94275 19.58325,32.89025 19.44125,32.83825 C19.328125,32.0785 19.48225,32.330125 18.872,32.154625 C18.213875,31.964625 18.30275,32.287375 18.029625,32.344625 C17.727125,32.4105 17.57875,32.06925 17.139875,32.353875 C16.897375,32.520125 16.665875,32.62925 16.606375,32.92375 C16.535375,33.28 16.374875,33.540875 16.3985,33.93525 C16.440125,35.003875 17.412875,35.065125 17.66175,34.566875 C17.8275,34.234375 17.7865,34.05425 18.32625,34.139625 C18.38,34.424875 18.29625,34.633875 18.22525,34.852125 C18.177875,34.98025 18.047375,35.212375 18.112625,35.389 C18.49825,35.5455 18.509875,35.251 19.02025,35.55475 C19.056,36.062875 18.78925,36.632625 19.180125,36.927625 C19.482125,37.1505 19.5,36.95125 19.76725,36.904 C20.064,36.852 20.010875,37.03675 20.283375,37.0795 C20.4375,36.8895 20.37225,37.0085 20.473375,36.77525 C20.65125,36.371625 20.6985,36.561625 21.12,36.3145 C21.161,36.290875 21.19675,36.267125 21.238375,36.238875 C21.28575,36.33875 21.339375,36.4335 21.386125,36.52875 C21.694375,36.16275 21.73025,36.518875 22.085875,36.618875 C22.238875,36.661 22.348,36.676 22.43225,36.677125 C22.690875,36.681125 22.716875,36.55525 23.07025,36.680625 C23.111875,36.7002625 23.164875,36.714125 23.212875,36.7285 C23.2186375,36.7285 23.2365,36.73775 23.2365,36.7475 C23.242875,36.752125 23.260125,36.7660125 23.2665,36.77175 C23.325375,36.837625 23.3317625,36.9045125 23.3791375,36.9755 C23.6227625,37.208125 23.865875,37.440875 24.1025125,37.668875 C24.5707625,37.85425 24.5707625,37.50725 25.1047625,38.0245 C25.3298875,38.2381375 25.2288875,38.234125 25.3536375,38.508875 C25.3715125,38.5521375 25.4067625,38.594375 25.4310125,38.646875 C25.4783875,38.775 25.5320125,38.8980125 25.5851375,39.021625 C25.8282625,39.340375 26.1601375,39.1405 26.4985125,39.4685 C26.6936375,39.6585 26.5458875,39.6012625 26.9788875,39.6775 C27.6491375,39.786625 27.3882625,39.725375 27.8986375,40.1098875 C28.0937625,40.251875 28.1411375,40.171125 28.3252625,40.2946375 C28.5805125,40.6508875 28.5146375,41.0353875 28.3016375,41.348875 C27.6435125,42.308375 27.8686375,42.1513875 27.8386375,42.911125 C27.8150125,43.347625 27.6908875,44.25 27.2808875,44.359125 C25.7925125,44.77775 26.6578875,45.067 26.2670125,45.803125 C26.1543875,46.0127625 26.0712625,46.0641375 26.0002625,46.2310125 C25.7041375,46.9238875 25.9113875,47.157125 25.0337625,47.0000125 C25.1168875,47.1472625 25.0632625,47.0473875 25.1468875,47.1801375 C25.4072625,47.5837625 25.4493875,47.8885125 24.9153875,47.9872625 C24.4708875,48.0727625 24.6602625,47.9872625 24.6186375,48.4808875 C24.4466375,48.5525125 24.3697625,48.4808875 24.2566375,48.5951375 C24.4107625,48.8803875 24.2681375,48.6430125 24.5297625,48.8041375 C24.4823875,48.9606375 24.4466375,49.1130125 24.4050125,49.2648875 C24.3045125,49.6355125 24.2745125,49.2937625 24.2392625,49.7256375 C24.3933875,49.7966375 24.5002625,49.7822625 24.6365125,49.9681375 C24.6186375,50.1107625 24.4766375,50.4998875 24.4350125,50.7227625 C24.6543875,51.0506375 24.8322625,51.4017625 25.3010125,51.4357625 C25.2952625,51.7106363 25.3598875,51.6822588 25.1231375,51.7388838 C24.9210125,51.7867588 24.4943875,51.5968863 24.3160125,51.5016325 C24.0077625,51.3353875 23.7231375,51.1171375 23.5157625,50.803625 C23.3973875,50.6275125 23.4447625,50.713 23.3200125,50.5472625 C23.0948875,50.2580125 23.1843875,50.124625 23.1185125,49.9295125 C23.0827625,49.8152625 22.8991375,49.6922625 22.9758875,49.3215125 C22.9937625,49.2170125 23.1600125,48.7181375 22.9585125,48.803625 C22.7563875,48.8845 23.1126375,48.851 22.8337625,48.9843875 C22.7678875,48.803625 22.7153875,48.5381375 22.6796375,48.3146375 C22.6086375,47.939375 22.5197625,47.924875 22.4775125,47.6975 C22.3886375,47.16975 22.6143875,47.1126375 22.3648875,46.233875 C22.2008875,45.6525 22.26725,44.276625 22.0941375,43.570625 C22.0663875,43.458 22.032875,43.36275 21.991375,43.29 C21.8315,43.024375 21.4400125,42.9015 21.125875,42.68725 C21.108,42.68325 21.0963875,42.678 21.0901375,42.66825 C20.657125,42.3646375 20.2477625,41.172375 19.903625,40.726625 C19.74375,40.5123875 19.6426375,40.6077625 19.571625,40.2705125 C19.494875,39.9616375 19.61325,40.0141375 19.7142625,39.7572625 C19.1865125,38.7890125 20.396625,38.8035125 20.1472625,37.6395125 C20.0941375,37.4258875 19.9400125,37.1268875 19.8095125,37.0321375 C19.5601375,37.1412625 19.6790125,37.2030125 19.5485125,37.4115125 C19.3470125,37.2977625 19.1448875,37.1835125 18.9497625,37.0702625 C18.3388875,36.4813875 18.6651375,36.9086375 18.4931375,36.5241375 C18.1258875,35.7170125 17.7755125,36.1678875 17.3367625,35.7695125 C17.1405125,35.6032625 17.1052625,35.3416375 16.7796375,35.3896375 C16.2877625,35.4560125 16.5602625,35.5322625 16.0498875,35.2943875 C15.6168875,35.0906375 15.1665125,34.8532625 14.8640125,34.5772625 C14.8518875,34.1500125 15.0066375,34.1303875 14.7392625,33.7320125 C14.6918875,33.6581375 14.6387625,33.5893875 14.5851375,33.5241375 L14.5851375,33.523 L14.584875,33.523 Z M20.39125,23.6545 L20.39125,23.6545 C20.506125,23.6395 20.506125,23.58925 20.806375,23.5165 C20.782125,23.416625 20.76425,23.416625 20.7405,23.379125 L20.73125,23.360625 C20.616375,23.457 20.50325,23.55525 20.390625,23.655125 L20.39125,23.6545 Z M36.242875,29.16125 L36.242875,29.16125 L36.231375,29.153125 C36.18975,29.124875 36.14825,29.0965 36.113,29.063 C35.852,28.830375 35.798375,28.621875 35.5085,28.67325 C35.502125,28.892125 35.531625,28.90125 35.639,29.043875 C36.042,29.547375 35.917875,29.376375 36.231875,29.56175 L36.243375,29.568125 C36.317875,29.610875 36.403875,29.670875 36.52225,29.756375 C36.11925,30.112 36.49275,30.1495 36.243375,30.2685 L36.231875,30.27425 C36.20825,30.2835 36.1845,30.29325 36.16725,30.3025 C36.084125,30.0935 36.26775,30.193375 36.054125,29.88975 C35.93525,29.73275 35.822625,29.685375 35.639,29.599375 C35.176,29.381125 35.235375,29.210875 34.95075,28.925 C34.630375,28.934875 34.701875,29.03475 34.476125,29.148375 C34.203625,29.281125 34.245125,29.12475 33.924125,29.153 C33.663125,29.61425 34.03675,29.22925 33.562125,29.609125 C32.992875,30.05075 33.461125,30.5115 32.54825,30.6495 C32.483,30.65875 32.459375,30.6495 32.394625,30.673125 C32.222,30.734375 32.323,30.683 32.222,30.78225 C32.299375,30.963 32.1925,30.934125 32.500875,30.976875 C33.06375,31.0525 33.136,30.706125 33.54475,30.620625 C33.74625,30.577875 35.0095,30.526 35.098375,30.549 C35.370875,30.853875 35.14575,31.0675 35.14575,31.32325 C35.4425,31.48025 35.863375,31.517875 36.036,31.6795 C36.231125,31.864875 36.137,31.836 36.231125,31.868875 L36.242625,31.872875 C36.278375,31.88325 36.330375,31.90175 36.421,31.93575 C36.65825,32.016 36.645625,32.063875 36.90075,32.083 C37.13225,31.30875 36.895,31.389625 38.009875,31.74525 C39.172125,32.12575 38.650125,31.77875 39.142625,31.83075 C39.38625,31.855 39.321,31.930625 39.65875,31.887875 C39.724625,31.755125 40.204375,30.548375 39.581375,30.700875 C39.39725,30.74825 39.5225,30.814625 39.2615,30.74825 C38.988375,30.67725 39.25,30.62525 38.947375,30.667375 C38.650625,30.710625 38.295,30.971625 38.0635,30.0745 C37.974625,29.751125 37.814125,29.471125 37.446875,29.960125 C37.5415,30.126375 37.60675,30.140875 37.713,30.3025 C37.6835,30.349875 37.583125,30.46875 37.54725,30.506875 C37.34575,30.706 37.630375,30.611375 37.304125,30.6535 C37.12625,30.52075 37.162125,30.349875 36.99,30.1125 C36.6875,29.670875 36.88325,29.874625 36.729,29.452 C36.608375,29.346 36.4075,29.26575 36.242875,29.16125 Z M42.576375,41.9465 L42.576375,41.9465 C42.316,42.07925 42.28025,42.3835 42.0845,42.5545 C41.870875,42.749125 41.58625,42.659 41.503125,43.019875 C41.396375,43.47075 41.6815,43.333375 41.366875,43.92225 C41.254875,44.1405 41.2485,44.686125 41.420625,44.848375 C41.93625,45.346625 42.215625,44.088625 42.334,43.69425 C42.422875,43.413625 42.506,43.096125 42.60075,42.834625 C42.696,42.554625 42.83225,42.3075 42.577125,41.946625 L42.576375,41.946625 L42.576375,41.9465 Z M41.7225,28.697 L41.7225,28.697 C41.764125,29.27725 42.108125,29.500125 42.35125,29.765625 C42.32125,30.041 42.256,29.969375 42.262375,30.3545 C42.55275,30.564125 42.766375,30.691625 43.14575,30.587125 C43.198875,30.12175 43.0505,30.1455 42.9085,29.827375 C42.932125,29.78925 42.997375,29.741875 43.009,29.73275 C43.11575,29.590125 43.06275,29.789375 43.11575,29.547375 C42.8375,29.45725 42.386,29.172125 42.351375,28.796875 C42.487625,28.68775 42.446,28.754125 42.5465,28.68775 C42.765875,28.545125 42.60025,28.76275 42.730625,28.5215 C42.618625,28.30325 42.493375,28.264625 42.220875,28.37425 C42.102375,28.421625 41.78775,28.645 41.7225,28.697 Z M39.297125,28.849375 L39.297125,28.849375 C39.1135,28.593 39.125125,28.464875 38.769375,28.455 C38.627375,28.607375 38.461125,28.834875 38.38375,29.067625 C38.265375,29.41925 38.348,29.17675 38.360125,29.556625 C38.3543875,29.5705 38.360125,29.590125 38.360125,29.604 C38.3543875,29.832 38.300625,29.56125 38.335875,29.77025 C38.61475,29.713125 38.401125,29.71775 38.609,29.651375 C38.80475,29.585 39.404,29.40425 39.576,29.447625 C39.98475,29.542875 40.328875,29.865625 40.791875,29.542875 C40.76825,29.1295 40.27,28.973 39.925875,28.792375 C39.94375,28.413 40.04425,28.712125 40.0205,28.346125 C39.902125,28.3415 39.8305,28.3225 39.718,28.36975 C39.45125,28.488125 39.599125,28.522125 39.599125,28.564375 C39.61125,28.76875 39.865875,28.521625 39.593375,28.774 C39.516,28.840375 39.39125,28.840375 39.296625,28.849625 L39.297125,28.849625 L39.297125,28.849375 Z M32.370125,25.971875 L32.370125,25.971875 C32.359125,26.637 32.590125,26.4135 32.8095,26.7415 C32.709,27.0215 32.691125,26.80325 32.5785,27.0925 C32.4775,27.335 32.602125,27.11675 32.536875,27.539375 C32.708875,27.548625 32.9635,27.487375 33.18925,27.46775 C33.509625,27.4395 33.503875,27.410625 33.6165,27.082625 C33.438625,26.864375 33.260875,26.646125 33.076625,26.427875 C32.845125,26.07625 33.076625,26.318125 33.005625,26.02375 C32.9525,25.91925 32.904625,25.815375 32.85725,25.71025 C32.549,25.815375 32.579,25.7865 32.3705,25.97125 L32.370125,25.971875 Z"/>
    <path fill="#666666" d="M45.084375,16.60625 L45.401875,24.04425 C38.407375,31.16925 25.79,30.401375 19.946125,24.271125 L19.916125,17.0035 L31.999375,22.043125 L45.08375,16.60625 L45.084375,16.60625 Z"/>
    <polygon fill="#807D7D" points="11.061 15.271 32 7.959 52.939 15.271 32 22.582"/>
    <path fill="#FFCA4F" d="M32.239,13.29225 L18.176625,17.102125 C18.038625,17.12575 17.965375,17.203125 17.9775,17.351 L17.900125,23.610625 C18.355625,23.7855 18.681875,24.252 18.681875,24.8005 C18.681875,25.4985 18.153625,26.06425 17.50125,26.06425 C16.848875,26.06425 16.32,25.497875 16.32,24.8005 C16.32,24.287875 16.60525,23.84675 17.015125,23.648125 L17.09425,16.7875 C17.080375,16.571 17.16875,16.407 17.430875,16.329625 L31.7,12.52025 C32.208625,12.360875 32.7415,12.944 32.23925,13.293375 L32.23925,13.29225 L32.239,13.29225 Z M17.89025,24.38775 L17.89025,24.38775 L17.8885,24.386 L17.885625,24.383125 L17.881,24.377875 L17.87925,24.376125 L17.876375,24.37325 L17.871125,24.368 L17.869375,24.36625 L17.8665,24.363375 L17.86125,24.35875 L17.8595,24.357 L17.856625,24.354125 L17.851375,24.3495 L17.849625,24.34775 L17.846125,24.344875 L17.8408625,24.34025 L17.8391125,24.339125 L17.8356125,24.33625 L17.8303625,24.331625 L17.8286125,24.329875 L17.8251125,24.327 L17.8198625,24.323 L17.8181125,24.321875 L17.8146125,24.319 L17.8071125,24.31375 L17.8031125,24.310875 L17.7973625,24.306875 L17.7956125,24.30575 L17.7916125,24.302875 L17.7858625,24.299375 L17.7841125,24.29825 L17.7801125,24.295375 L17.7743625,24.291875 L17.7726125,24.29075 L17.7679875,24.2885 L17.7622375,24.285 L17.7604875,24.283875 L17.7558625,24.281 L17.7501125,24.2775 L17.7489875,24.276875 L17.74435,24.274625 L17.7386,24.271125 L17.73685,24.2705 L17.732225,24.26825 L17.72585,24.265375 L17.724725,24.26475 L17.7201,24.2624875 L17.713725,24.259625 L17.711975,24.2589875 L17.70735,24.2572375 L17.700975,24.2543625 L17.699225,24.2537375 L17.6946,24.2519875 L17.688225,24.2491125 L17.6871,24.2484875 L17.68185,24.2467375 L17.675475,24.2444875 L17.67435,24.2438625 L17.6691,24.2421125 L17.662725,24.2398625 L17.6616,24.2398625 L17.65635,24.2381125 L17.649975,24.2358625 L17.64885,24.2352375 L17.6431,24.2341125 L17.636725,24.2318625 L17.6356,24.2312375 L17.62985,24.2294875 L17.623475,24.2277375 L17.62235,24.2271 L17.6166,24.22535 L17.610225,24.224225 L17.6096,24.224225 L17.603225,24.222475 L17.59635,24.22135 L17.595725,24.22135 L17.58935,24.220225 L17.582475,24.2191 L17.58185,24.2191 L17.575475,24.217975 L17.5686,24.21685 L17.567975,24.21685 L17.5616,24.215725 L17.554725,24.2146 L17.5541,24.2146 L17.547725,24.213975 L17.54085,24.21335 L17.540225,24.21335 L17.53335,24.212725 L17.5264875,24.2121 L17.52585,24.2121 L17.5194875,24.2121 L17.5126125,24.211475 L17.5126125,24.211475 L17.5057375,24.21085 L17.4988625,24.21085 L17.4884875,24.211475 L17.4844875,24.211475 L17.4781125,24.2121 L17.4699875,24.2121 L17.4677375,24.2121 L17.4573625,24.212725 L17.4562375,24.212725 L17.4476125,24.21385 L17.4423625,24.214475 L17.4371125,24.2151 L17.4284875,24.216225 L17.4273625,24.216225 L17.4174875,24.21735 L17.4146125,24.217975 L17.4071125,24.2191 L17.4007375,24.220225 L17.3972375,24.22085 L17.3873625,24.2231 L17.3873625,24.2231 L17.3774875,24.22485 L17.3734875,24.225975 L17.3677375,24.2277375 L17.3602375,24.2294875 L17.3584875,24.2301125 L17.3486125,24.2329875 L17.3468625,24.2336125 L17.3393625,24.2358625 L17.3341125,24.2376125 L17.3294875,24.2393625 L17.3213625,24.2422375 L17.3109875,24.2457375 L17.3081125,24.2468625 L17.3017375,24.2491125 L17.2959875,24.2519875 L17.2931125,24.2531125 L17.2844875,24.2571125 L17.2838625,24.2571125 L17.2752375,24.2611125 L17.2717375,24.2628625 L17.2664875,24.2657375 L17.2596125,24.2692375 L17.2578625,24.2703625 L17.25,24.275125 L17.24825,24.27575 L17.241375,24.27975 L17.23675,24.282625 L17.23325,24.284875 L17.225125,24.2895 L17.2245,24.290125 L17.216375,24.295375 L17.2135,24.297125 L17.20825,24.300625 L17.2025,24.304125 L17.20025,24.305875 L17.192125,24.311625 L17.1915,24.31225 L17.184,24.3175125 L17.1805,24.320375 L17.175875,24.323875 L17.1695,24.3285125 L17.168375,24.3296375 L17.160875,24.336 L17.159125,24.3377625 L17.153375,24.3423875 L17.149375,24.3463875 L17.145875,24.3492625 L17.139,24.355625 L17.138375,24.3562625 L17.130875,24.363125 L17.128625,24.365375 L17.124,24.3700125 L17.119375,24.3746375 L17.117125,24.3768875 L17.11025,24.3837625 L17.109625,24.3843875 L17.1038625,24.3912625 L17.101,24.3947625 L17.0975,24.39875 L17.0922375,24.405125 L17.0911125,24.40625 L17.0847375,24.41375 L17.0836125,24.4155125 L17.0789875,24.421875 L17.0754875,24.4265 L17.0732375,24.429375 L17.0674875,24.4375 L17.0674875,24.4375 L17.0617375,24.446125 L17.0559875,24.45425 L17.0519875,24.4600125 L17.0502375,24.4622625 L17.0449875,24.4708875 L17.0443625,24.4720125 L17.0397375,24.4795125 L17.0344875,24.4881375 L17.0298625,24.4956375 L17.0292375,24.4967625 L17.0246125,24.5053875 L17.0234875,24.5076375 L17.0199875,24.5145125 L17.0171125,24.5197625 L17.0153625,24.5232625 L17.0107375,24.5325125 L17.0107375,24.5325125 L17.0067375,24.5417625 L17.0049875,24.5452625 L17.0027375,24.5510125 C16.9698625,24.6260125 16.9513625,24.7103875 16.9513625,24.7992625 C16.9513625,25.1231375 17.1967375,25.3858875 17.4992375,25.3858875 C17.8017375,25.3858875 18.0471125,25.1231375 18.0471125,24.7992625 C18.0471125,24.6376375 17.9864875,24.4921375 17.8883625,24.3865125 L17.89025,24.38775 Z"/>
    <path fill="#FF5B61" d="M17.366625,25.369125 L15.77025,35.582375 C15.74425,35.748125 16.306,35.973875 16.573875,35.64125 C16.926,36.06275 17.392,35.890125 17.53175,35.599125 C17.708375,35.88775 18.124625,36.04775 18.42725,35.615875 C18.695125,35.948375 19.293875,35.716875 19.25,35.438 L17.6635,25.35925 C17.623625,25.209125 17.387,25.2345 17.366125,25.3685 L17.366625,25.369125 Z"/>
  </g>
</svg>
