<svg xmlns="http://www.w3.org/2000/svg" width="240" height="191" viewBox="0 0 240 191">
  <defs>
    <linearGradient id="a" x1=".645%" x2="99.364%" y1="0%" y2="79.854%">
      <stop stop-color="#3B92FF" offset="0%"/>
      <stop stop-color="#50AECD" offset="47.164%"/>
      <stop stop-color="#3BFFE2" offset="100%"/>
    </linearGradient>
  </defs>
  <g fill="none" fill-rule="evenodd">
    <polygon fill="#C8CACC" points="102.464 142.967 97.332 161.178 80.08 174.253 80.08 177.055 120.001 177.055 159.92 177.055 159.92 174.253 142.67 161.178 137.537 142.967 120.001 142.735"/>
    <polygon fill="#FFFFFF" points="80.08 175.654 80.08 177.055 120.001 177.055 159.92 177.055 159.92 175.654"/>
    <path fill="#666666" d="M30.9290625,0.0777083333 L209.070469,0.0777083333 C214.923281,0.0777083333 219.712031,4.86645833 219.712031,10.7183333 L219.712031,120.455052 L20.2889062,120.455052 L20.2889062,10.7183333 C20.2889062,4.86645833 25.0771875,0.0777083333 30.9290625,0.0777083333 L30.9290625,0.0777083333 Z"/>
    <path fill="url(#a)" d="M27.51375,113.22974 L212.485313,113.22974 L212.485313,10.7183333 C212.485313,8.85364583 210.934219,7.30255208 209.07,7.30255208 L30.9290625,7.30255208 C29.0648438,7.30255208 27.51375,8.85364583 27.51375,10.7183333 L27.51375,113.22974 Z"/>
    <polygon fill="#20D0C2" points="86.079 120.456 169.746 120.456 106.489 61.599 76.618 91.253"/>
    <polygon fill="#807D7D" points="86.079 120.456 169.746 120.456 161.98 113.23 83.738 113.23"/>
    <path fill="#FFFFFF" d="M97.5159375,82.4333333 C101.479219,78.4981771 101.433281,72.0252083 97.4114062,67.9752083 C94.6907812,65.2344271 90.8479687,64.3053646 87.4185937,65.2095833 L84.080625,61.8472396 C83.6817187,61.4459896 83.03625,61.4361458 82.6439062,61.8261458 L77.3826562,67.0494271 C76.9898437,67.4394271 76.9945312,68.0848958 77.3925,68.4861458 L80.5359375,71.6516146 C79.3429687,75.2070833 80.1885937,79.3325521 83.05875,82.2233333 C87.0796875,86.2742708 93.5526562,86.3675521 97.5159375,82.4333333 L97.5159375,82.4333333 Z"/>
    <path fill="#FBB429" d="M84.4701563,54.3017708 L76.861875,46.6377083 C74.2579688,44.0136458 69.9810937,43.9995833 67.3575,46.6030208 L61.9054687,52.0142708 C59.281875,54.6200521 59.2664063,58.8973958 61.8707813,61.5200521 L69.4809375,69.1855208 C67.7226562,75.9566146 69.4120313,83.9961458 76.618125,91.2556771 L106.490156,61.6002083 C99.283125,54.3392708 91.25625,52.5922396 84.4701563,54.3017708 L84.4701563,54.3017708 Z"/>
    <path fill="#F5A209" d="M62.0479688,51.8727083 L61.9054687,52.0138021 C59.281875,54.6195833 59.2664063,58.8969271 61.8707813,61.5195833 L69.4809375,69.1850521 C67.7226562,75.9561458 69.4120312,83.9956771 76.618125,91.2552083 L77.5260938,90.3538021 C70.9171875,83.0534896 69.4134375,75.1170833 71.1642188,68.3769271 L63.174375,60.3298958 C60.9023438,58.0414583 60.5301562,54.5548958 62.0479688,51.8727083 Z"/>
    <path fill="#EAEAEA" d="M219.711562,120.455521 L219.711562,132.093177 C219.711562,137.947396 214.432969,142.735208 207.980625,142.735208 L32.0189062,142.735208 C25.5675,142.735208 20.2889062,137.947396 20.2889062,132.093177 L20.2889062,120.455521 L219.711562,120.455521 Z"/>
    <path fill="#0E7886" d="M68.2242187,55.7778646 L37.3275,109.313802 L37.3275,171.141932 L47.7140625,171.141932 L43.3420312,109.313802 L72.1959375,57.8548958 C73.2628125,55.5111458 69.616875,53.7228646 68.2242187,55.7778646 Z"/>
    <polygon fill="#807D7D" points=".005 186.985 239.995 186.985 239.995 177.055 .005 177.055"/>
    <path fill="#FBB429" d="M78.9435937 171.141932L24.8540625 171.141932C20.8626562 171.141932 16.0359375 177.179905 20.0301562 177.179905L82.1601562 177.179905C86.1539062 177.179891 82.936875 171.141932 78.9435937 171.141932zM40.335 105.128333C37.955625 105.128333 36.0267141 107.056771 36.0267141 109.436146 36.0267141 111.81599 37.9556203 113.744427 40.335 113.744427 42.714375 113.744427 44.6428125 111.81599 44.6428125 109.436146 44.6428125 107.056771 42.714375 105.128333 40.335 105.128333z"/>
    <path fill="#FFFFFF" d="M40.335,107.309896 C39.1607813,107.309896 38.2087453,108.261927 38.2087453,109.436615 C38.2087453,110.610833 39.1607766,111.562396 40.335,111.562396 C41.5096828,111.562396 42.4607766,110.610833 42.4607766,109.436615 C42.4607813,108.261927 41.5096875,107.309896 40.335,107.309896 Z"/>
    <polygon fill="#FF5B61" points="72.282 169.294 61.166 167.446 61.166 171.142 72.282 171.142"/>
    <path fill="#FFFFFF" d="M104.635781,147.918177 L124.628906,147.918177 C125.748281,147.918177 126.66375,148.834115 126.66375,149.95349 L126.66375,175.018958 C126.66375,176.138333 125.748281,177.055208 124.628906,177.055208 L104.635781,177.055208 C103.516406,177.055208 102.600469,176.138807 102.600469,175.018958 L102.600469,149.95349 C102.6,148.834115 103.515937,147.918177 104.635781,147.918177 Z"/>
    <path fill="#ECF0F1" d="M126.664219 153.645833L132.292031 153.645833C134.152031 153.645833 135.672656 154.96349 135.672656 156.575521L135.672656 170.420521C135.672656 172.031624 134.152031 173.350682 132.292031 173.350682L126.664219 173.350682 126.664219 171.020521 132.292031 171.020521C132.608906 171.020521 133.303594 170.812869 133.303594 170.420521L133.303594 156.575521C133.303594 156.182708 132.608438 155.975521 132.292031 155.975521L126.664219 155.975521 126.664219 153.645833zM123.922969 177.055208L123.922969 147.918177 124.628438 147.918177C125.747813 147.918177 126.66375 148.819583 126.66375 149.920208L126.66375 175.052235C126.66375 176.15473 125.747813 177.055208 124.628438 177.055208L123.922969 177.055208z"/>
    <polygon fill="#20D0C2" points="110.557 161.565 116.616 161.565 116.616 166.948 110.557 166.948"/>
    <polygon fill="#15BDB1" points="110.557 161.565 116.616 161.565 116.279 160.449 111.052 160.449"/>
    <path fill="#FBB429" d="M113.863281,147.918177 L113.863281,160.982708 C113.861281,161.159896 113.413781,161.168333 113.410781,160.982708 L113.410781,147.918177 L113.863281,147.918177 Z"/>
    <polygon fill="#666666" points="19.223 190.588 220.778 190.588 220.778 186.987 19.223 186.987"/>
    <path fill="#D0D1D4" d="M120,134.49224 C121.851563,134.49224 123.361406,132.981458 123.361406,131.130833 C123.361406,129.279271 121.851094,127.769427 120,127.769427 C118.148438,127.769427 116.638594,129.27974 116.638594,131.130833 C116.638125,132.981458 118.148438,134.49224 120,134.49224 Z"/>
    <path fill="#FBB429" d="M167.050312,69.7527083 C165.607031,68.6042708 163.787812,67.7136458 162.181406,66.9256771 C161.222344,66.4555208 160.316719,66.0120833 159.657656,65.5920833 C158.123437,64.6142708 157.005,62.1116146 157.163906,60.0130208 C157.231875,59.1163021 157.571719,57.9327083 158.802656,57.3889583 C160.112344,56.8105208 161.097656,57.8525521 161.4225,58.1947396 C162.104531,58.9152083 162.70125,59.9623958 163.059375,61.0691146 C163.330312,61.9044271 163.374375,62.4978646 163.347656,62.8114583 C162.869531,62.7425521 162.3975,63.0195833 162.234844,63.4920833 C162.052031,64.0259896 162.3375,64.6072396 162.870937,64.7900521 C163.712812,65.0778646 164.487187,64.8669271 164.955,64.2289583 C165.651562,66.3772396 166.516406,68.3656771 167.523281,70.1539583 C167.372344,70.0189583 167.216719,69.8858333 167.050312,69.7527083 Z M180.980625,106.72349 L180.980625,106.72349 L189.531562,106.72349 L189.531562,105.826771 C187.018594,105.665052 183.735937,100.043802 183.538594,97.0053646 L182.408437,79.6030208 C186.177656,79.1356771 189.620625,76.8402083 192.377344,73.2781771 C192.268594,73.7023958 192.216094,74.1392708 192.2175,74.5883333 C192.226406,75.9842708 192.990937,77.1720833 194.263125,77.7688021 C194.79375,78.0163021 195.360469,78.1377083 195.920156,78.1377083 C196.77375,78.1377083 197.610469,77.8559896 198.272812,77.3089583 C199.75125,76.0911458 199.912031,74.5677083 199.306875,73.6939583 C198.794062,72.9542708 197.862187,72.7672396 197.04,73.2406771 C196.551562,73.5219271 196.382812,74.1467708 196.664062,74.6352083 C196.841719,74.9450521 197.159062,75.1264583 197.490469,75.1456771 C197.401875,75.3059896 197.243906,75.5094271 196.9725,75.7320833 C196.487344,76.1328646 195.747656,76.2073958 195.130312,75.9177083 C194.806875,75.7672396 194.265469,75.3922396 194.261719,74.5780208 C194.255156,73.4253646 194.865469,72.4006771 196.182656,71.3530208 C197.451562,70.3423958 199.16625,69.5023958 200.677969,68.7617708 C201.690469,68.2663021 202.645781,67.7975521 203.401406,67.3152083 C204.463594,66.6388021 205.39875,65.4908333 206.033437,64.0827083 C206.652187,62.7111458 206.936719,61.2111458 206.834531,59.8588021 C206.677969,57.8038021 205.665937,56.2634896 203.984062,55.5191146 C202.167656,54.7184896 200.249062,55.3189583 198.719531,57.1691146 C198.664687,57.2361458 198.610781,57.3041146 198.556875,57.3734896 C198.815156,55.4825521 198.955312,53.5236458 198.961406,51.5136458 L180.979266,51.5136458 L162.998016,51.5136458 C163.004109,53.5231771 163.144266,55.4825521 163.402078,57.3734896 C163.349109,57.3041146 163.294734,57.2356771 163.238953,57.1691146 C161.709891,55.3194271 159.790359,54.7184896 157.975359,55.5191146 C156.292547,56.2634896 155.280047,57.8038021 155.124891,59.8588021 C155.021766,61.2116146 155.306297,62.7116146 155.925047,64.0827083 C156.561141,65.4908333 157.495359,66.6388021 158.557547,67.3152083 C159.313641,67.7975521 160.268953,68.2663021 161.280984,68.7617708 C162.793641,69.5028646 164.508328,70.3423958 165.777703,71.3530208 C167.094891,72.4006771 167.705672,73.4253646 167.698594,74.5780208 C167.693484,75.3922396 167.152078,75.7677083 166.830047,75.9177083 C166.212234,76.2073958 165.472031,76.1323958 164.986875,75.7320833 C164.715469,75.5094271 164.558953,75.3059896 164.468906,75.1456771 C164.801719,75.1264583 165.117656,74.9450521 165.296719,74.6352083 C165.5775,74.1467708 165.409219,73.5219271 164.919844,73.2406771 C164.097656,72.7672396 163.165312,72.9538021 162.653906,73.6939583 C162.048281,74.5681771 162.209062,76.0916146 163.686562,77.3089583 C164.350312,77.8559896 165.186562,78.1377083 166.039219,78.1377083 C166.600312,78.1377083 167.167031,78.0163021 167.69625,77.7688021 C168.969375,77.1720833 169.733953,75.9842708 169.741922,74.5883333 C169.744734,74.1392708 169.691297,73.7023958 169.582547,73.2781771 C172.339734,76.8402083 175.782703,79.1356771 179.551453,79.6030208 L178.422234,97.0053646 C178.224891,100.043802 174.941297,105.664583 172.428328,105.826771 L172.428328,106.72349 L180.980625,106.72349 L180.980625,106.72349 Z M194.911406,69.7527083 L194.911406,69.7527083 C194.745,69.8858333 194.590312,70.0189583 194.440312,70.1539583 C195.445781,68.3656771 196.311094,66.3772396 197.007187,64.2289583 C197.476406,64.8664583 198.249375,65.0778646 199.09125,64.7900521 C199.625625,64.6072396 199.910156,64.0259896 199.727344,63.4920833 C199.566094,63.0195833 199.092656,62.7420833 198.615469,62.8114583 C198.587812,62.4983333 198.633281,61.9048958 198.90375,61.0691146 C199.261406,59.9623958 199.858594,58.9152083 200.540625,58.1947396 C200.864531,57.8525521 201.850312,56.8105208 203.160469,57.3889583 C204.390937,57.9327083 204.73125,59.1163021 204.79875,60.0130208 C204.958594,62.1116146 203.840156,64.6138021 202.305469,65.5920833 C201.645,66.0125521 200.739375,66.4555208 199.780312,66.9256771 C198.175312,67.7136458 196.354687,68.6047396 194.911406,69.7527083 L194.911406,69.7527083 Z"/>
    <path fill="#F4CC20" d="M181.028505,68.0788394 L181.028505,75.6579501 L181.028505,78.5970977 L181.028505,82.3697796 L181.028505,97.6122854 L181.028505,106.723958 C181.028505,106.723958 188.073323,106.723958 189.532031,106.723958 L189.532031,105.82724 C187.019062,105.665521 183.736406,100.044271 183.539062,97.0058333 L182.408906,79.6034896 C186.156094,79.1394271 189.580781,76.8673958 192.330937,73.3405208 C192.377812,73.2786458 193.694531,71.7341146 194.672344,69.9500521 C194.592656,70.0175521 194.515312,70.0859896 194.439844,70.1539583 C194.72625,69.6448958 195.001406,69.1189583 195.264375,68.5780208 C196.145156,66.4817708 197.007187,64.2289583 197.007187,64.2289583 C197.527453,62.5691146 198.219844,59.7889583 198.558703,57.3730208 C198.816984,55.4820833 198.957187,53.5231771 198.963281,51.5131771 L181.028505,51.5131771 L181.028505,59.5094288 L181.028505,68.0788394 Z"/>
    <path fill="#666666" d="M193.300312,122.351615 L168.662812,122.351615 L168.662812,108.533802 C168.662812,107.536302 169.475625,106.72349 170.47125,106.72349 L191.490469,106.72349 C192.487969,106.72349 193.300781,107.536302 193.300781,108.533802 L193.300312,122.351615 L193.300312,122.351615 Z"/>
    <path fill="#666666" d="M195.582656,125.142552 L166.378125,125.142552 L166.378125,122.806771 C166.378125,121.900208 167.115,121.162865 168.022031,121.162865 L193.939219,121.162865 C194.847187,121.162865 195.582656,121.89974 195.582656,122.806771 L195.582656,125.142552 L195.582656,125.142552 Z"/>
    <path fill="#FBB429" d="M199.403906,51.5136458 L162.558281,51.5136458 C162.116719,51.5136458 161.758125,51.1550521 161.758125,50.7130208 L161.758125,50.6966146 C161.758125,50.2550521 162.116719,49.8969271 162.558281,49.8969271 L199.403906,49.8969271 C199.845469,49.8969271 200.203594,50.2550521 200.203594,50.6966146 L200.203594,50.7130208 C200.203594,51.1550521 199.845469,51.5136458 199.403906,51.5136458 Z"/>
    <path fill="#20D0C2" d="M146.536406,140.741615 L211.552031,140.741615 L211.552031,142.935365 C208.47375,146.858802 208.982344,151.222865 211.552031,154.492396 L211.552031,156.685208 L146.536406,156.685208 C136.38,156.685208 136.379531,140.741615 146.536406,140.741615 Z"/>
    <path fill="#FFFFFF" d="M211.551562,154.492396 C208.9275,150.640677 208.72875,146.788021 211.551562,142.935365 L146.535469,142.935365 C143.478281,142.935365 140.970937,145.53974 140.970937,148.713646 C140.970937,151.888021 143.47875,154.491927 146.535469,154.491927 L211.551562,154.491927 L211.551562,154.492396 Z"/>
    <path fill="#ECF0F1" d="M210.928594,143.865365 C211.117031,143.555521 211.324687,143.24474 211.552031,142.935365 L146.535469,142.935365 C140.317969,142.935365 138.574688,151.846771 144.845156,154.214896 C140.563594,152.131302 142.162031,145.025521 146.656406,143.865365 L210.928594,143.865365 Z"/>
    <path fill="#ECF0F1" d="M210.285469,144.965521 L142.312031,144.965521 C142.438125,144.813646 142.569844,144.667865 142.710469,144.529583 L210.505781,144.529583 C210.428438,144.674427 210.354844,144.820208 210.285469,144.965521 L210.285469,144.965521 Z M141.743906,145.788646 L141.743906,145.788646 C141.663281,145.930208 141.586875,146.07599 141.518437,146.224583 L209.799375,146.224583 C209.843437,146.079271 209.89125,145.93349 209.944219,145.788646 L141.743906,145.788646 Z M141.209062,147.04724 L141.209062,147.04724 C141.166406,147.190208 141.129844,147.336458 141.098437,147.483646 L209.51625,147.483646 C209.537812,147.337865 209.563125,147.193021 209.59125,147.04724 L141.209062,147.04724 Z M140.985,148.305833 L140.985,148.305833 C140.975625,148.440833 140.971406,148.576771 140.971406,148.713646 L140.971406,148.743177 L209.430469,148.743177 C209.429531,148.597396 209.432812,148.452552 209.439375,148.306302 L140.985,148.306302 L140.985,148.305833 Z M141.031875,149.565833 L141.031875,149.565833 C141.052969,149.713021 141.079219,149.858802 141.111562,150.001302 L209.533125,150.001302 C209.510625,149.856458 209.490469,149.711615 209.476406,149.565833 L141.031875,149.565833 Z M141.358125,150.824427 L141.358125,150.824427 C141.414844,150.972552 141.477656,151.118333 141.546094,151.260365 L209.825625,151.260365 C209.780625,151.11599 209.739844,150.970208 209.701875,150.824427 L141.358125,150.824427 Z M142.024687,152.083021 L142.024687,152.083021 C142.130156,152.234427 142.241719,152.37974 142.359375,152.519427 L210.320156,152.519427 C210.251719,152.375521 210.186562,152.229271 210.125156,152.083021 L142.024687,152.083021 L142.024687,152.083021 Z M143.217656,153.342552 L143.217656,153.342552 C143.424375,153.502865 143.641875,153.649115 143.869219,153.778958 L211.036406,153.778958 C210.940781,153.635521 210.848906,153.489271 210.760781,153.342552 L143.217656,153.342552 Z"/>
    <path fill="#FF5B61" d="M217.126875,156.685208 L141.710156,156.685208 L141.710156,159.486458 C145.281094,164.49974 144.690937,170.075999 141.710156,174.253494 L141.710156,177.055208 L217.126875,177.055208 C228.908906,177.055677 228.908906,156.685208 217.126875,156.685208 L217.126875,156.685208 Z"/>
    <path fill="#FFFFFF" d="M141.710156,174.253963 C144.754687,169.331146 144.984844,164.408802 141.710156,159.486927 L217.126875,159.486927 C220.674375,159.486927 223.583906,162.815521 223.583906,166.871146 C223.583906,170.926307 220.673906,174.253963 217.126875,174.253963 L141.710156,174.253963 Z"/>
    <path fill="#ECF0F1" d="M142.432969,160.675677 C142.214531,160.279115 141.974531,159.882083 141.710156,159.486458 L217.126875,159.486458 C224.340469,159.486458 226.362656,170.873338 219.087656,173.899583 C224.055469,171.235672 222.200625,162.157396 216.987656,160.675677 L142.432969,160.675677 Z"/>
    <path fill="#ECF0F1" d="M143.179687,162.08099 L222.028125,162.08099 C221.881875,161.886458 221.727187,161.700365 221.565469,161.524115 L142.92375,161.524115 C143.01375,161.708802 143.099531,161.895365 143.179687,162.08099 L143.179687,162.08099 Z M222.685781,163.132396 L222.685781,163.132396 C222.779531,163.313802 222.867187,163.499896 222.947812,163.690208 L143.743125,163.690208 C143.691562,163.503646 143.635781,163.31849 143.575312,163.132396 L222.685781,163.132396 L222.685781,163.132396 Z M223.306875,164.740677 L223.306875,164.740677 C223.355156,164.923958 223.397344,165.110521 223.434375,165.298021 L144.070312,165.298021 C144.045937,165.112865 144.016875,164.926771 143.983125,164.740677 L223.306875,164.740677 Z M223.567031,166.349896 L223.567031,166.349896 C223.577344,166.521458 223.583438,166.695365 223.583438,166.871146 L223.5825,166.907708 L144.1725,166.907708 C144.172969,166.722083 144.169687,166.53599 144.162187,166.350365 L223.567031,166.350365 L223.567031,166.349896 Z M223.511719,167.958177 L223.511719,167.958177 C223.487813,168.146146 223.456875,168.33224 223.419844,168.515526 L144.052969,168.515526 C144.079688,168.330833 144.101719,168.144271 144.119531,167.958177 L223.511719,167.958177 L223.511719,167.958177 Z M223.133906,169.567396 L223.133906,169.567396 C223.067344,169.75724 222.994219,169.942391 222.916406,170.124266 L143.712187,170.124266 C143.764687,169.939569 143.812031,169.754418 143.855625,169.567396 L223.133906,169.567396 L223.133906,169.567396 Z M222.360937,171.175677 L222.360937,171.175677 C222.238125,171.369266 222.108281,171.55536 221.970937,171.73349 L143.138437,171.73349 C143.218594,171.548797 143.294062,171.362713 143.364375,171.175677 L222.360937,171.175677 Z M220.977187,172.783958 L220.977187,172.783958 C220.737187,172.989266 220.484531,173.175833 220.220625,173.341297 L142.30875,173.341297 C142.419844,173.158021 142.525781,172.972855 142.627969,172.783958 L220.977187,172.783958 Z"/>
    <path fill="#FBB429" d="M205.66875,124.771771 L155.468437,124.771771 L155.468437,126.964115 C157.845469,130.887552 157.452656,135.251615 155.468437,138.521615 L155.468437,140.713958 L205.66875,140.713958 C213.512344,140.714427 213.512812,124.771771 205.66875,124.771771 L205.66875,124.771771 Z"/>
    <path fill="#FFFFFF" d="M155.468437,138.521615 C157.495312,134.669427 157.648125,130.816302 155.468437,126.964115 L205.669687,126.964115 C208.029375,126.964115 209.967187,129.569427 209.967187,132.743802 C209.967187,135.917708 208.029375,138.521615 205.669687,138.521615 L155.468437,138.521615 L155.468437,138.521615 Z"/>
    <path fill="#ECF0F1" d="M155.949375,127.895052 C155.804531,127.584271 155.644687,127.273958 155.468437,126.964115 L205.669687,126.964115 C210.470156,126.964115 211.816875,135.875521 206.974219,138.244115 C210.28125,136.160052 209.046094,129.05474 205.576406,127.895052 L155.949375,127.895052 Z"/>
    <path fill="#ECF0F1" d="M156.446719,128.995208 L208.931719,128.995208 C208.834688,128.841927 208.731562,128.697552 208.624219,128.558333 L156.276562,128.558333 C156.336562,128.704115 156.392812,128.848958 156.446719,128.995208 Z M209.369531,129.817396 L209.369531,129.817396 C209.432344,129.959896 209.49,130.10474 209.543437,130.254271 L156.821719,130.254271 C156.7875,130.108021 156.750937,129.963177 156.710156,129.817396 L209.369531,129.817396 Z M209.782969,131.076927 L209.782969,131.076927 C209.814844,131.220833 209.843906,131.365208 209.867344,131.513333 L157.039219,131.513333 C157.023281,131.367552 157.004062,131.222708 156.981094,131.076927 L209.782969,131.076927 L209.782969,131.076927 Z M209.955937,132.33599 L209.955937,132.33599 C209.9625,132.470052 209.967656,132.606927 209.967656,132.743802 L209.967187,132.771927 L157.107187,132.771927 C157.107656,132.627083 157.104844,132.481302 157.100156,132.33599 L209.955937,132.33599 L209.955937,132.33599 Z M209.920312,133.595052 L209.920312,133.595052 C209.903906,133.74224 209.882812,133.887083 209.858437,134.03099 L157.027969,134.03099 C157.045312,133.886146 157.060781,133.740365 157.071562,133.595052 L209.920312,133.595052 Z M209.667656,134.853177 L209.667656,134.853177 C209.624062,135.00224 209.574844,135.147083 209.523281,135.290052 L156.800625,135.290052 C156.835312,135.145208 156.867656,134.999427 156.896719,134.853177 L209.667656,134.853177 L209.667656,134.853177 Z M209.152969,136.112708 L209.152969,136.112708 C209.072344,136.263646 208.985625,136.409896 208.894219,136.549583 L156.42,136.549583 C156.472969,136.405208 156.522656,136.259427 156.570469,136.112708 L209.152969,136.112708 Z M208.232812,137.37224 L208.232812,137.37224 C208.072969,137.532552 207.905156,137.678333 207.729375,137.807708 L155.867344,137.807708 C155.940937,137.663802 156.011719,137.519427 156.07875,137.37224 L208.232812,137.37224 Z"/>
    <path fill="#FFFFFF" d="M69.984375,55.9494271 C69.2671875,55.9494271 68.6859375,56.5306771 68.6859375,57.2483333 C68.6859375,57.9650521 69.2671875,58.5463021 69.984375,58.5463021 C70.7020313,58.5463021 71.2832813,57.9650521 71.2832813,57.2483333 C71.2832813,56.5306771 70.7020313,55.9494271 69.984375,55.9494271 Z"/>
  </g>
</svg>
