<svg xmlns="http://www.w3.org/2000/svg" width="238" height="238" viewBox="0 0 238 238">
  <defs>
    <linearGradient id="a" x1=".645%" x2="99.364%" y1="0%" y2="79.854%">
      <stop stop-color="#3B92FF" offset="0%"/>
      <stop stop-color="#50AECD" offset="47.164%"/>
      <stop stop-color="#3BFFE2" offset="100%"/>
    </linearGradient>
  </defs>
  <g fill="none" fill-rule="evenodd">
    <path fill="url(#a)" d="M118.999535,0 C184.72312,0 238,53.2776016 238,119 C238,184.722398 184.72312,238 118.999535,238 C53.2778097,238 0,184.722398 0,119 C0,53.2776016 53.2778097,0 118.999535,0 Z"/>
    <path fill="#0E7886" d="M75.4597226,34 L161.53935,34 C162.890922,34 164,35.112972 164,36.4704253 L164,202.529579 C164,203.887037 162.890922,205 161.53935,205 L75.4597226,205 C74.1090776,205 73,203.887023 73,202.529579 L73,36.4704253 C73,35.112972 74.1090776,34 75.4597226,34 Z"/>
    <polygon fill="#FFFFFF" points="77 57 159 57 159 182 77 182"/>
    <path fill="#20D0C2" d="M98.7262521,44 L140.273748,44 C141.223093,44 142,44.678085 142,45.5006069 C142,46.323938 141.224025,47 140.273748,47 L98.7262521,47 C97.7759746,47 97,46.3231288 97,45.5006069 C97,44.678085 97.7759746,44 98.7262521,44 Z"/>
    <path fill="#076673" d="M118,186 C121.864927,186 125,189.135372 125,193.000671 C125,196.865956 121.864927,200 118,200 C114.134182,200 111,196.86597 111,193.000671 C111,189.135372 114.135073,186 118,186 Z"/>
    <path fill="#20D0C2" d="M117.999527,186 C121.864746,186 125,189.134836 125,192.999287 C125,196.865164 121.864746,200 117.999527,200 C114.134307,200 111,196.865164 111,192.999287 C111,189.134836 114.134781,186 117.999527,186 Z"/>
    <path fill="#ECF0F1" d="M86.0004903,43 C88.2100748,43 90,44.7899252 90,47.0004903 C90,49.2100748 88.2100748,51 86.0004903,51 C83.7909057,51 82,49.2100748 82,47.0004903 C82,44.7909057 83.7899252,43 86.0004903,43 Z"/>
    <path fill="#20D0C2" d="M85.5,43 C87.4331849,43 89,44.5658981 89,46.5 C89,48.4331849 87.4327263,50 85.5,50 C83.5658981,50 82,48.4327263 82,46.5 C82,44.5658981 83.5658981,43 85.5,43 Z"/>
    <path fill="#ECF0F1" d="M85.5005887,45 C86.3288854,45 87,45.6711146 87,46.5005887 C87,47.3288854 86.3288854,48 85.5005887,48 C84.6711146,48 84,47.3288854 84,46.5005887 C84,45.6711146 84.6711146,45 85.5005887,45 Z"/>
    <path fill="#15BDB1" d="M119.500702,77 C133.58318,77 145,88.4168763 145,102.499532 C145,116.583592 133.582711,128 119.500702,128 C105.417289,128 94,116.582187 94,102.499532 C94,88.4154718 105.417289,77 119.500702,77 Z"/>
    <path fill="#20D0C2" d="M119.718299,77 C124.360399,77 128.714463,78.204364 132.474039,80.3069212 C138.285281,84.9193396 142,91.9589579 142,99.847819 C142,113.740028 130.484231,125 116.280756,125 C111.639601,125 107.284593,123.79656 103.525961,121.693079 C97.7156629,117.081584 94,110.041966 94,102.153105 C94,88.2608955 105.515769,77 119.719244,77 L119.718299,77 Z"/>
    <path fill="#ECF0F1" d="M119.5,77 C126.541702,77 132.917052,79.855198 137.531627,84.4683734 C142.145735,89.0824815 145,95.4582975 145,102.5 C145,109.542635 142.144802,115.917985 137.531627,120.531627 C132.917519,125.145735 126.541702,128 119.5,128 C112.457365,128 106.082015,125.145735 101.468373,120.531627 C96.8542653,115.918451 94,109.543101 94,102.5 C94,95.4582975 96.8542653,89.0829478 101.468373,84.4683734 C106.081549,79.853799 112.457365,77 119.5,77 Z M139.456076,115.679236 L139.456076,115.679236 C139.597833,115.756176 139.695758,115.884877 139.737725,116.030831 C142.227805,112.312965 143.72092,107.870458 143.834699,103.087547 L134.185874,103.087547 C134.110798,106.584383 133.41698,110.070495 132.104745,113.33511 C135.054604,113.896544 137.6095,114.678074 139.456076,115.679236 Z M139.22572,116.765265 L139.22572,116.765265 C139.117537,116.773658 139.006556,116.753141 138.903968,116.696251 C137.101692,115.718405 134.572442,114.960656 131.641236,114.41974 C131.37684,115.004956 131.092393,115.58271 130.787894,116.150206 C128.49413,120.415982 125.041593,124.154366 120.431681,126.823041 C126.783716,126.583359 132.511365,123.91142 136.712325,119.71046 C137.625354,118.797431 138.466106,117.81259 139.225254,116.763866 L139.22572,116.765265 Z M118.566453,126.82444 L118.566453,126.82444 C113.958407,124.155299 110.504937,120.416915 108.211173,116.151605 C107.908074,115.587373 107.624093,115.011484 107.361095,114.430465 C104.435019,114.96905 101.904837,115.725866 100.08997,116.69765 C99.9892475,116.751275 99.8782664,116.772726 99.7710158,116.764332 C100.53063,117.813989 101.371848,118.79883 102.28581,119.713258 C106.485837,123.914218 112.214419,126.586157 118.564122,126.825839 L118.566453,126.82444 Z M99.2641401,116.033163 L99.2641401,116.033163 C99.3051751,115.887209 99.4030996,115.757575 99.5481211,115.679702 C101.406821,114.684603 103.958919,113.906336 106.899451,113.346768 C105.585398,110.078422 104.890601,106.589046 104.814593,103.088013 L95.1657676,103.088013 C95.2781476,107.871857 96.7731279,112.315297 99.2641401,116.033163 Z M95.164835,101.930173 L95.164835,101.930173 L104.811795,101.930173 C104.878477,98.1446923 105.671199,94.3722684 107.187629,90.8828929 C104.142178,90.3223919 101.49402,89.5320015 99.5774984,88.5107891 C96.896233,92.324248 95.2800128,96.9416202 95.164835,101.930173 Z M100.270897,87.572113 L100.270897,87.572113 C102.141254,88.5345707 104.718533,89.2778641 107.684712,89.8043248 C107.868904,89.428015 108.059157,89.055902 108.259203,88.6879857 C110.552034,84.4758343 113.984987,80.7962055 118.557127,78.1764926 C112.210222,78.4180397 106.485837,81.0890464 102.288141,85.2872086 C101.569096,86.0053214 100.894816,86.7691323 100.270897,87.572113 Z M120.443805,78.1760263 L120.443805,78.1760263 C125.015946,80.7957392 128.448898,84.475368 130.740797,88.6875194 C130.943175,89.0586998 131.135759,89.434077 131.319484,89.812252 C134.292658,89.2857914 136.871336,88.5383012 138.72817,87.5707141 C138.105184,86.7677334 137.431837,86.0048551 136.712791,85.2862759 C132.515096,81.08858 126.790244,78.4175734 120.443805,78.1760263 Z M139.425299,88.5131206 L139.425299,88.5131206 C137.519036,89.5389961 134.871811,90.3331169 131.817034,90.8940843 C133.331599,94.3815946 134.12199,98.1484228 134.187739,101.931105 L143.835631,101.931105 C143.72092,96.9425528 142.105632,92.3251806 139.425299,88.5131206 Z M120.07962,79.3007589 L120.07962,79.3007589 L120.07962,90.7532596 C123.566197,90.7304105 127.027594,90.4818689 130.129469,90.0090336 C129.999835,89.7511658 129.865073,89.4951632 129.727512,89.2410259 C127.570842,85.2755509 124.354723,81.8024961 120.07962,79.3007589 Z M120.07962,91.9120326 L120.07962,91.9120326 L120.07962,101.931105 L133.035028,101.931105 C132.966947,98.2123068 132.170495,94.5088964 130.644738,91.0945963 C127.387583,91.6159276 123.741995,91.8873183 120.07962,91.9110999 L120.07962,91.9120326 Z M120.07962,103.088946 L120.07962,103.088946 L120.07962,112.265868 C123.853909,112.290582 127.609546,112.579226 130.942708,113.130401 C132.258627,109.937131 132.954823,106.519567 133.032696,103.089412 L120.079153,103.089412 L120.079153,103.088946 L120.07962,103.088946 Z M120.07962,113.423709 L120.07962,113.423709 L120.07962,125.695511 C124.380369,123.149008 127.611877,119.621395 129.771811,115.603228 C130.016622,115.147646 130.246978,114.686002 130.464744,114.219228 C127.277535,113.71142 123.692567,113.445159 120.07962,113.42231 L120.07962,113.423709 Z M118.922246,125.695511 L118.922246,125.695511 L118.922246,113.423709 C115.314428,113.450288 111.730392,113.719813 108.541318,114.227622 C108.758151,114.69253 108.987574,115.151842 109.230054,115.60416 C111.389988,119.622328 114.621496,123.149474 118.922246,125.696443 L118.922246,125.695511 Z M118.922246,112.265868 L118.922246,112.265868 L118.922246,103.088946 L105.968703,103.088946 C106.045643,106.521898 106.743705,109.944592 108.062887,113.140194 C111.398382,112.586221 115.153086,112.295245 118.920847,112.266334 L118.922246,112.266334 L118.922246,112.265868 Z M118.922246,101.931105 L118.922246,101.931105 L118.922246,91.9110999 C115.265,91.8831215 111.620344,91.6080004 108.361324,91.0866691 C106.832303,94.5033007 106.033519,98.209509 105.965905,101.932504 L118.922246,101.932504 L118.922246,101.931105 Z M118.922246,90.7532596 L118.922246,90.7532596 L118.922246,79.3007589 C114.648075,81.8020298 111.431489,85.2750846 109.27342,89.2405596 C109.136793,89.4923654 109.003895,89.7455701 108.876593,90.0015726 C111.981265,90.4758069 115.439865,90.7276127 118.922246,90.7532596 Z"/>
    <path fill="#666666" d="M134.626019,75 L135,81.6673214 C132.874139,85.3407768 126.089869,88.067834 119.409404,87.9987151 C113.043671,87.9339462 106.761834,85.2397568 105.03555,81.8476108 L105,75.3180439 L119.223599,79.3221102 L134.625071,75.0029001 L134.626019,75 Z"/>
    <polygon fill="#807D7D" points="96 72.5 118.5 65 141 72.5 118.5 80"/>
    <path fill="#FF5B61" d="M104.374195,88.0735333 L103.000786,94.7946437 C102.977896,94.9042527 103.460445,95.0521304 103.69244,94.8343297 C103.994961,95.1116594 104.396467,94.9977983 104.517722,94.8059826 C104.67053,94.996381 105.028111,95.100793 105.288563,94.8163765 C105.519321,95.0351221 106.034658,94.8829923 105.998158,94.7006256 L104.631554,88.0683363 C104.597529,87.9681763 104.393992,87.9851846 104.37667,88.0735333 L104.374195,88.0735333 Z"/>
    <path fill="#FBB429" d="M118.673757,71.0110537 C118.80811,70.9696273 118.949799,71.0482434 118.989233,71.1866452 C119.029585,71.3245763 118.953008,71.470981 118.818197,71.5114659 L104.508522,75.9280857 L104.508522,88.7382604 C104.508522,88.8823113 104.395262,89 104.254949,89 C104.114635,89 104,88.8827821 104,88.7382604 L104,75.7336641 L104.000917,75.7336641 C104.000917,75.6216245 104.072908,75.5175877 104.182041,75.4836934 L118.673757,71.0101122 L118.673757,71.0110537 Z"/>
    <path fill="#FFFFFF" d="M104,88 C104.552429,88 105,88.4475715 105,89 C105,89.5524285 104.55379,90 104,90 C103.448479,90 103,89.5537903 103,89 C103.000454,88.4484793 103.447571,88 104,88 Z"/>
    <path fill="#ECF0F1" d="M104.807737,88.5464596 C104.807737,89.0318505 104.536252,89.4451171 104.157285,89.5993683 C104.053046,89.6425375 103.940931,89.6657015 103.82233,89.6657015 L103.803799,89.6657015 C103.467918,89.6588576 103.173732,89.4603843 103,89.1618847 C103.103312,89.5683074 103.395182,89.8826007 103.761177,89.9731508 C103.831596,89.9915767 103.905258,90 103.980774,90 C104.059532,90 104.135047,89.9905238 104.20732,89.9720979 C104.661802,89.8536457 105,89.3929982 105,88.8402211 C105,88.5096078 104.87723,88.2111082 104.682187,88 C104.761872,88.161095 104.80681,88.3479863 104.80681,88.5454067 L104.807737,88.5464596 Z"/>
    <path fill="#20D0C2" d="M86.7122265,141 L144,141 L144,142.925793 C141.287408,146.372169 141.735217,150.203704 144,153.074207 L144,155 L86.7122265,155 C77.7630591,155 77.7621232,141 86.7122265,141 Z"/>
    <path fill="#FFFFFF" d="M144,153 C141.6951,149.666973 141.521101,146.333027 144,143 L86.8887585,143 C84.2032067,143 82,145.254181 82,148.000459 C82,150.746738 84.2041397,153 86.8887585,153 L144,153 Z"/>
    <path fill="#ECF0F1" d="M143.453205,143.825291 C143.618689,143.550351 143.799555,143.27494 144,143 L86.9296484,143 C81.4719572,143 79.9406525,150.901229 85.4463572,153 C81.6868526,151.152159 83.0904321,144.853491 87.0354646,143.82482 L143.453205,143.82482 L143.453205,143.825291 Z"/>
    <path fill="#ECF0F1" d="M142.346268,145.424636 L83.1673778,145.424636 C83.2764872,145.276375 83.3934562,145.134313 83.5150484,145 L142.53721,145 C142.46971,145.141029 142.405909,145.282574 142.345806,145.424636 L142.346268,145.424636 Z M82.674074,146.224314 L82.674074,146.224314 C82.6047248,146.362243 82.538612,146.503272 82.4785093,146.64895 L141.922314,146.64895 C141.961149,146.507921 142.003683,146.366376 142.048529,146.224314 L82.6731494,146.224314 L82.674074,146.224314 Z M82.2080475,147.449661 L82.2080475,147.449661 C82.1724483,147.588624 82.139623,147.729652 82.1123457,147.873264 L141.676818,147.873264 C141.696235,147.733268 141.716578,147.589657 141.742931,147.449661 L82.2080475,147.449661 Z M82.0134075,148.673975 L82.0134075,148.673975 C82.004161,148.805189 82,148.936919 82,149.071232 L82,149.099644 L141.600996,149.099644 C141.600071,148.957066 141.602845,148.81707 141.607931,148.675009 L82.0134075,148.675009 L82.0134075,148.673975 Z M82.0531677,149.899839 L82.0531677,149.899839 C82.0725855,150.043451 82.0961642,150.184479 82.1225169,150.324475 L141.689763,150.324475 C141.66942,150.184479 141.653239,150.041901 141.639831,149.899839 L82.052243,149.899839 L82.0531677,149.899839 Z M82.3374993,151.125187 L82.3374993,151.125187 C82.3874307,151.269831 82.4415231,151.409827 82.5007011,151.549822 L141.945892,151.549822 C141.907057,151.409827 141.870533,151.267248 141.837708,151.125187 L82.3374993,151.125187 Z M82.9177208,152.349501 L82.9177208,152.349501 C83.0092617,152.496212 83.1081999,152.637757 83.2103743,152.774136 L142.37632,152.774136 C142.317142,152.634141 142.260275,152.492596 142.207108,152.349501 L82.9177208,152.349501 Z M83.9574962,153.575364 L83.9574962,153.575364 C84.1368794,153.731374 84.3264338,153.873952 84.5252348,154 L143,154 C142.917243,153.861038 142.837723,153.720009 142.760514,153.575364 L83.9574962,153.575364 Z"/>
    <path fill="#FF5B61" d="M148.238134,155.000938 L82,155.000938 L82,157.475704 C85.13574,161.905787 84.6184805,166.832795 82,170.525235 L82,173 L148.238134,173 C158.586589,173 158.587988,155 148.238134,155 L148.238134,155.000938 Z"/>
    <path fill="#FFFFFF" d="M82,170 C84.6401876,165.666199 84.8391342,161.332866 82,157 L147.400942,157 C150.476325,157 153,159.930025 153,163.499533 C153,167.069975 150.476786,170 147.400942,170 L82,170 Z"/>
    <path fill="#ECF0F1" d="M82.6258689,158.072876 C82.4371878,157.715091 82.2282581,157.356827 82,157 L147.354515,157 C153.60492,157 155.358273,167.269914 149.053105,170 C153.358254,167.596566 151.751244,159.409181 147.233023,158.072876 L82.6258689,158.072876 Z"/>
    <path fill="#ECF0F1" d="M83.759909,159.471334 L152.64302,159.471334 C152.514976,159.305985 152.379974,159.148275 152.238013,159 L83.5367612,159 C83.6156284,159.156362 83.6893925,159.314073 83.759909,159.471334 Z M153.217823,160.360981 L153.217823,160.360981 C153.299473,160.514648 153.376485,160.67101 153.447001,160.832764 L84.2516695,160.832764 C84.2075966,160.675054 84.1584206,160.517793 84.1055331,160.360981 L153.217823,160.360981 Z M153.759687,161.722412 L153.759687,161.722412 C153.80144,161.876977 153.839482,162.033339 153.870101,162.193746 L84.5383751,162.193746 C84.5170345,162.037383 84.4924465,161.879673 84.4627553,161.722412 L153.759687,161.722412 Z M153.985618,163.082495 L153.985618,163.082495 C153.994897,163.228972 154,163.375899 154,163.523275 L154,163.555176 L84.6260569,163.555176 C84.6269847,163.398814 84.6228094,163.241104 84.6167784,163.082495 L153.985618,163.082495 Z M153.938762,164.443925 L153.938762,164.443925 C153.917421,164.603433 153.889586,164.761143 153.858039,164.916607 L84.5216738,164.916607 C84.5444061,164.760244 84.5648188,164.602534 84.5801283,164.443925 L153.938762,164.443925 Z M153.608447,165.804907 L153.608447,165.804907 C153.549993,165.965313 153.486899,166.123023 153.41731,166.277588 L84.2242979,166.277588 C84.2692986,166.121226 84.3124436,165.964414 84.3500216,165.804907 L153.60752,165.804907 L153.608447,165.804907 Z M152.933437,167.165888 L152.933437,167.165888 C152.825806,167.329439 152.713536,167.488048 152.593844,167.638569 L83.7251147,167.638569 C83.7947034,167.482207 83.8610447,167.325395 83.9227467,167.165888 L152.933437,167.165888 Z M151.723984,168.527318 L151.723984,168.527318 C151.515218,168.701653 151.293462,168.859364 151.064283,169 L83,169 C83.0969603,168.843638 83.1902092,168.686826 83.2792828,168.527318 L151.723984,168.527318 Z"/>
    <path fill="#FBB429" d="M137.861172,127.000933 L94,127.000933 L94,128.926789 C96.0768286,132.370949 95.7330104,136.20401 94,139.075542 L94,141 L137.861172,141 C144.712479,141 144.713407,127 137.861172,127 L137.861172,127.000933 Z"/>
    <path fill="#FFFFFF" d="M94,139 C95.783945,135.666054 95.9181852,132.332108 94,129 L138.215081,129 C140.294167,129 142,131.254181 142,133.999541 C142,136.747197 140.293231,139 138.215081,139 L94,139 Z"/>
    <path fill="#ECF0F1" d="M94.4234614,129.825291 C94.2944599,129.550351 94.1547083,129.27494 94,129 L138.183007,129 C142.409208,129 143.594526,136.900287 139.330933,139 C142.242347,137.151217 141.155182,130.852549 138.100278,129.82482 L94.4220592,129.82482 L94.4234614,129.82482 L94.4234614,129.825291 Z"/>
    <path fill="#ECF0F1" d="M95.5130994,130.423651 L142.079342,130.423651 C141.994061,130.276923 141.902655,130.134328 141.807009,130 L95.3623264,130 C95.4155681,130.140011 95.466454,130.282606 95.5130994,130.423651 Z M142.468996,131.225488 L142.468996,131.225488 C142.525065,131.363433 142.576893,131.503444 142.62401,131.650172 L95.8466847,131.650172 C95.8165301,131.507577 95.7835485,131.366533 95.748211,131.225488 L142.468996,131.225488 Z M142.835563,132.449943 L142.835563,132.449943 C142.864775,132.589954 142.889747,132.729966 142.911421,132.874627 L96.0398626,132.874627 C96.0252564,132.734615 96.0078233,132.590987 95.9880344,132.449943 L142.834621,132.449943 L142.835563,132.449943 Z M142.990577,133.675947 L142.990577,133.675947 C142.996702,133.805626 143,133.937887 143,134.072216 L143,134.100631 L96.1001718,134.100631 C96.1011141,133.959587 96.0982871,133.816992 96.0940466,133.675947 L142.989634,133.675947 L142.990577,133.675947 Z M142.957124,134.900402 L142.957124,134.900402 C142.942518,135.04403 142.925085,135.186108 142.90294,135.325086 L96.0299681,135.325086 C96.0445742,135.185075 96.058238,135.043513 96.0686037,134.900402 L142.957124,134.900402 Z M142.733791,136.12589 L142.733791,136.12589 C142.694213,136.269518 142.650866,136.410563 142.606106,136.549541 L95.8287804,136.549541 C95.8598773,136.409529 95.8881472,136.267968 95.913119,136.12589 L142.733791,136.12589 Z M142.277703,137.350861 L142.277703,137.350861 C142.205144,137.497589 142.127872,137.640184 142.047303,137.775545 L95.4904834,137.775545 C95.5371288,137.635534 95.5818896,137.492939 95.6242945,137.350861 L142.277703,137.350861 Z M141.461173,138.576349 L141.461173,138.576349 C141.318881,138.732377 141.170464,138.874971 141.014508,139 L95,139 C95.0664344,138.861022 95.1276859,138.719977 95.1879951,138.576349 L141.460231,138.576349 L141.461173,138.576349 Z"/>
  </g>
</svg>
