<svg xmlns="http://www.w3.org/2000/svg" width="1440" height="701" viewBox="0 0 1440 701">
    <defs>
        <linearGradient id="a" x1="50.041%" x2="49.973%" y1="130.938%" y2="29.318%">
            <stop stop-color="#FFD06B" offset="0%"/>
            <stop stop-color="#F39A6C" offset="24%"/>
            <stop stop-color="#A46E63" offset="52%"/>
            <stop stop-color="#725269" offset="73%"/>
            <stop stop-color="#1A2040" offset="100%"/>
        </linearGradient>
        <linearGradient id="b" x1="50%" x2="50%" y1="91.12%" y2="-12.679%">
            <stop stop-color="#FFD06B" stop-opacity="0" offset="1%"/>
            <stop stop-color="#F39A6C" offset="48%"/>
            <stop stop-color="#FFD06B" offset="97%"/>
        </linearGradient>
        <linearGradient id="c" x1="51.052%" x2="48.668%" y1="-40.759%" y2="164.85%">
            <stop stop-color="#FFD06B" offset="1%"/>
            <stop stop-color="#F39A6C" offset="24%"/>
            <stop stop-color="#A46E63" offset="52%"/>
            <stop stop-color="#725269" offset="73%"/>
            <stop stop-color="#1A2040" offset="97%"/>
        </linearGradient>
        <linearGradient id="d" x1="50%" x2="50%" y1="94.319%" y2="6.122%">
            <stop stop-color="#FFD06B" stop-opacity="0" offset="1%"/>
            <stop stop-color="#F39A6C" offset="48%"/>
            <stop stop-color="#FFD06B" offset="97%"/>
        </linearGradient>
        <linearGradient id="e" x1="42.654%" x2="53.915%" y1="281.321%" y2="-73.306%">
            <stop stop-color="#FFD06B" stop-opacity="0" offset="1%"/>
            <stop stop-color="#F39A6C" offset="48%"/>
            <stop stop-color="#FFD06B" offset="97%"/>
        </linearGradient>
        <linearGradient id="f" x1="36.972%" x2="64.694%" y1="22.292%" y2="92.707%">
            <stop stop-color="#FFD06B" offset="1%"/>
            <stop stop-color="#F39A6C" offset="24%"/>
            <stop stop-color="#A46E63" offset="52%"/>
            <stop stop-color="#725269" offset="73%"/>
            <stop stop-color="#1A2040" offset="97%"/>
        </linearGradient>
        <linearGradient id="g" x1="9.866%" x2="81.107%" y1="261.912%" y2="-82.068%">
            <stop stop-color="#FFD06B" stop-opacity="0" offset="1%"/>
            <stop stop-color="#F39A6C" offset="48%"/>
            <stop stop-color="#FFD06B" offset="97%"/>
        </linearGradient>
        <linearGradient id="h" x1="32.916%" x2="92.479%" y1="79.639%" y2="-10.189%">
            <stop stop-color="#FFD06B" stop-opacity="0" offset="1%"/>
            <stop stop-color="#F39A6C" offset="48%"/>
            <stop stop-color="#FFD06B" offset="97%"/>
        </linearGradient>
        <linearGradient id="i" x1="46.9%" x2="55.44%" y1="85.497%" y2="-12.309%">
            <stop stop-color="#FFD06B" stop-opacity="0" offset="1%"/>
            <stop stop-color="#F39A6C" offset="48%"/>
            <stop stop-color="#FFD06B" offset="97%"/>
        </linearGradient>
        <linearGradient id="j" x1="-5.094%" x2="68.429%" y1="673.107%" y2="-157.472%">
            <stop stop-color="#FFD06B" stop-opacity="0" offset="1%"/>
            <stop stop-color="#F39A6C" offset="48%"/>
            <stop stop-color="#FFD06B" offset="97%"/>
        </linearGradient>
    </defs>
    <g fill="none" fill-rule="evenodd" transform="translate(-164 -5)">
        <path
            fill="#FFE79A"
            d="M945.465235 343.01573C945.465235 343.01573 939.3036 342.752085 937.323895 344.383502 935.345093 346.016027 931.234565 347.064934 929.864751 347.064934 928.49584 347.064934 926.668879 347.764251 926.212455 347.064934 925.755308 346.365478 923.167338 345.759302 922.710191 345.188278 922.253948 344.617254 921.187633 344.243584 919.208831 345.188278 917.23003 346.13228 915.706567 347.647445 914.336753 347.997449 912.966035 348.346762 911.74806 348.696213 909.921822 349.046218 908.093957 349.39553 906.876705 350.561936 905.354328 350.561936 903.830866 350.561936 890.737912 349.861788 886.474821 351.261391 882.21173 352.659473 874.751864 354.059076 872.467574 354.059076 870.185996 354.059076 828.927612 355.107844 829.537503 354.990899 830.14649 354.874646 943.110448 354.990899 943.110448 354.990899L945.465235 343.01573zM1048.90631 447.093139C1048.90631 447.093139 1054.14564 443.033221 1056.39392 443.227548 1058.6386 443.422433 1063.62625 442.06801 1063.62625 442.06801 1063.62625 442.06801 1066.87455 441.350873 1068.24415 441.033277 1069.61392 440.716938 1075.6034 440.57929 1076.35156 441.033277 1077.09973 441.488521 1078.59624 437.045534 1080.3428 435.886136 1082.09099 434.726599 1084.33567 433.954318 1085.08383 432.988409 1085.83218 432.021802 1086.57692 426.999326 1086.82859 426.227045 1087.07864 425.453369 1089.82342 421.396244 1089.82342 421.396244 1089.82342 421.396244 1092.31634 421.008288 1092.81807 419.463029 1093.31456 417.918468 1097.80752 416.758233 1098.80754 416.565302 1099.80576 416.372372 1103.2969 415.598695 1105.54157 416.565302 1107.78625 417.532607 1110.28278 421.010382 1109.53804 421.975594 1108.78988 422.940805 1109.03272 427.771746 1108.5346 428.351794 1108.03811 428.930446 1105.29333 431.590989 1105.29333 431.590989 1105.29333 431.590989 1109.78106 433.374829 1110.78108 432.988409 1111.78092 432.60185 1115.77396 433.761388 1115.77396 433.761388L1119.7652 435.886136 1127.7493 438.398003 1129.74393 441.877174C1129.74393 441.877174 1134.23509 440.653559 1135.23331 440.202364 1136.23152 439.749633 1140.22457 439.170283 1140.22457 439.170283 1140.22457 439.170283 1143.27564 440.191335 1143.99749 441.033277 1144.71753 441.877174 1149.70158 441.033277 1149.70158 441.033277 1149.70158 441.033277 1149.95343 439.653587 1148.95341 437.576582 1147.95862 435.500275 1149.2579 428.544725 1149.73511 428.351794 1150.2033 428.157468 1152.94807 428.92919 1154.19454 429.317703 1155.44461 429.703564 1158.18758 429.317703 1158.93575 428.736957 1159.68752 428.157468 1163.67695 428.92919 1164.17687 428.157468 1164.67157 427.385187 1165.92163 426.610812 1166.42336 425.25974 1166.91642 423.908808 1170.66104 419.850845 1172.41283 419.271495 1174.15579 418.691447 1181.14167 415.42154 1182.39156 416.089537 1183.63983 416.758931 1188.12936 419.657356 1189.12578 419.657356 1190.12399 419.657356 1197.60817 421.202615 1198.1099 422.554944 1198.60639 423.908808 1199.35636 429.317703 1198.1099 430.670032 1196.85983 432.021802 1195.36512 433.182038 1195.36512 433.182038 1195.36512 433.182038 1201.10454 432.60185 1201.85289 432.60185 1202.60106 432.60185 1209.58694 435.886136 1209.58694 435.886136 1209.58694 435.886136 1212.83164 437.52814 1213.57981 437.576582 1214.32815 437.625024 1217.3228 440.45993 1218.31921 440.202364 1219.31761 439.94396 1222.30865 442.842385 1222.30865 444.194714 1222.30865 445.546484 1221.06219 453.470037 1220.56046 454.046735 1220.06397 454.626085 1218.56584 460.420143 1213.82643 464.673689 1209.08865 468.925839 1196.11347 480.13354 1191.87398 481.679497 1187.62926 483.221405 1168.66281 490.176956 1163.9234 488.82728 1159.18399 487.473555 1137.97989 486.894066 1132.98863 486.508344 1127.99755 486.118435 1105.2899 483.803548 1102.54855 483.417686 1099.80576 483.029173 1071.61396 477.232462 1071.61396 477.232462 1071.61396 477.232462 1058.6386 474.72255 1056.64036 473.562315 1054.64033 472.403615 1042.66589 463.322617 1042.41692 462.743128 1042.1721 462.163778 1048.90631 447.093139 1048.90631 447.093139zM1767.00057 417.092111C1767.00057 417.092111 1761.77618 413.033521 1759.53798 413.227851 1757.29618 413.422739 1752.32292 412.068991 1752.32292 412.068991 1752.32292 412.068991 1749.08596 411.351144 1747.72014 411.034241 1746.3509 410.7165 1740.38231 410.57885 1739.63432 411.034241 1738.88831 411.488934 1737.39612 407.043778 1735.65118 405.884919 1733.91325 404.725361 1731.67325 403.953766 1730.92725 402.98784 1730.18106 402.022613 1729.43865 397.001448 1729.18932 396.225804 1728.93478 395.451416 1726.20152 391.394083 1726.20152 391.394083 1726.20152 391.394083 1723.71219 391.009611 1723.21713 389.463628 1722.71685 387.916947 1718.24045 386.756691 1717.24511 386.565153 1716.24798 386.37222 1712.76673 385.597972 1710.52853 386.565153 1708.29033 387.531777 1705.801 391.009611 1706.54719 391.97414 1707.2932 392.940764 1707.04746 397.770391 1707.54432 398.349751 1708.03938 398.92925 1710.77606 401.591793 1710.77606 401.591793 1710.77606 401.591793 1706.30146 403.374406 1705.30432 402.98784 1704.30899 402.601973 1700.32926 403.76153 1700.32926 403.76153L1696.34792 405.884919 1688.38667 408.397525 1686.39259 411.876058C1686.39259 411.876058 1681.91439 410.65312 1680.92067 410.200521 1679.92893 409.750575 1675.94579 409.170517 1675.94579 409.170517 1675.94579 409.170517 1672.89992 410.191726 1672.18555 411.034241 1671.46579 411.876058 1666.49594 411.034241 1666.49594 411.034241 1666.49594 411.034241 1666.245 409.652433 1667.23854 407.576789 1668.23387 405.499749 1666.93492 398.544081 1666.46431 398.349751 1665.99567 398.157515 1663.25881 398.92925 1662.01253 399.315676 1660.76966 399.703638 1658.03101 399.315676 1657.285 398.737015 1656.53899 398.157515 1652.55927 398.92925 1652.06241 398.157515 1651.56573 397.38592 1650.31927 396.610834 1649.82421 395.25918 1649.32735 393.907387 1645.59354 389.849495 1643.85561 389.270694 1642.11247 388.691334 1635.14674 385.42207 1633.90028 386.08938 1632.65921 386.756691 1628.17921 389.655166 1627.18567 389.655166 1626.19016 389.655166 1618.72775 391.202545 1618.22909 392.55364 1617.72882 393.907387 1616.98622 399.315676 1618.22909 400.668865 1619.47555 402.022613 1620.96415 403.18217 1620.96415 403.18217 1620.96415 403.18217 1615.24129 402.601973 1614.49528 402.601973 1613.74909 402.601973 1606.78336 405.884919 1606.78336 405.884919 1606.78336 405.884919 1603.54982 407.529044 1602.80202 407.576789 1602.05601 407.623836 1599.07342 410.45893 1598.07629 410.200521 1597.08437 409.942113 1594.09836 412.843379 1594.09836 414.194334 1594.09836 415.546826 1595.34123 423.469117 1595.83809 424.047919 1596.33836 424.628675 1597.83055 430.422133 1602.55269 434.675053 1607.28022 438.926577 1620.21814 450.133071 1624.44702 451.6771 1628.67769 453.221687 1647.58601 460.178053 1652.31174 458.826958 1657.03747 457.473211 1678.18399 456.895247 1683.16067 456.506587 1688.13932 456.119463 1710.77606 453.805235 1713.51634 453.417273 1716.24798 453.028753 1744.36005 447.233898 1744.36005 447.233898L1767.00057 444.071711 1767.00057 417.092111zM1311.25834 297C1311.25834 297 1278.42909 293.130913 1273.20656 292.387541 1267.98385 291.642879 1261.63979 290.601356 1257.5404 290.304638 1253.43221 290.007204 1247.09156 288.816605 1245.22966 289.411618 1243.36075 290.007204 1241.68645 288.07266 1239.44196 287.031137 1237.20789 285.989757 1232.54514 285.989757 1232.54514 285.989757 1232.54514 285.989757 1231.61337 283.609277 1227.32081 284.055787 1223.03003 284.502441 1220.23098 286.138833 1221.35053 288.668246 1221.35053 288.668246 1216.128 288.816605 1212.95857 289.708336 1209.78915 290.601356 1207.92365 292.239182 1204.93681 292.833478 1201.95355 293.429064 1197.10121 293.429064 1195.79549 293.577423 1194.48994 293.726499 1185.16605 295.363608 1183.48654 295.363608 1181.80704 295.363608 1163.342 297 1163.342 297L1311.25834 297 1311.25834 297zM1422.06247 390.268478L1424.19446 391 1414.81095 391 1358.23177 391 1363.17708 390.475006 1368.85799 389.598243C1368.85799 389.598243 1374.91196 388.459363 1377.25994 387.934496 1379.60631 387.408235 1381.58122 388.98613 1382.07281 388.634361 1382.56957 388.283732 1385.78059 388.634361 1385.78059 388.634361 1385.78059 388.634361 1386.75144 385.983686 1389.1535 385.269005 1393.22721 384.053389 1395.91005 384.867092 1395.91005 384.867092 1396.8984 381.800955 1400.89195 381.892506 1402.87383 382.074215 1407.1794 382.46815 1407.2317 385.392593 1407.2317 385.392593 1407.2317 385.392593 1411.55138 386.793716 1413.27871 387.146118 1415.0114 387.496114 1422.06247 390.268478 1422.06247 390.268478zM1660.43736 18.3730266L1665.05822 20 1644.72639 20 1522.13906 20 1532.84689 18.8324368 1545.1608 16.8850489C1545.1608 16.8850489 1558.26843 14.3549333 1563.36338 13.1873701 1568.44421 12.0171719 1572.7239 15.5244728 1573.79559 14.7429353 1574.86891 13.9625836 1581.82076 14.7429353 1581.82076 14.7429353 1581.82076 14.7429353 1583.93407 8.85215599 1589.13153 7.26378518 1597.95783 4.56450341 1603.76719 6.37091948 1603.76719 6.37091948 1605.91762-.44368666 1614.56538-.238421089 1618.861.164863834 1628.18965 1.03981162 1628.29921 7.53980018 1628.29921 7.53980018 1628.29921 7.53980018 1637.66317 10.6534338 1641.40702 11.4349713 1645.15612 12.212688 1660.43736 18.3730266 1660.43736 18.3730266zM685.61221 213L661.84734 207.429267C661.84734 207.429267 656.59349 203.973308 652.842702 204.16445 649.090107 204.355591 645.339319 206.277142 645.339319 206.277142 645.339319 206.277142 640.335437 204.916801 637.332204 204.156954 634.330597 203.396551 630.081319 204.156954 630.081319 204.156954 630.081319 204.156954 633.082745 198.01696 628.830755 194.367083 624.575151 190.716512 619.321301 192.252447 619.321301 192.252447 619.321301 192.252447 623.576905 184.569716 614.32266 183.223673 614.32266 183.223673 613.571671 175.924613 601.564704 175.924613 601.564704 175.924613 600.814618 169.201616 593.808099 169.008392 593.808099 169.008392 584.804545 168.62486 583.050792 173.043329 583.050792 173.043329 571.044005 172.850799 573.546759 182.45633 573.546759 182.45633 562.79144 178.421532 558.790865 186.681714 558.790865 186.681714 549.035238 185.720592 550.036014 193.022289 550.036014 193.022289 537.026644 185.144529 530.022836 193.597796 530.022836 193.597796 520.516092 196.097491 522.768336 200.322737 522.768336 200.322737 513.51138 203.587693 508.76072 205.70094 504.009155 207.813632 499.506475 208.967284 497.505826 208.775449 495.502465 208.582225 492.251975 209.733795 491.252103 210.118716 490.248615 210.503775 484.742447 213 482.742702 213 480.743679 213 669.855359 213 669.855359 213L685.61221 213z"/>
        <path
            fill="url(#a)"
            d="M1737.60324,421.086127 C1727.60512,412.649367 1711.11302,406.515961 1708.6157,406.13096 C1706.11134,405.748176 1695.11667,396.544187 1695.11667,396.544187 C1695.11667,396.544187 1690.11498,390.02578 1690.11498,388.10812 C1690.11498,386.18963 1685.61934,382.355419 1685.61934,382.355419 C1685.61934,382.355419 1666.12388,381.972497 1663.62295,380.054145 C1661.1222,378.137039 1653.12402,376.219934 1653.12402,376.219934 L1641.12938,376.219934 C1641.12938,376.219934 1626.12939,358.196263 1622.12768,352.829255 C1618.13121,347.461554 1613.63394,340.558285 1609.63747,333.271401 C1605.63576,325.986595 1598.63214,306.813048 1590.63758,301.060347 C1582.64283,295.307785 1567.14385,284.187383 1564.14555,278.051898 C1561.14562,271.917105 1558.1457,270 1558.1457,270 C1558.1457,270 1556.84051,273.162434 1554.81401,277.299768 C1552.32374,282.398842 1548.7365,288.985549 1545.14927,293.00651 C1538.65187,300.293948 1521.65734,325.987287 1516.65729,332.505002 C1511.65561,339.023409 1512.15821,341.324684 1506.15818,344.775972 C1500.16176,348.22726 1498.1582,352.829948 1490.16183,357.814726 C1482.16365,362.798258 1479.66633,365.866069 1474.66808,368.933743 C1469.6664,372.002247 1474.66808,371.619325 1466.66629,374.304214 C1458.66811,376.987026 1461.16543,385.039616 1458.66811,386.957414 C1456.17079,388.875212 1454.17084,390.791624 1445.67168,392.709976 C1437.1709,394.627082 1421.17798,401.912581 1415.67893,407.281667 C1410.17626,412.65006 1403.17806,416.483578 1395.68249,419.16916 C1388.18349,421.853911 1381.18529,425.978361 1381.18529,425.978361 L1375.18526,425.944558 C1375.18526,425.944558 1371.77609,423.808976 1367.47821,420.918494 C1362.89786,417.837106 1357.30002,413.897467 1353.69328,410.732955 C1346.69508,404.59747 1339.19247,401.145489 1330.6953,395.010697 C1323.58946,389.877681 1312.65836,382.079449 1309.26852,379.664434 C1308.20154,378.904824 1293.20859,393.093591 1282.21049,397.694893 C1271.20878,402.29675 1257.21581,413.034229 1251.71495,416.484963 C1246.2159,419.936252 1245.7169,422.435083 1238.72033,425.978361 C1231.71508,429.523025 1223.72052,437.193385 1216.22314,436.809216 C1208.72757,436.424909 1180.22854,446.010435 1177.73123,446.778219 C1175.2321,447.54725 1170.23222,452.148552 1170.23222,452.148552 C1170.23222,452.148552 1151.73674,470.556392 1116.24132,473.622126 C1116.24132,473.622126 1112.04547,472.156936 1107.06673,470.189818 C1100.64518,467.65178 1092.93975,464.276134 1091.25025,462.119633 C1088.25032,458.285423 1079.25037,445.628205 1077.25204,442.17761 C1075.2539,438.726322 1067.25572,435.274895 1067.25572,435.274895 C1067.25572,435.274895 1044.2646,427.802784 1040.76369,425.978361 C1037.26278,424.154631 1022.76901,417.635531 1022.76901,417.635531 C1022.76901,417.635531 1015.76918,415.717733 1013.76995,411.883661 C1011.7682,408.049451 995.273572,388.875212 990.773593,381.972497 C986.27542,375.06992 979.773684,370.468618 973.777264,361.648244 C967.778135,352.829255 961.779909,341.708991 957.78091,335.572814 C954.951109,331.224484 950.115938,325.157992 947.534821,321.985306 C946.473984,320.680405 945.783555,319.851802 945.783555,319.851802 C945.783555,319.851802 932.284521,342.85762 927.288076,349.377274 C922.290728,355.897759 921.792456,363.566042 917.788943,365.866762 C913.789944,368.168037 897.638276,380.054145 892.717682,385.806707 C887.797089,391.558716 883.796285,397.309893 878.801465,401.145489 C873.800686,404.980946 872.801613,404.982332 869.300707,408.049451 C865.800703,411.11657 861.801705,418.019839 857.804332,418.402623 C853.805153,418.785545 846.306151,426.455906 841.306997,427.606612 C841.306997,427.606612 835.702115,426.351032 830.401361,424.700476 C827.944676,423.935462 825.554813,423.086494 823.81059,422.236833 C818.312442,419.552637 815.814219,419.937498 814.815147,417.252748 C813.813366,414.567165 809.312484,413.416459 805.315111,410.732955 C801.316113,408.049451 798.31691,405.748176 791.319611,399.612553 C784.322312,393.477761 780.821406,392.324422 776.323233,391.558716 C771.824156,390.793564 747.326839,385.423231 745.331223,382.355419 C743.329466,379.2883 730.334844,370.085142 725.832337,367.783729 C721.334886,365.484533 712.339443,352.829948 706.340314,346.310848 C700.342088,339.791193 688.344732,327.136609 682.842249,323.68532 C677.345726,320.234032 674.348329,315.248422 672.34585,310.264337 C670.349331,305.27942 664.349298,297.225582 664.349298,297.225582 C660.173855,298.533115 652.967604,300.717463 646.3548,302.211054 C637.852211,304.128852 628.852253,308.730154 618.359285,308.730154 C607.86108,308.730154 602.862829,310.264337 600.861975,309.11363 C598.862024,307.963062 584.364821,306.429433 584.364821,306.429433 C584.364821,306.429433 573.865713,313.330763 567.369214,317.165528 C560.872716,321.001124 556.871912,327.519531 550.375414,328.670099 C543.875484,329.820805 535.378132,336.723382 533.377279,339.791193 C531.375522,342.859559 525.377296,347.459476 519.378347,349.377274 C513.378315,351.295765 492.387322,358.196263 485.889921,358.581263 C482.917266,358.75513 481.002738,359.243481 479.310528,359.547159 C477.2992,359.907083 475.603377,360.006555 472.890062,358.965433 C467.893617,357.046942 449.896229,346.693077 444.897978,343.625404 C440.712963,341.058827 430.959005,338.498484 427.873475,337.728622 C426.902577,337.490473 421.899991,342.859559 418.406128,346.69377 C414.903415,350.52798 387.409784,380.821236 383.410786,383.888909 C379.411607,386.957414 362.918787,402.296196 354.918804,406.896805 C346.922433,411.498661 315.924283,436.041432 307.431447,441.026903 C298.930483,446.013067 296.434969,447.160449 289.930525,451.380768 C284.552294,454.873341 278.853861,455.456452 274.774497,455.125067 C268.436926,454.064272 260.939549,450.998677 255.438692,448.697264 C250.345265,446.565146 223.822352,436.213913 219.941466,434.699264 C219.450237,434.509189 213.450385,441.028289 210.451182,442.946087 C207.453062,444.862499 205.453834,446.396682 201.45303,446.013067 C197.454754,445.628205 186.455748,444.859728 181.956672,443.327485 C177.457596,441.79538 170.960195,439.49466 168.458541,438.344092 C168.335011,438.285213 168.89848,441.890141 168.89848,441.890141 L167.962075,444.622272 L172.647168,450.373588 C172.647168,450.373588 175.459271,453.682181 174.709786,452.963024 C173.960301,452.243313 168.89848,451.668375 167.211687,451.668375 C165.523811,451.668375 160.836913,450.805138 160.836913,450.805138 L148.839557,445.628205 C148.839557,445.628205 147.527326,439.87689 147.527326,439.301259 C147.527326,438.726322 146.215277,434.987426 145.276885,434.699264 C144.340481,434.411796 143.964836,431.392057 143.964836,430.673039 C143.964836,429.953882 141.527475,423.626936 139.467385,421.470435 C137.404947,419.312548 132.531851,419.456629 132.531851,419.456629 L129.721554,418.163227 C129.721554,418.163227 127.097093,411.404039 125.973769,411.11657 C125.177509,410.91361 126.059192,405.930078 126.649208,402.852153 C123.112181,403.912948 119.634211,409.375964 116.471927,411.498661 C115.114005,412.411219 113.943725,412.67569 112.972826,412.664884 C112.941221,414.88442 112.935803,417.568617 113.036397,418.738165 C113.222413,420.894804 114.724272,422.619756 114.910289,423.339467 C115.099918,424.057931 114.910289,428.515706 114.910289,428.515706 L106.664331,423.339467 C106.664331,423.339467 104.039147,420.894804 100.476476,420.17634 C96.9130819,419.456629 94.852992,418.305922 94.1026042,417.443516 C93.3540224,416.580278 92.9809054,415.142796 92.9809054,415.142796 C92.9809054,415.142796 91.8548722,412.123057 92.9809054,410.971796 C94.1026042,409.821783 93.2904516,407.521062 92.480105,406.227106 C91.6688554,404.933012 87.9174582,404.356689 87.9174582,404.356689 C85.4810005,404.356689 79.6714999,402.34413 79.6714999,398.317904 C79.6714999,394.292233 80.0462423,390.984332 78.3592693,388.395589 C76.671574,385.806707 74.4218554,384.225144 74.6098587,382.930357 C74.7491003,381.969865 74.9775577,378.870327 74.8583626,376.631257 C72.8504657,375.23021 71.4818883,374.304214 71.4818883,374.304214 C71.4818883,374.304214 66.9846183,386.573799 62.4846392,390.791624 C57.9871885,395.010697 44.4874319,407.281667 40.4900592,411.11657 C36.4890745,414.950642 28.4892723,418.785545 22.9936523,419.936252 C17.4946009,421.086127 0,425.944558 0,425.944558 L0,617.038585 L0,706 L1768,706 L1768,508.587062 L1768,440.872709 C1768,440.872709 1747.60318,429.523025 1737.60324,421.086127 Z"/>
        <path
            fill="url(#b)"
            d="M955.221757,345.835558 C955.973663,346.606111 958.722819,352.378167 959.222403,353.340872 C959.724517,354.302186 960.976007,359.497092 960.976007,359.497092 C960.976007,359.497092 967.482162,369.50413 964.976653,370.081141 C962.476384,370.658152 956.258881,367.38796 956.258881,367.38796 L951.469276,364.500542 C951.469276,364.500542 953.215831,373.929874 954.220059,376.045905 C955.221757,378.163466 955.799062,382.396363 956.258881,384.705936 C956.722135,387.015648 956.049577,391.824305 956.258881,393.557562 C956.473247,395.288734 957.297632,399.520936 956.258881,400.484335 C955.221757,401.44704 951.469276,409.527279 951.469276,409.527279 C951.469276,409.527279 954.049796,414.145869 956.258881,416.263291 C958.473931,418.380157 960.728022,424.282492 961.727913,426.334148 C962.72708,428.385805 965.982688,433.392035 966.980952,434.351959 C967.979035,435.311883 970.734517,441.470884 970.734517,442.62574 C970.734517,443.779762 963.974955,442.04859 962.976872,441.470884 C961.975174,440.893178 952.974896,436.850347 951.969583,435.311883 C950.9715,433.774809 946.967239,431.271833 946.967239,431.271833 C946.967239,431.271833 952.469167,446.090865 953.72156,448.784046 C954.971965,451.477227 955.22013,460.138648 955.471549,462.062667 C955.724052,463.985295 956.722135,471.294286 955.973663,473.412403 C955.221757,475.529268 950.471013,477.838842 950.471013,477.838842 L945.465235,478.993003 L954.471658,485.34346 L963.478082,492.079472 C963.478082,492.079472 964.224747,492.846688 969.730108,494.773349 C975.23547,496.698758 983.736165,503.623584 983.238388,515.361656 C982.741516,527.099866 975.987376,535.372952 975.987376,535.372952 C975.987376,535.372952 987.495875,546.152629 996.997364,545.957002 C1006.50247,545.764294 1018.51308,552.114612 1018.76287,553.46301 C1019.00905,554.808489 1070.03925,553.46301 1070.03925,553.46301 C1070.03925,553.46301 1117.57163,576.707097 1118.69787,576.996298 C1119.82572,577.284247 1160.3437,560.678289 1160.3437,560.678289 L1135.95881,534.123828 C1135.95881,534.123828 1129.57429,525.174596 1137.08142,522.867665 C1144.58295,520.558091 1150.21014,518.82678 1150.21014,518.82678 C1150.21014,518.82678 1135.20329,506.993607 1134.82733,505.259654 C1134.45319,503.528482 1133.33057,499.199787 1132.2009,498.042985 C1131.07467,496.888824 1116.44197,482.168927 1115.69187,481.014766 C1114.94159,479.859353 1109.18571,471.773553 1106.62977,470.738965 C1100.20297,468.191775 1092.49123,464.803956 1090.80035,462.639678 C1087.79796,458.79164 1078.71292,445.89051 1076.71295,442.427471 C1074.71317,438.963736 1066.02179,435.069538 1066.02179,435.069538 C1066.02179,435.069538 1046.0285,428.558213 1042.52473,426.727211 C1039.02096,424.896904 1023.09447,417.342093 1023.09447,417.342093 C1023.09447,417.342093 1015.83189,415.628579 1013.8312,411.780542 C1011.82781,407.932504 996.419336,389.336067 991.915673,382.408598 C987.413816,375.48113 980.294207,370.404963 974.292876,361.55278 C968.288835,352.701988 962.028133,341.728213 958.025679,335.569907 C955.19356,331.205897 949.55047,325.184127 946.967239,322 L946.967239,331.78847 C946.967239,332.750479 954.471658,345.065005 955.221757,345.835558 Z M1004.0031,425.306235 C1006.62953,427.712996 1010.25513,431.561033 1010.25513,431.561033 L1012.37944,432.522348 L1016.75857,433.774809 C1016.75857,433.774809 1021.38587,439.352767 1021.88889,439.641272 C1022.38666,439.930473 1024.7633,440.701026 1025.88953,440.701026 C1027.01396,440.701026 1036.26837,443.200109 1036.76867,443.394207 C1037.27006,443.588444 1042.64836,449.167515 1043.52209,450.03317 C1044.39925,450.898826 1046.90223,452.918503 1047.90483,453.496209 C1048.90382,454.074054 1051.40318,455.805922 1051.40318,457.636228 C1051.40318,459.463754 1052.7765,461.484127 1053.65366,462.351868 C1054.531,463.216689 1061.15898,466.58546 1061.28605,468.121143 C1061.41131,469.660858 1063.91248,473.60664 1063.91248,473.60664 L1049.02745,466.10077 C1049.02745,466.10077 1044.39582,465.329522 1042.77362,465.329522 C1041.14979,465.329522 1038.52318,466.870628 1038.14813,466.870628 C1037.77127,466.870628 1032.26772,464.850116 1031.89177,464.562306 C1031.51672,464.273106 1027.38901,460.135867 1026.01389,459.076809 C1024.63804,458.020392 1014.13395,455.900885 1013.7571,455.900885 C1013.38114,455.900885 1005.62693,455.132418 1005.62693,455.132418 C1005.62693,455.132418 997.375125,448.973417 996.873914,448.878314 C996.373427,448.784046 994.620727,443.394207 994.620727,443.394207 C994.620727,443.394207 995.371729,423.287252 993.121253,417.128947 C993.121253,417.128947 1001.37577,422.901559 1004.0031,425.306235 Z"/>
        <path
            fill="url(#c)"
            d="M1314.38352,394.69268 L1317.84437,399.525641 C1317.84437,399.525641 1319.57221,403.775669 1320.30973,404.162289 C1321.05581,404.548211 1320.30973,408.993295 1320.30973,408.993295 L1318.33427,409.959356 C1318.33427,409.959356 1323.19517,413.436982 1320.64269,414.596005 C1318.09021,415.756284 1315.86552,416.915306 1315.86552,416.915306 C1315.86552,416.915306 1320.72803,425.030977 1321.38895,425.610419 C1322.04274,426.19 1327.22946,429.281006 1327.22946,429.281006 C1327.22946,429.281006 1338.8446,437.976955 1340.32659,438.944274 C1341.8102,439.911731 1345.76272,442.809916 1347.24472,444.16176 C1348.72672,445.514441 1352.18917,448.992067 1352.18917,448.992067 C1352.18917,448.992067 1353.17592,446.093883 1358.11698,446.672766 C1363.05804,447.252905 1368.00428,448.801899 1370.47124,450.925587 C1372.94356,453.050671 1375.65814,454.600223 1379.11899,456.723911 C1382.57805,458.848296 1387.27149,460.781816 1388.50943,462.131705 C1389.7472,463.484247 1392.21255,466 1392.21255,466 C1392.21255,466 1385.54365,448.216872 1382.57805,443.774581 C1379.61245,439.330894 1384.80274,439.52176 1377.14531,434.49919 C1369.48271,429.476759 1368.98942,426.57648 1367.75326,425.417458 C1367.18303,424.885768 1366.93559,423.257049 1366.80311,421.577227 C1362.27518,418.4717 1356.69265,413.559014 1353.12718,410.369713 C1346.20905,404.186165 1339.54551,401.6302 1331.14539,395.44735 C1324.12086,390.274125 1312.61052,382.433933 1309.25947,380 C1309.80167,381.109875 1310.27068,382.135277 1310.42761,382.712065 C1310.92446,384.451925 1314.38352,394.69268 1314.38352,394.69268 Z"/>
        <path
            fill="url(#d)"
            d="M661.811715,305.477783 C662.935653,306.343342 664.804856,313.846432 664.804856,315.86658 C664.804856,317.887423 663.161846,323.370921 663.161846,323.370921 L658.443868,332.318603 C658.443868,332.318603 667.424733,338.089879 668.920853,338.956133 C670.416973,339.820997 672.663586,348.480066 672.663586,348.480066 C672.663586,348.480066 673.78482,357.137745 674.906955,357.137745 C676.028009,357.137745 680.142384,371.856703 680.142384,371.856703 L677.149243,374.453937 C677.149243,374.453937 678.648066,381.092162 680.142384,382.534669 C681.641928,383.978565 681.641928,386.864134 677.899015,388.595947 C674.158805,390.327622 668.171081,392.347075 668.171081,392.347075 L660.315776,392.347075 C660.315776,392.347075 674.158805,399.852111 677.52503,405.623526 C680.892156,411.395637 686.130108,423.51597 685.382138,424.959866 C684.634889,426.403068 680.518171,433.330462 680.518171,433.330462 L674.531168,433.330462 L663.307835,433.330462 C663.307835,433.330462 668.546868,440.545634 668.171081,443.431342 C667.796916,446.31705 665.553727,449.780399 665.553727,449.780399 L670.044611,455.26195 C670.044611,455.26195 664.056887,463.345324 658.443868,467.096591 C652.831751,470.850499 646.095877,468.830212 646.095877,468.830212 L638.613836,457.863216 C638.613836,457.863216 631.12891,456.998352 631.502895,455.55376 C631.879584,454.110698 632.227255,449.203452 631.492442,446.605523 C630.754925,444.008289 627.762686,426.564613 627.762686,426.564613 C627.762686,426.564613 619.905758,442.854395 617.659866,445.45149 C615.413974,448.048029 609.053887,455.55376 608.679902,456.417234 C608.304835,457.283489 612.420112,470.55855 612.420112,470.55855 C612.420112,470.55855 617.659866,473.158426 617.659866,475.177323 C617.659866,477.197471 621.401698,478.640672 621.401698,478.640672 L625.89186,478.640672 C627.762686,478.640672 628.884821,487.777564 629.260608,488.836644 C629.634593,489.898226 630.38094,493.648103 628.884821,495.668251 C627.386898,497.688539 618.78182,507.502892 618.78182,507.502892 L614.667626,513.274307 L639.73579,531.745087 L777.427129,543 L816.3358,533.476067 L820.453599,518.470026 C820.453599,518.470026 820.453599,515.294455 818.209329,513.274307 C815.963617,511.252768 809.602629,500.576192 815.589452,499.131601 C821.575554,497.688539 838.78589,506.925945 838.78589,506.925945 L838.78589,495.95742 C838.78589,495.95742 838.039542,489.220766 839.907844,488.836644 C841.779752,488.455164 845.521764,488.836644 845.521764,488.836644 C845.521764,488.836644 839.159875,479.506788 837.288868,476.909692 C835.419665,474.309678 830.930584,467.962706 826.442224,463.634492 C821.949539,459.303637 819.329662,452.955275 820.079434,450.35679 C820.829386,447.759556 826.814587,442.854395 826.814587,442.854395 L829.434464,440.256466 L838.78589,442.565922 C838.78589,442.565922 832.052539,435.639084 830.556419,433.618935 C829.0612,431.598092 828.612418,427.404314 829.024252,425.316183 C826.572533,424.548496 824.752533,422.857555 823.011836,422.004925 C817.524801,419.311348 815.560434,419.833381 814.563381,417.139108 C813.563625,414.444141 807.978002,413.992732 803.98871,411.29985 C799.997795,408.606967 798.228801,405.918117 791.245646,399.76119 C784.262492,393.604958 779.964278,392.101282 775.475198,391.3329 C770.985216,390.565213 747.277635,385.114247 745.286053,382.035714 C743.288342,378.957876 729.953932,370.095138 725.460346,367.785821 C720.972166,365.478451 712.719085,352.990818 706.732082,346.448935 C700.74598,339.906497 688.226406,326.534258 682.734865,323.070909 C677.249633,319.607559 674.693919,314.945411 672.695308,309.943768 C670.703004,304.94157 663.392365,297 663.392365,297 C663.392365,297 662.823007,297.553174 662.003664,297.809116 C661.670052,301.2562 661.218566,305.020257 661.811715,305.477783 Z M732.900213,387.441219 C734.209791,388.739836 740.944764,393.791667 742.066899,394.224029 C743.188853,394.656392 749.925629,403.026292 751.607389,403.891157 C753.293656,404.757411 763.394854,407.49909 764.143725,407.643675 C764.892596,407.788259 780.794255,413.415785 780.794255,413.415785 C780.794255,413.415785 777.801113,407.49909 778.549264,407.49909 C779.297233,407.49909 784.908449,412.983283 785.846566,413.415785 C786.780356,413.848843 792.015605,418.323031 792.765557,418.756089 C793.514428,419.187756 792.765557,426.004627 795.383632,426.564613 C798.003509,427.124599 801.932964,428.856274 802.867476,428.712384 C803.803069,428.567105 812.035964,433.185182 812.035964,433.185182 L807.170916,436.649227 C807.170916,436.649227 804.55194,436.793811 804.55194,437.947149 C804.55194,439.101182 805.861518,442.277309 805.861518,442.277309 C805.861518,442.277309 799.127266,440.545634 797.817868,440.689524 C796.507389,440.834108 789.400233,441.410499 788.089754,442.277309 C786.780356,443.142869 786.407994,450.789848 786.780356,451.2236 C787.156144,451.655963 788.651182,459.159748 789.586775,460.746838 C790.522188,462.335319 795.570174,468.97424 795.570174,468.97424 C795.570174,468.97424 785.65732,462.768377 784.721907,462.768377 C783.788117,462.768377 774.993793,458.870579 774.993793,458.870579 C774.993793,458.870579 766.574356,454.976814 766.7627,453.388333 C766.950143,451.800547 763.582297,444.873848 763.582297,444.873848 L759.091413,440.689524 C759.091413,440.689524 761.898734,437.80326 762.45926,437.370063 C763.020688,436.938396 764.892596,432.463512 763.582297,429.866417 C762.272718,427.269183 754.789595,417.023719 753.665838,415.292044 C752.544604,413.560369 744.126069,409.808546 743.188853,409.808546 C742.25344,409.808546 739.448644,412.69481 739.448644,412.69481 L730.093794,410.097715 L727.089298,409.519934 C727.089298,409.519934 728.035344,403.314905 728.595871,402.304761 C729.160003,401.294618 729.719809,398.40891 729.906351,397.975157 C730.093794,397.54349 726.540126,389.461368 726.166141,387.729693 C725.790353,385.998713 721.488716,374.7438 721.488716,374.7438 C721.488716,374.7438 731.589914,386.142602 732.900213,387.441219 Z"/>
        <path
            fill="url(#e)"
            d="M432.508575,349.941131 C433.077392,350.52307 437.605572,356.758686 437.605572,357.48314 C437.605572,358.208433 436.847755,361.398547 437.605572,361.398547 C438.359935,361.398547 446.09148,365.169202 446.09148,365.169202 C446.09148,365.169202 454.579932,365.024591 455.522205,367.055578 C456.465568,369.085866 457.598658,372.131369 458.919112,372.566042 C460.238476,373.001273 465.332019,374.742339 466.463292,374.742339 C467.594746,374.742339 471.179563,378.802217 472.121109,379.3822 C473.066108,379.962042 477.781652,380.251964 478.914742,380.397274 C480.045288,380.542025 487.21056,382.572313 487.966559,383.152855 C488.721831,383.732698 498.71792,392 498.71792,392 C498.71792,392 480.990287,371.551526 480.79947,370.100382 C480.612287,368.650635 478.785168,362.017372 478.914742,360.963315 C478.937822,360.77567 478.762088,360.418123 478.518024,360.004688 C476.494091,360.367684 474.787641,360.468004 472.057322,359.417999 C467.029564,357.48314 448.919389,347.040938 443.889814,343.947092 C439.678572,341.358618 429.863487,338.776431 426.758621,338 C428.015106,340.205639 430.265475,344.00843 430.812847,344.430667 C431.56812,345.011348 431.94521,349.361847 432.508575,349.941131 Z"/>
        <path
            fill="url(#f)"
            d="M1735.61871,422.135153 C1725.62529,413.680809 1709.14097,407.534619 1706.64483,407.148816 C1704.14165,406.765234 1694.02657,397.54817 1694.02657,397.54817 C1694.02657,397.54817 1689.06245,390.532916 1689.06245,388.611121 C1689.06245,386.688632 1683.9855,382.190329 1683.9855,382.190329 C1683.9855,382.190329 1664.82362,382.464236 1662.32387,380.541747 C1659.82412,378.620646 1651.49306,376.463676 1651.49306,376.463676 L1639.53403,376.116606 C1639.53403,376.116606 1624.91839,358.588191 1620.91857,353.209996 C1616.92398,347.831108 1612.2772,341.249692 1608.28262,333.94762 C1604.2828,326.64763 1597.31966,307.347909 1589.32869,301.583356 C1581.33771,295.818804 1565.92546,284.738252 1562.92858,278.589979 C1559.93006,272.4424 1556.38496,270 1556.38496,270 C1556.38496,270 1554.94121,273.903148 1552.91567,278.049105 C1555.12804,281.128586 1557.70523,284.576934 1558.87063,285.623557 C1561.1182,287.64156 1569.73845,297.440869 1569.73845,300.898657 L1569.73845,308.969419 C1569.73845,308.969419 1577.23392,310.986728 1577.60938,313.578923 C1577.97962,316.173201 1576.10751,330.295195 1577.60938,331.160926 C1579.10422,332.02513 1570.85962,331.160926 1566.74156,329.430991 C1562.61647,327.701751 1561.86734,326.54934 1561.1182,325.396235 C1560.36889,324.243963 1552.12412,316.173201 1552.12412,316.173201 C1552.12412,316.173201 1554.37187,328.277887 1554.37187,334.04119 C1554.37187,339.805742 1555.49647,346.722706 1554.37187,347.29898 C1553.24709,347.87581 1549.1238,350.757462 1549.1238,350.757462 C1549.1238,350.757462 1565.23969,357.674425 1566.3661,357.962493 C1567.48727,358.2507 1577.97962,361.99725 1580.23243,364.591388 C1582.47838,367.184972 1586.2262,375.83187 1586.2262,377.849179 C1586.2262,379.865933 1585.10142,385.629791 1582.10291,385.917304 C1579.10422,386.206066 1573.85633,386.206066 1571.61218,387.359032 C1569.36298,388.512137 1569.73845,391.681856 1570.85962,391.681856 C1571.98603,391.681856 1575.3582,398.023378 1571.61218,398.598819 C1567.86454,399.175788 1562.2428,402.921644 1560.74436,402.921644 C1559.24429,402.921644 1555.121,401.193097 1554.37187,402.921644 C1553.62256,404.651579 1550.99952,412.432885 1551.37498,413.873363 C1551.74865,415.31523 1555.87013,423.384604 1562.99212,429.436531 C1570.11031,435.488596 1578.73055,447.30452 1580.60266,451.050514 C1582.47838,454.799146 1586.2262,461.714027 1586.2262,461.714027 C1586.2262,461.714027 1597.84315,462.867826 1603.08761,461.714027 C1608.33551,460.561616 1613.2045,462.002789 1617.70145,464.597761 C1622.19841,467.191205 1637.56138,476.989265 1642.80945,480.447747 C1648.05734,483.907616 1655.54938,487.942234 1657.05306,489.959543 C1658.54789,491.974214 1664.16962,498.027667 1664.16962,498.027667 C1664.16962,498.027667 1663.42031,492.55035 1664.16962,491.68684 C1664.91875,490.82458 1669.79118,489.096033 1672.78987,489.959543 C1675.78838,490.82458 1679.53259,491.398078 1684.03316,495.14671 C1688.52831,498.892565 1697.14855,500.911263 1697.52402,501.776161 C1697.89769,502.639809 1701.27004,512.726492 1701.27004,512.726492 C1701.27004,512.726492 1707.26724,508.982025 1708.01637,506.675815 C1708.76731,504.369744 1723.00568,506.675815 1725.24983,506.675815 C1727.50083,506.675815 1733.12076,509.845535 1738.7443,509.555523 C1744.36585,509.266761 1746.23977,514.167665 1747.36455,514.74394 C1748.48734,515.320076 1756.73031,514.74394 1756.73031,514.74394 C1756.73031,514.74394 1763.1223,512.391639 1766.00113,509.818463 L1766.00113,441.962976 C1766.00113,441.962976 1745.61393,430.589636 1735.61871,422.135153 Z M1670.91596,429.86773 C1670.91596,429.86773 1659.6761,431.309458 1654.23596,429.29215 C1648.80647,427.274147 1640.18623,419.637222 1640.18623,419.637222 C1640.18623,419.637222 1634.94195,416.611189 1635.87971,414.737567 C1636.81568,412.865334 1638.8748,404.506504 1638.8748,404.506504 L1645.99479,407.100781 C1645.99479,407.100781 1646.5589,404.938953 1646.37387,404.362122 C1646.18162,403.786681 1646.18162,399.751924 1645.99479,397.73531 C1645.80796,395.717307 1638.8748,388.36845 1638.8748,388.36845 L1664.91875,390.673826 C1664.91875,390.673826 1674.1013,394.276828 1674.1013,395.572787 C1674.1013,396.870273 1677.84912,404.362122 1677.84912,404.362122 L1682.72155,407.100781 C1682.72155,407.100781 1689.46445,416.611189 1689.65652,417.619913 C1689.83992,418.629331 1693.77457,420.070365 1695.27464,420.934708 C1696.77309,421.799745 1705.01949,426.121736 1707.45588,427.70729 C1709.89029,429.29215 1713.82314,438.514629 1713.82314,438.514629 C1713.82314,438.514629 1684.77886,426.986079 1683.46725,427.00371 C1682.15564,427.020647 1670.91596,429.86773 1670.91596,429.86773 Z M1719.25786,485.636163 C1716.25935,484.483752 1712.88699,480.880196 1710.82625,480.302671 C1708.76731,479.726397 1692.08749,476.556677 1692.08749,476.556677 C1692.08749,476.556677 1688.15284,473.961844 1685.5298,470.794762 C1682.90657,467.623793 1679.34919,466.038934 1678.22098,465.606346 C1677.09981,465.173897 1674.79411,463.156588 1674.79411,463.156588 C1674.79411,463.156588 1682.15564,463.589037 1681.97242,459.264269 C1681.95111,458.83182 1682.90657,461.857714 1688.71514,463.443962 C1694.52551,465.03021 1700.3339,466.18262 1703.89489,468.632378 C1707.45588,471.082275 1711.94922,473.67572 1715.51022,475.404405 C1719.07103,477.132952 1723.56455,480.015159 1724.12685,480.447747 C1724.69276,480.880196 1729.93542,484.914813 1729.93542,484.914813 C1729.93542,484.914813 1722.25294,486.788574 1719.25786,485.636163 Z"/>
        <path
            fill="url(#g)"
            d="M572.676088,323.330765 C572.676088,323.330765 575.796442,320.31501 577.046136,319.371752 C578.295108,318.428357 579.793549,317.01531 579.793549,316.260213 C579.793549,315.505116 581.289283,312.110177 582.166397,311.828003 C583.043331,311.545285 586.664248,311.356306 587.413378,310.980529 C588.162509,310.602571 589.786226,309 589.786226,309 C589.786226,309 600.780031,314.280229 601.40226,314.657505 C602.027197,315.033418 604.399143,316.635445 605.024983,317.578703 C605.651544,318.522779 605.651544,321.351599 606.40248,321.917717 C607.149986,322.483836 608.598064,324.462457 609.12426,325.123133 C609.646124,325.78231 609.646124,330.401454 610.523961,331.439951 C611.394937,332.476404 612.771713,335.399646 612.644631,336.342359 C612.519536,337.285072 612.653477,342 612.653477,342 L604.273866,334.456933 C604.273866,334.456933 597.778816,332.195048 596.406373,331.534372 C595.033208,330.873833 592.909829,328.233309 592.034701,327.479439 C591.159391,326.725704 589.412383,326.347883 588.288688,325.97197 C587.163909,325.594149 584.414871,322.481928 584.289595,322.105334 C584.165402,321.728739 574.922938,322.671452 572.676088,323.330765 Z"/>
        <path
            fill="url(#h)"
            d="M578.904718,338 C578.904718,338 594.696956,344.407312 595.952772,344.980787 C597.20406,345.554401 601.212746,352.342971 601.839567,353.108802 C602.467475,353.873252 606.978379,360.375084 607.354363,360.56592 C607.728355,360.758276 613.999103,365.06114 614.374906,365.348568 C614.75089,365.635306 615.376987,375.006174 615.376987,375.387984 C615.376987,375.770624 616.878569,378.447304 618.258083,380.934392 C619.639408,383.420098 621.767992,391.644567 621.767992,392.027068 C621.767992,392.409017 622.647824,397 622.647824,397 C622.647824,397 614.874588,389.826718 614.6252,389.539981 C614.374906,389.253243 610.240711,384.28114 610.240711,384.28114 C610.240711,384.28114 607.606286,380.551752 606.225867,380.073349 C604.84907,379.595637 600.963357,379.690157 600.212476,379.786611 C599.46087,379.883066 591.68854,382.942385 589.55905,383.228432 C587.42956,383.515999 582.039549,386.290516 581.038555,387.916561 C580.036655,389.539981 576.899832,392.027068 576.899832,392.027068 L580.536337,381.98627 C580.536337,381.98627 588.555339,375.770624 589.55905,375.101246 C590.560044,374.433251 593.569366,371.276095 593.569366,371.276095 L589.810249,365.254048 C589.810249,365.254048 586.177366,359.609805 585.424855,359.132093 C584.673068,358.654381 575.39825,352.724781 574.897843,352.438734 C574.39635,352.151305 574.897843,348.805248 574.897843,348.805248 L580.036655,347.562395 C580.036655,347.562395 584.421144,340.965491 579.660852,338 L579.660852,338"/>
        <path
            fill="url(#i)"
            d="M417.763708,368 C417.763708,368 461.613683,395.655335 463.299185,396.520574 C464.985591,397.385259 478.66622,406.458965 479.040836,407.178495 C479.415452,407.899412 480.54201,414.38073 480.54201,415.24597 C480.54201,416.109822 482.03885,423.887958 482.03885,424.751949 C482.03885,425.615801 483.351542,427.448138 484.10258,428.117571 C484.85091,428.785617 497.217042,441.029139 499.465101,444.054633 C501.714785,447.078046 508.461129,458.748858 508.837551,459.322123 C509.210362,459.898024 516.707744,472 516.707744,472 L495.717673,460.617693 C495.717673,460.617693 491.221735,459.898024 484.10258,457.449264 C476.978911,454.999117 471.545981,451.832631 470.234192,450.968085 C468.921681,450.102846 461.238163,449.238855 458.802525,447.942591 C456.365984,446.646328 453.180933,442.470419 453.180933,441.749363 C453.180933,441.029139 449.056361,430.225509 448.306948,429.073012 C447.558618,427.921071 442.124785,423.454991 441.189598,422.448066 C440.25062,421.440586 430.694021,416.973812 430.319405,412.076153 C429.943886,407.178495 425.447948,392.343278 425.258383,388.02152 C425.071526,383.700595 424.50915,382.691589 423.199166,380.820118 C421.886655,378.946565 417.763708,368 417.763708,368 Z"/>
        <path
            fill="url(#j)"
            d="M400.773318,385 C400.773318,385 400.773318,392.067861 398.643018,393.982498 C396.511785,395.896285 395.156089,398.546307 391.476768,399.872099 C387.796514,401.197181 382.565559,405.024754 382.565559,405.024754 L375.787451,409 C375.787451,409 383.34091,400.460803 384.115513,399.429506 C384.88993,398.398776 387.989651,394.571203 388.280384,394.276851 C388.571117,393.982498 392.250252,391.184804 392.832464,390.74292 C393.412997,390.300186 400.773318,385 400.773318,385 Z"/>
    </g>
</svg>
